G04 ================== begin FILE IDENTIFICATION RECORD ==================*
G04 Layout Name:  E:/ORCAD_sch/K400/KPRM/KPRM_02v1/pcb/KPRM_02v1.brd*
G04 Film Name:    BOTTOM*
G04 File Format:  Gerber RS274X*
G04 File Origin:  Cadence Allegro 16.6-S001*
G04 Origin Date:  Mon Jan 28 10:58:12 2013*
G04 *
G04 Layer:  ETCH/BOTTOM*
G04 Layer:  PIN/BOTTOM*
G04 Layer:  VIA CLASS/BOTTOM*
G04 *
G04 Offset:    (0.000 0.000)*
G04 Mirror:    No*
G04 Mode:      Positive*
G04 Rotation:  0*
G04 FullContactRelief:  No*
G04 UndefLineWidth:     0.250*
G04 ================== end FILE IDENTIFICATION RECORD ====================*
%FSLAX34Y34*MOMM*%
%IR0*IPPOS*OFA0.00000B0.00000*MIA0B0*SFA1.00000B1.00000*%
%ADD11C,1.*%
%ADD10C,4.2*%
%ADD17C,5.2*%
%ADD16C,2.5*%
%ADD12C,1.55*%
%ADD14R,2.05X2.05*%
%ADD13R,1.55X1.55*%
%ADD15R,2.5X2.5*%
%ADD18C,.25*%
%ADD19C,2.164*%
%ADD20C,2.554*%
%ADD21R,2.164X2.164*%
G75*
%LPD*%
G75*
G36*
G01X-976360Y-63910D02*
G02X-975030Y-62610I920J389D01*
G03X-976430Y-19350I9830J21971D01*
G02X-977900Y-18470I-470J882D01*
G01Y826190D01*
G02X-976430Y827070I1000J-2D01*
G03Y869650I11230J21290D01*
G02X-977900Y870530I-470J882D01*
G01Y2196150D01*
G02X-957900Y2216150I19973J27D01*
G01X-401000D01*
G02X-381000Y2196150I27J-19973D01*
G01Y2000320D01*
G03Y1974780I0J-12770D01*
G01Y1949520D01*
X-393770D01*
Y1945770D01*
X-409070D01*
Y143380D01*
X-393770D01*
Y139630D01*
X-381000D01*
Y-56200D01*
G02X-401000Y-76200I-19973J-27D01*
G01X-957900D01*
G02X-976360Y-63910I-24J19972D01*
G37*
%LPC*%
G75*
G36*
G01X-927030Y22930D02*
Y-2610D01*
X-952570D01*
Y22930D01*
X-947170D01*
G03X-946640Y24770I-5J998D01*
G02X-944730Y47340I6838J10787D01*
G03Y49180I-391J920D01*
G02Y72740I4930J11780D01*
G03Y74580I-391J920D01*
G02Y98140I4930J11780D01*
G03Y99980I-391J920D01*
G02Y123540I4930J11780D01*
G03Y125380I-391J920D01*
G02Y148940I4930J11780D01*
G03Y150780I-391J920D01*
G02Y174340I4930J11780D01*
G03Y176180I-391J920D01*
G02Y199740I4930J11780D01*
G03Y201580I-391J920D01*
G02X-934870I4930J11780D01*
G03Y199740I391J-920D01*
G02Y176180I-4930J-11780D01*
G03Y174340I391J-920D01*
G02Y150780I-4930J-11780D01*
G03Y148940I391J-920D01*
G02Y125380I-4930J-11780D01*
G03Y123540I391J-920D01*
G02Y99980I-4930J-11780D01*
G03Y98140I391J-920D01*
G02Y74580I-4930J-11780D01*
G03Y72740I391J-920D01*
G02Y49180I-4930J-11780D01*
G03Y47340I391J-920D01*
G02X-932960Y24770I-4928J-11783D01*
G03X-932430Y22930I535J-842D01*
G01X-927030D01*
G37*
G36*
G01X-876230D02*
Y-2610D01*
X-901770D01*
Y22930D01*
X-896370D01*
G03X-895840Y24770I-5J998D01*
G02X-893930Y47340I6838J10787D01*
G03Y49180I-391J920D01*
G02Y72740I4930J11780D01*
G03Y74580I-391J920D01*
G02Y98140I4930J11780D01*
G03Y99980I-391J920D01*
G02Y123540I4930J11780D01*
G03Y125380I-391J920D01*
G02Y148940I4930J11780D01*
G03Y150780I-391J920D01*
G02Y174340I4930J11780D01*
G03Y176180I-391J920D01*
G02Y199740I4930J11780D01*
G03Y201580I-391J920D01*
G02X-884070I4930J11780D01*
G03Y199740I391J-920D01*
G02Y176180I-4930J-11780D01*
G03Y174340I391J-920D01*
G02Y150780I-4930J-11780D01*
G03Y148940I391J-920D01*
G02Y125380I-4930J-11780D01*
G03Y123540I391J-920D01*
G02Y99980I-4930J-11780D01*
G03Y98140I391J-920D01*
G02Y74580I-4930J-11780D01*
G03Y72740I391J-920D01*
G02Y49180I-4930J-11780D01*
G03Y47340I391J-920D01*
G02X-882160Y24770I-4928J-11783D01*
G03X-881630Y22930I535J-842D01*
G01X-876230D01*
G37*
G36*
G01X-595910Y115380D02*
X-635990D01*
G02Y125920I-5360J5270D01*
G01X-595910D01*
G02Y115380I5360J-5270D01*
G37*
G36*
G01X-814880Y607830D02*
X-870720Y551990D01*
X-877410D01*
G03X-878250Y550450I2J-1000D01*
G02Y536670I-10750J-6890D01*
G03X-877410Y535130I842J-540D01*
G01X-791700D01*
X-785320Y541510D01*
Y1340010D01*
G02X-776780I4270J6190D01*
G01Y1337670D01*
G03X-774910Y1337180I999J0D01*
G02X-769460Y1326060I6559J-3681D01*
G01X-769710Y1326100D01*
X-770430Y1325380D01*
Y1314470D01*
G03X-768720Y1313770I999J3D01*
G01X-763050Y1319440D01*
X-763090Y1319690D01*
G02X-756760Y1313360I7440J1110D01*
G01X-757010Y1313400D01*
X-764080Y1306330D01*
Y1295420D01*
G03X-762370Y1294720I999J3D01*
G01X-750350Y1306740D01*
X-750390Y1306990D01*
G02X-744060Y1300660I7440J1110D01*
G01X-744310Y1300700D01*
X-757730Y1287280D01*
Y1276370D01*
G03X-756020Y1275670I999J3D01*
G01X-737650Y1294040D01*
X-737690Y1294290D01*
G02X-731360Y1287960I7440J1110D01*
G01X-731610Y1288000D01*
X-751380Y1268230D01*
Y1257320D01*
G03X-749670Y1256620I999J3D01*
G01X-724950Y1281340D01*
X-724990Y1281590D01*
G02X-718660Y1275260I7440J1110D01*
G01X-718910Y1275300D01*
X-745030Y1249180D01*
Y1244620D01*
G03X-743320Y1243920I999J3D01*
G01X-724950Y1262290D01*
X-724990Y1262540D01*
G02X-718660Y1256210I7440J1110D01*
G01X-718910Y1256250D01*
X-738680Y1236480D01*
Y1225570D01*
G03X-736970Y1224870I999J3D01*
G01X-712250Y1249590D01*
X-712290Y1249840D01*
G02X-705960Y1243510I7440J1110D01*
G01X-706210Y1243550D01*
X-732330Y1217430D01*
Y493660D01*
X-877200Y348790D01*
X-877410D01*
G03X-878250Y347250I2J-1000D01*
G02X-884070Y328580I-10751J-6891D01*
G03Y326740I391J-920D01*
G02Y303180I-4930J-11780D01*
G03Y301340I391J-920D01*
G02Y277780I-4930J-11780D01*
G03Y275940I391J-920D01*
G02X-893930I-4930J-11780D01*
G03Y277780I-391J920D01*
G02X-901030Y285290I4935J11776D01*
G01X-927770D01*
G02X-934870Y277780I-12035J4266D01*
G03Y275940I391J-920D01*
G02X-944730I-4930J-11780D01*
G03Y277780I-391J920D01*
G02Y301340I4930J11780D01*
G03Y303180I-391J920D01*
G02Y326740I4930J11780D01*
G03Y328580I-391J920D01*
G02Y352140I4930J11780D01*
G03Y353980I-391J920D01*
G02Y377540I4930J11780D01*
G03Y379380I-391J920D01*
G02Y402940I4930J11780D01*
G03Y404780I-391J920D01*
G02Y428340I4930J11780D01*
G03Y430180I-391J920D01*
G02Y453740I4930J11780D01*
G03Y455580I-391J920D01*
G02X-946640Y478150I4928J11783D01*
G03X-947170Y479990I-535J842D01*
G01X-952570D01*
Y505530D01*
X-947170D01*
G03X-946640Y507370I-5J998D01*
G02X-944730Y529940I6838J10787D01*
G03Y531780I-391J920D01*
G02Y555340I4930J11780D01*
G03Y557180I-391J920D01*
G02Y580740I4930J11780D01*
G03Y582580I-391J920D01*
G02Y606140I4930J11780D01*
G03Y607980I-391J920D01*
G02Y631540I4930J11780D01*
G03Y633380I-391J920D01*
G02Y656940I4930J11780D01*
G03Y658780I-391J920D01*
G02Y682340I4930J11780D01*
G03Y684180I-391J920D01*
G02Y707740I4930J11780D01*
G03Y709580I-391J920D01*
G02X-946640Y732150I4928J11783D01*
G03X-947170Y733990I-535J842D01*
G01X-952570D01*
Y759530D01*
X-927030D01*
Y733990D01*
X-932430D01*
G03X-932960Y732150I5J-998D01*
G02X-928670Y727620I-6847J-10781D01*
G03X-927090Y727410I869J493D01*
G01X-916170Y738330D01*
X-901770D01*
Y759530D01*
X-876230D01*
Y738330D01*
X-874270D01*
X-867870Y744730D01*
Y1697220D01*
X-839250Y1725840D01*
X-839290Y1726090D01*
G02X-832960Y1719760I7440J1110D01*
G01X-833210Y1719800D01*
X-859330Y1693680D01*
Y1682770D01*
G03X-857620Y1682070I999J3D01*
G01X-826550Y1713140D01*
X-826590Y1713390D01*
G02X-820260Y1707060I7440J1110D01*
G01X-820510Y1707100D01*
X-852980Y1674630D01*
Y1663720D01*
G03X-851270Y1663020I999J3D01*
G01X-813850Y1700440D01*
X-813890Y1700690D01*
G02X-807560Y1694360I7440J1110D01*
G01X-807810Y1694400D01*
X-846630Y1655580D01*
Y1644670D01*
G03X-844920Y1643970I999J3D01*
G01X-801150Y1687740D01*
X-801190Y1687990D01*
G02X-794860Y1681660I7440J1110D01*
G01X-795110Y1681700D01*
X-840280Y1636530D01*
Y1625620D01*
G03X-838570Y1624920I999J3D01*
G01X-801150Y1662340D01*
X-801190Y1662590D01*
G02X-794860Y1656260I7440J1110D01*
G01X-795110Y1656300D01*
X-833930Y1617480D01*
Y1606570D01*
G03X-832220Y1605870I999J3D01*
G01X-788060Y1650030D01*
X-788070Y1650250D01*
G02X-782440Y1643220I7518J251D01*
G01X-782720Y1643290D01*
X-827580Y1598430D01*
Y1586520D01*
G03X-825870Y1585820I999J3D01*
G01X-775250Y1636440D01*
X-775290Y1636690D01*
G02X-768960Y1630360I7440J1110D01*
G01X-769210Y1630400D01*
X-821230Y1578380D01*
Y1568470D01*
G03X-819520Y1567770I999J3D01*
G01X-763050Y1624240D01*
X-763090Y1624490D01*
G02X-756760Y1618160I7440J1110D01*
G01X-757010Y1618200D01*
X-814880Y1560330D01*
Y607830D01*
G37*
G54D19*
X-939800Y772160D03*
X-889000D03*
G54D20*
X-939800Y797560D03*
X-889000D03*
G54D21*
X-939800Y238760D03*
X-889000D03*
%LPD*%
G75*
G54D10*
X-965200Y-40640D03*
Y848360D03*
G54D11*
G01X-381000Y152400D02*
X-400050D01*
Y254000D01*
G01D02*
Y355600D01*
G01X-381000Y254000D02*
X-400050D01*
G01Y355600D02*
Y457200D01*
G01X-381000Y355600D02*
X-400050D01*
G01Y457200D02*
Y558800D01*
G01X-381000Y457200D02*
X-400050D01*
G01Y558800D02*
X-381000D01*
G01X-400050D02*
Y660400D01*
G01X-381000D02*
X-381010Y660390D01*
G01X-400050Y762000D02*
Y660400D01*
G01D02*
X-381000D01*
G01Y762000D02*
X-400050D01*
G01Y863600D02*
Y762000D01*
G01X-381000Y863600D02*
X-400050D01*
G01Y1225550D02*
Y863600D01*
G01X-381000Y1225550D02*
X-400050D01*
G01Y1327150D02*
Y1225550D01*
G01X-381000Y1327150D02*
X-400050D01*
G01Y1428750D02*
Y1327150D01*
G01X-381000Y1428750D02*
X-400050D01*
G01Y1530350D02*
Y1428750D01*
G01X-381000Y1530350D02*
X-400050D01*
G01Y1631950D02*
Y1530350D01*
G01X-381000Y1631950D02*
X-400050D01*
G01Y1733550D02*
Y1631950D01*
G01X-381000Y1733550D02*
X-400050D01*
G01Y1835150D02*
Y1733550D01*
G01X-381000Y1936750D02*
X-400050D01*
Y1835150D01*
G01X-381000D02*
X-400050D01*
G01X-196850Y152400D02*
X-279400D01*
G01X-196850Y195400D02*
X-217350D01*
X-234950Y177800D01*
X-292100D01*
X-304800Y165100D01*
Y152400D01*
G01X-196850Y254000D02*
X-279400D01*
G01X-196850Y297000D02*
X-217350D01*
X-234950Y279400D01*
X-292100D01*
X-304800Y266700D01*
Y254000D01*
G01X-196850Y355600D02*
X-279400D01*
G01X-196850Y398600D02*
X-217350D01*
X-234950Y381000D01*
X-292100D01*
X-304800Y368300D01*
Y355600D01*
G01X-196850Y457200D02*
X-279400D01*
G01X-196850Y500200D02*
X-217350D01*
X-234950Y482600D01*
X-292100D01*
X-304800Y469900D01*
Y457200D01*
G01X-196850Y558800D02*
X-279400D01*
G01X-196850Y601800D02*
X-217350D01*
X-234950Y584200D01*
X-292100D01*
X-304800Y571500D01*
Y558800D01*
G01X-196850Y660400D02*
X-279400D01*
G01X-196850Y703400D02*
X-217350D01*
X-234950Y685800D01*
X-292100D01*
X-304800Y673100D01*
Y660400D01*
G01X-196850Y762000D02*
X-279400D01*
G01X-196850Y805000D02*
X-217350D01*
X-234950Y787400D01*
X-292100D01*
X-304800Y774700D01*
Y762000D01*
G01X-196850Y863600D02*
X-279400D01*
G01X-196850Y906600D02*
X-217350D01*
X-234950Y889000D01*
X-292100D01*
X-304800Y876300D01*
Y863600D01*
G01X-196850Y1225550D02*
X-279400D01*
G01X-196850Y1268550D02*
X-217350D01*
X-234950Y1250950D01*
X-292100D01*
X-304800Y1238250D01*
Y1225550D01*
G01X-196850Y1327150D02*
X-279400D01*
G01X-196850Y1370150D02*
X-217350D01*
X-234950Y1352550D01*
X-292100D01*
X-304800Y1339850D01*
Y1327150D01*
G01X-196850Y1428750D02*
X-279400D01*
G01X-196850Y1471750D02*
X-217350D01*
X-234950Y1454150D01*
X-292100D01*
X-304800Y1441450D01*
Y1428750D01*
G01X-196850Y1530350D02*
X-279400D01*
G01X-196850Y1573350D02*
X-217350D01*
X-234950Y1555750D01*
X-292100D01*
X-304800Y1543050D01*
Y1530350D01*
G01X-196850Y1631950D02*
X-279400D01*
G01X-196850Y1674950D02*
X-217350D01*
X-234950Y1657350D01*
X-292100D01*
X-304800Y1644650D01*
Y1631950D01*
G01X-196850Y1733550D02*
X-279400D01*
G01X-196850Y1776550D02*
X-217350D01*
X-234950Y1758950D01*
X-292100D01*
X-304800Y1746250D01*
Y1733550D01*
G01X-196850Y1835150D02*
X-279400D01*
G01X-196850Y1878150D02*
X-217350D01*
X-234950Y1860550D01*
X-292100D01*
X-304800Y1847850D01*
Y1835150D01*
G01X-196850Y1936750D02*
X-279400D01*
G01X-196850Y1979750D02*
X-217350D01*
X-234950Y1962150D01*
X-292100D01*
X-304800Y1949450D01*
Y1936750D01*
G01X-133350Y152400D02*
X-196850D01*
G01X-82550D02*
X-107950Y177800D01*
X-158750D01*
X-176350Y195400D01*
X-196850D01*
G01X-133350Y254000D02*
X-196850D01*
G01X-133350Y355600D02*
X-196850D01*
G01X-82550Y254000D02*
X-107950Y279400D01*
X-158750D01*
X-176350Y297000D01*
X-196850D01*
G01X-82550Y355600D02*
X-107950Y381000D01*
X-158750D01*
X-176350Y398600D01*
X-196850D01*
G01X-133350Y457200D02*
X-196850D01*
G01X-82550D02*
X-107950Y482600D01*
X-158750D01*
X-176350Y500200D01*
X-196850D01*
G01X-133350Y558800D02*
X-196850D01*
G01X-133350Y660400D02*
X-196850D01*
G01X-82550Y558800D02*
X-107950Y584200D01*
X-158750D01*
X-176350Y601800D01*
X-196850D01*
G01X-82550Y660400D02*
X-107950Y685800D01*
X-158750D01*
X-176350Y703400D01*
X-196850D01*
G01X-133350Y762000D02*
X-196850D01*
G01X-82550D02*
X-107950Y787400D01*
X-158750D01*
X-176350Y805000D01*
X-196850D01*
G01X-133350Y863600D02*
X-196850D01*
G01X-82550D02*
X-107950Y889000D01*
X-158750D01*
X-176350Y906600D01*
X-196850D01*
G01X-133350Y1225550D02*
X-196850D01*
G01X-82550D02*
X-107950Y1250950D01*
X-158750D01*
X-176350Y1268550D01*
X-196850D01*
G01X-133350Y1327150D02*
X-196850D01*
G01X-82550D02*
X-107950Y1352550D01*
X-158750D01*
X-176350Y1370150D01*
X-196850D01*
G01X-133350Y1428750D02*
X-196850D01*
G01X-82550D02*
X-107950Y1454150D01*
X-158750D01*
X-176350Y1471750D01*
X-196850D01*
G01X-133350Y1530350D02*
X-196850D01*
G01X-82550D02*
X-107950Y1555750D01*
X-158750D01*
X-176350Y1573350D01*
X-196850D01*
G01X-133350Y1631950D02*
X-196850D01*
G01X-82550D02*
X-107950Y1657350D01*
X-158750D01*
X-176350Y1674950D01*
X-196850D01*
G01X-133350Y1733550D02*
X-196850D01*
G01X-82550D02*
X-107950Y1758950D01*
X-158750D01*
X-176350Y1776550D01*
X-196850D01*
G01X-133350Y1835150D02*
X-196850D01*
G01X-82550D02*
X-107950Y1860550D01*
X-158750D01*
X-176350Y1878150D01*
X-196850D01*
G01X-133350Y1936750D02*
X-196850D01*
G01X-82550D02*
X-107950Y1962150D01*
X-158750D01*
X-176350Y1979750D01*
X-196850D01*
X-967900Y14390D03*
Y114390D03*
Y214390D03*
Y314390D03*
Y414390D03*
Y514390D03*
Y614390D03*
Y714390D03*
Y915660D03*
Y1015660D03*
Y1115660D03*
Y1215660D03*
Y1315660D03*
Y1415660D03*
Y1515660D03*
Y1615660D03*
Y1715660D03*
Y1815660D03*
Y1915660D03*
Y2015660D03*
Y2115660D03*
X-942670Y-66200D03*
X-925330Y2206150D03*
X-842670Y-66200D03*
X-812800Y-6350D03*
X-869950Y-12700D03*
X-868310Y45070D03*
X-825500Y114300D03*
X-838200Y82550D03*
X-831850Y171450D03*
X-867650Y145070D03*
X-863600Y222250D03*
X-812800D03*
X-831850Y323850D03*
X-812080Y400470D03*
X-850900Y444500D03*
X-844550Y546100D03*
X-877370Y899820D03*
Y999820D03*
Y1099820D03*
Y1199820D03*
Y1299820D03*
Y1399820D03*
X-805380Y1477110D03*
X-877370Y1499820D03*
Y1599820D03*
X-831850Y1727200D03*
X-819150Y1714500D03*
X-806450Y1701800D03*
X-877370Y1699820D03*
X-867900Y1861250D03*
Y1961250D03*
X-836370Y2106150D03*
X-825330Y2206150D03*
X-742670Y-66200D03*
X-730250Y19050D03*
X-768350Y12700D03*
X-742950Y-12700D03*
X-755650Y101600D03*
X-774700Y196850D03*
Y146050D03*
Y266700D03*
Y438150D03*
X-746990Y385470D03*
X-741370Y471180D03*
X-793750Y546100D03*
X-800000Y666000D03*
X-793750Y596900D03*
X-800100Y812800D03*
Y781050D03*
Y876300D03*
Y977900D03*
Y1079500D03*
Y1181100D03*
Y1276350D03*
X-781050Y1346200D03*
X-768350Y1333500D03*
X-755650Y1320800D03*
X-742950Y1308100D03*
X-730250Y1295400D03*
Y1422400D03*
X-800100Y1377950D03*
X-786460Y1575310D03*
X-780550Y1650500D03*
X-767850Y1637800D03*
X-755650Y1625600D03*
X-793750Y1689100D03*
Y1663700D03*
X-780470Y1675130D03*
X-747960Y1740720D03*
X-771880Y1828240D03*
X-762220Y2006150D03*
X-736370Y2106150D03*
X-679450Y6350D03*
X-698500Y120650D03*
X-711200Y76200D03*
X-704850Y177800D03*
X-717550Y222260D03*
X-715530Y356030D03*
X-650590Y412050D03*
X-666750Y463550D03*
X-722830Y569450D03*
X-658770Y533700D03*
X-724000Y666000D03*
X-656020Y731320D03*
X-723900Y812800D03*
X-722830Y769450D03*
Y869450D03*
X-710480Y913080D03*
X-723900Y977900D03*
Y1079500D03*
Y1181100D03*
X-685210Y1238410D03*
X-717550Y1263650D03*
X-704850Y1250950D03*
X-717550Y1282700D03*
X-685510Y1369970D03*
X-660400Y1473200D03*
X-723900Y1530350D03*
X-652420Y1543350D03*
X-725990Y1611080D03*
X-721670Y1914740D03*
X-662220Y2006150D03*
X-725330Y2206150D03*
X-642670Y-66200D03*
X-641350Y-6350D03*
X-647700Y38100D03*
X-596900Y19050D03*
X-590550Y120650D03*
X-641350D03*
X-647700Y95250D03*
X-596900D03*
X-577850Y177800D03*
X-615950Y152400D03*
X-641350Y215900D03*
X-647700Y590550D03*
X-618000Y672000D03*
X-646600Y813080D03*
X-642200Y782040D03*
X-622830Y871130D03*
Y971130D03*
X-617170Y1062860D03*
Y1162860D03*
X-585340Y1243530D03*
X-612000Y1402000D03*
X-606740Y1431570D03*
X-647700Y1600200D03*
X-609600Y1682750D03*
X-647960Y1740590D03*
X-617570Y1816670D03*
Y1916670D03*
X-636370Y2106150D03*
X-625330Y2206150D03*
X-546000Y-66000D03*
X-552450Y6350D03*
X-530300Y3850D03*
X-546100Y133350D03*
X-571500Y228600D03*
X-529370Y316370D03*
X-499330Y335820D03*
X-552450Y431800D03*
X-534000Y486000D03*
X-517570Y589120D03*
X-556040Y729220D03*
X-546930Y821220D03*
X-542200Y782040D03*
X-517170Y916690D03*
Y1016690D03*
Y1116690D03*
Y1216690D03*
Y1316690D03*
X-508460Y1413070D03*
X-517570Y1489120D03*
Y1589120D03*
Y1789120D03*
X-547970Y1738870D03*
X-517570Y1889120D03*
Y1989120D03*
X-525330Y2206150D03*
X-495300Y177800D03*
X-429700Y169920D03*
X-494000Y252000D03*
X-452000Y250000D03*
X-438000Y280000D03*
X-485420Y452960D03*
Y552960D03*
X-469900Y698500D03*
X-464320Y769060D03*
X-427270Y861950D03*
X-486130Y915600D03*
Y1015600D03*
Y1115600D03*
Y1215600D03*
X-442000Y1320000D03*
X-424000Y1340000D03*
X-486130Y1315600D03*
X-472720Y1337250D03*
Y1437250D03*
Y1537250D03*
X-452000Y1670000D03*
Y1696000D03*
X-453200Y1770780D03*
X-439970Y1869900D03*
X-425450Y2000250D03*
X-491000Y2076060D03*
X-425330Y2206150D03*
X-417570Y215820D03*
Y315820D03*
X-422000Y368000D03*
X-417570Y415820D03*
X-420000Y672000D03*
X-419100Y749300D03*
X-417570Y915820D03*
Y1015820D03*
Y1115820D03*
Y1215820D03*
X-418000Y1284000D03*
Y1396000D03*
Y1638000D03*
Y1728000D03*
X-406400Y1962150D03*
X-391000Y2063480D03*
Y2163480D03*
G54D12*
X-889000Y60960D03*
Y35560D03*
X-939800Y60960D03*
Y35560D03*
X-889000Y137160D03*
Y111760D03*
Y86360D03*
X-939800Y137160D03*
Y111760D03*
Y86360D03*
X-889000Y213360D03*
Y187960D03*
Y162560D03*
X-939800Y213360D03*
Y187960D03*
Y162560D03*
X-889000Y289560D03*
Y264160D03*
X-939800Y289560D03*
Y264160D03*
X-889000Y365760D03*
Y340360D03*
Y314960D03*
X-939800Y365760D03*
Y340360D03*
Y314960D03*
X-889000Y441960D03*
Y416560D03*
Y391160D03*
X-939800Y441960D03*
Y416560D03*
Y391160D03*
X-889000Y518160D03*
Y467360D03*
X-939800Y518160D03*
Y467360D03*
X-889000Y594360D03*
Y568960D03*
Y543560D03*
X-939800Y594360D03*
Y568960D03*
Y543560D03*
X-889000Y670560D03*
Y645160D03*
Y619760D03*
X-939800Y670560D03*
Y645160D03*
Y619760D03*
X-889000Y721360D03*
Y695960D03*
X-939800Y721360D03*
Y695960D03*
X-889000Y797560D03*
Y772160D03*
X-939800Y797560D03*
Y772160D03*
X-381000Y203200D03*
Y304800D03*
Y406400D03*
Y508000D03*
Y609600D03*
Y711200D03*
Y812800D03*
Y914400D03*
Y1276350D03*
Y1377950D03*
Y1479550D03*
Y1581150D03*
Y1682750D03*
Y1784350D03*
Y1885950D03*
Y1987550D03*
X-330200Y203200D03*
X-304800D03*
X-279400D03*
Y152400D03*
X-304800D03*
X-330200D03*
X-279400Y254000D03*
X-304800D03*
X-330200D03*
X-279400Y355600D03*
X-304800D03*
X-330200D03*
Y304800D03*
X-304800D03*
X-279400D03*
X-330200Y406400D03*
X-304800D03*
X-279400D03*
X-330200Y508000D03*
X-304800D03*
X-279400D03*
Y457200D03*
X-304800D03*
X-330200D03*
X-279400Y558800D03*
X-304800D03*
X-330200D03*
X-279400Y660400D03*
X-304800D03*
X-330200D03*
Y609600D03*
X-304800D03*
X-279400D03*
X-330200Y711200D03*
X-304800D03*
X-279400D03*
X-330200Y812800D03*
X-304800D03*
X-279400D03*
Y762000D03*
X-304800D03*
X-330200D03*
X-279400Y863600D03*
X-304800D03*
X-330200D03*
Y914400D03*
X-304800D03*
X-279400D03*
X-330200Y1276350D03*
X-304800D03*
X-279400D03*
Y1225550D03*
X-304800D03*
X-330200D03*
X-279400Y1327150D03*
X-304800D03*
X-330200D03*
X-279400Y1428750D03*
X-304800D03*
X-330200D03*
Y1377950D03*
X-304800D03*
X-279400D03*
X-330200Y1479550D03*
X-304800D03*
X-279400D03*
X-330200Y1581150D03*
X-304800D03*
X-279400D03*
Y1530350D03*
X-304800D03*
X-330200D03*
X-279400Y1631950D03*
X-304800D03*
X-330200D03*
X-279400Y1733550D03*
X-304800D03*
X-330200D03*
Y1682750D03*
X-304800D03*
X-279400D03*
X-330200Y1784350D03*
X-304800D03*
X-279400D03*
X-330200Y1885950D03*
X-304800D03*
X-279400D03*
Y1835150D03*
X-304800D03*
X-330200D03*
X-279400Y1936750D03*
X-304800D03*
X-330200D03*
Y1987550D03*
X-304800D03*
X-279400D03*
G54D13*
X-889000Y10160D03*
X-939800D03*
X-889000Y238760D03*
X-939800D03*
X-889000Y492760D03*
X-939800D03*
X-889000Y746760D03*
X-939800D03*
X-381000Y152400D03*
Y254000D03*
Y355600D03*
Y457200D03*
Y558800D03*
Y660400D03*
Y762000D03*
Y863600D03*
Y1225550D03*
Y1327150D03*
Y1428750D03*
Y1530350D03*
Y1631950D03*
Y1733550D03*
Y1835150D03*
Y1936750D03*
G54D14*
X-196850Y195400D03*
Y152400D03*
Y254000D03*
Y355600D03*
Y297000D03*
Y398600D03*
Y500200D03*
Y457200D03*
Y558800D03*
Y660400D03*
Y601800D03*
Y703400D03*
Y805000D03*
Y762000D03*
Y863600D03*
Y906600D03*
Y1268550D03*
Y1225550D03*
Y1327150D03*
Y1428750D03*
Y1370150D03*
Y1471750D03*
Y1573350D03*
Y1530350D03*
Y1631950D03*
Y1733550D03*
Y1674950D03*
Y1776550D03*
Y1878150D03*
Y1835150D03*
Y1936750D03*
Y1979750D03*
G54D15*
X-133350Y152400D03*
Y1225550D03*
X-82550Y152400D03*
Y1225550D03*
G54D16*
X-133350Y203200D03*
Y254000D03*
Y355600D03*
Y304800D03*
Y406400D03*
Y508000D03*
Y457200D03*
Y558800D03*
Y660400D03*
Y609600D03*
Y711200D03*
Y812800D03*
Y762000D03*
Y863600D03*
Y914400D03*
Y1276350D03*
Y1327150D03*
Y1428750D03*
Y1377950D03*
Y1479550D03*
Y1581150D03*
Y1530350D03*
Y1631950D03*
Y1733550D03*
Y1682750D03*
Y1784350D03*
Y1885950D03*
Y1835150D03*
Y1936750D03*
Y1987550D03*
X-82550Y203200D03*
Y254000D03*
Y355600D03*
Y304800D03*
Y406400D03*
Y508000D03*
Y457200D03*
Y558800D03*
Y660400D03*
Y609600D03*
Y711200D03*
Y812800D03*
Y762000D03*
Y863600D03*
Y914400D03*
Y1276350D03*
Y1327150D03*
Y1428750D03*
Y1377950D03*
Y1479550D03*
Y1581150D03*
Y1530350D03*
Y1631950D03*
Y1733550D03*
Y1682750D03*
Y1784350D03*
Y1885950D03*
Y1835150D03*
Y1936750D03*
Y1987550D03*
G54D17*
X0Y-2540D03*
Y1070610D03*
Y2180590D03*
G54D18*
G01X-965200Y-65210D02*
Y-40640D01*
G01D02*
Y-16070D01*
G01Y-40640D02*
X-940630D01*
G01X-965200Y823790D02*
Y848360D01*
G01D02*
Y872930D01*
G01Y848360D02*
X-940630D01*
G01X-939800Y227440D02*
Y238760D01*
G01D02*
Y250080D01*
G01X-951120Y238760D02*
X-939800D01*
G01D02*
X-928480D01*
G01X-889000Y227440D02*
Y238760D01*
G01D02*
Y250080D01*
G01X-900320Y238760D02*
X-889000D01*
G01D02*
X-877680D01*
G01X-939800Y314960D02*
X-889000D01*
G01X-704850Y1250950D02*
X-736600Y1219200D01*
Y495430D01*
X-878970Y353060D01*
X-914400D01*
X-927100Y340360D01*
X-939800D01*
G01Y289560D02*
X-889000D01*
G01X-730250Y1295400D02*
X-755650Y1270000D01*
Y514480D01*
X-840870Y429260D01*
X-914400D01*
X-927100Y416560D01*
X-939800D01*
G01X-717550Y1282700D02*
X-749300Y1250950D01*
Y508110D01*
X-853550Y403860D01*
X-914400D01*
X-927100Y391160D01*
X-939800D01*
G01X-717550Y1263650D02*
X-742950Y1238250D01*
Y501760D01*
X-866250Y378460D01*
X-914400D01*
X-927100Y365760D01*
X-939800D01*
G01Y492760D02*
X-927100D01*
X-914400Y505460D01*
X-802730D01*
X-774700Y533490D01*
Y1327150D01*
X-768350Y1333500D01*
G01X-755650Y1320800D02*
X-768350Y1308100D01*
Y527150D01*
X-815440Y480060D01*
X-914400D01*
X-927100Y467360D01*
X-939800D01*
G01X-742950Y1308100D02*
X-762000Y1289050D01*
Y520830D01*
X-828170Y454660D01*
X-914400D01*
X-927100Y441960D01*
X-939800D01*
G01X-767850Y1637800D02*
X-825500Y1580150D01*
Y628650D01*
X-872490Y581660D01*
X-914400D01*
X-927100Y568960D01*
X-939800D01*
G01Y543560D02*
X-927100D01*
X-914400Y556260D01*
X-872490D01*
X-819150Y609600D01*
Y1562100D01*
X-755650Y1625600D01*
G01X-781050Y1346200D02*
Y539740D01*
X-789930Y530860D01*
X-914400D01*
X-927100Y518160D01*
X-939800D01*
G01Y645160D02*
X-927100D01*
X-914400Y657860D01*
X-872510D01*
X-844550Y685820D01*
Y1638300D01*
X-793750Y1689100D01*
G01Y1663700D02*
X-838200Y1619250D01*
Y666750D01*
X-872490Y632460D01*
X-914400D01*
X-927100Y619760D01*
X-939800D01*
G01Y594360D02*
X-927100D01*
X-914400Y607060D01*
X-872510D01*
X-831850Y647720D01*
Y1600200D01*
X-781550Y1650500D01*
X-780550D01*
G01X-831850Y1727200D02*
X-863600Y1695450D01*
Y742960D01*
X-872500Y734060D01*
X-914400D01*
X-927100Y721360D01*
X-939800D01*
G01Y695960D02*
X-927100D01*
X-914400Y708660D01*
X-872490D01*
X-857250Y723900D01*
Y1676400D01*
X-819150Y1714500D01*
G01X-806450Y1701800D02*
X-850900Y1657350D01*
Y704850D01*
X-872490Y683260D01*
X-914400D01*
X-927100Y670560D01*
X-939800D01*
G01Y760840D02*
Y772160D01*
G01D02*
Y783480D01*
G01X-951120Y772160D02*
X-939800D01*
G01D02*
X-928480D01*
G01X-889000Y760840D02*
Y772160D01*
G01D02*
Y783480D01*
G01X-900320Y772160D02*
X-889000D01*
G01D02*
X-877680D01*
G01X-641350Y120650D02*
X-590550D01*
M02*
