M48
METRIC,TZ
T01C.5
T02C1.
T03C2.
T04C3.2
;LEADER: 12 
;HEADER: 
;CODE  : ASCII 
;FILE  : KPRM_02v1-1-2.drl for  ... layers TOP and BOTTOM
;T01 Holesize 1. = 0.500000 Tolerance = +0.000000/-0.000000 PLATED MM Quantity = 223
;T02 Holesize 2. = 1.000000 Tolerance = +0.000000/-0.000000 PLATED MM Quantity = 192
;T03 Holesize 3. = 2.000000 Tolerance = +0.000000/-0.000000 PLATED MM Quantity = 64
;T04 Holesize 4. = 3.200000 Tolerance = +0.000000/-0.000000 PLATED MM Quantity = 5
%
G90
T01
X-704850Y1250950
X-717550Y1263650
Y1282700
X-730250Y1295400
X-742950Y1308100
X-755650Y1320800
X-768350Y1333500
X-781050Y1346200
X-812080Y400470
X-418000Y1728000
X-419100Y749300
X-417570Y415820
R02Y-100000
X-542200Y782040
X-642200
X-656020Y731320
X-556040Y729220
X-464320Y769060
X-427270Y861950
X-472720Y1337250
R02Y100000
X-652420Y1543350
X-725990Y1611080
X-747960Y1740720
X-647960Y1740590
X-547970Y1738870
X-453200Y1770780
X-439970Y1869900
X-425450Y2000250
X-391000Y2063480
Y2163480
X-646600Y813080
X-546930Y821220
X-517170Y916690
R04Y100000
X-585340Y1243530
X-685210Y1238410
X-685510Y1369970
X-606740Y1431570
X-508460Y1413070
X-486130Y1315600
R04Y-100000
X-967900Y714390
R07Y-100000
X-942670Y-66200
R03X100000
X-491000Y2076060
X-636370Y2106150
R02X-100000
X-867900Y1961250
Y1861250
X-710480Y913080
X-617170Y1062860
Y1162860
X-800100Y1181100
X-658770Y533700
X-844550Y546100
X-746990Y385470
X-650590Y412050
X-552450Y431800
X-499330Y335820
X-429700Y169920
X-485420Y452960
Y552960
X-831850Y323850
X-641350Y215900
X-571500Y228600
X-529370Y316370
X-867650Y145070
X-868310Y45070
X-417570Y915820
R03Y100000
X-425330Y2206150
R05X-100000
X-967900Y2115660
R12Y-100000
X-877370Y899820
R08Y100000
X-780470Y1675130
X-786460Y1575310
X-805380Y1477110
X-800100Y1377950
Y1276350
Y1079500
R02Y-101600
Y781050
X-723900Y1181100
R02Y-101600
X-722830Y869450
Y769450
X-724000Y666000
X-722830Y569450
X-741370Y471180
X-717550Y222260
X-534000Y486000
X-517570Y589120
Y1489120
Y1589120
Y1789120
Y1889120
Y1989120
X-771880Y1828240
X-622830Y971130
Y871130
X-618000Y672000
X-715530Y356030
X-774700Y266700
X-617570Y1816670
Y1916670
X-662220Y2006150
X-762220
X-721670Y1914740
X-647700Y1600200
X-660400Y1473200
X-647700Y590550
X-666750Y463550
X-723900Y812800
X-800100
X-418000Y1284000
Y1396000
Y1638000
X-469900Y698500
X-406400Y1962150
X-609600Y1682750
X-723900Y1530350
X-730250Y1422400
X-793750Y546100
Y596900
X-774700Y438150
X-869950Y-12700
X-800000Y666000
X-438000Y280000
X-452000Y250000
X-422000Y368000
X-420000Y672000
X-546000Y-66000
X-530300Y3850
X-850900Y444500
X-596900Y19050
X-590550Y95250
X-546100Y133350
X-615950Y152400
X-647700Y38100
X-641350Y-6350
X-742950Y-12700
X-768350Y12700
X-679450Y6350
X-730250Y19050
X-812800Y-6350
X-838200Y82550
X-825500Y114300
X-711200Y76200
X-704850Y177800
X-647700Y95250
X-755650Y101600
X-698500Y120650
X-831850Y171450
X-774700Y146050
Y196850
X-812800Y222250
X-863600
X-552450Y6350
X-577850Y177800
X-495300
X-612000Y1402000
X-424000Y1340000
X-452000Y1696000
Y1670000
X-494000Y252000
X-442000Y1320000
X-755650Y1625600
X-767850Y1637800
X-780550Y1650500
X-793750Y1663700
Y1689100
X-806450Y1701800
X-819150Y1714500
X-831850Y1727200
X-641350Y120650
X-590550
T02
X-381000Y1936750
X-330200
X-304800
X-279400
Y1987550
R02X-25400
X-381000
Y762000
X-330200
R02X25400
Y812800
R02X-25400
X-381000
Y660400
X-330200
R02X25400
Y711200
R02X-25400
X-381000
Y558800
X-330200
R02X25400
Y609600
R02X-25400
X-381000
Y457200
X-330200
R02X25400
Y508000
R02X-25400
X-381000
Y355600
X-330200
R02X25400
Y406400
R02X-25400
X-381000
Y254000
X-330200
R02X25400
Y304800
R02X-25400
X-381000
Y152400
X-330200
R02X25400
Y203200
R02X-25400
X-381000
Y1835150
X-330200
R02X25400
Y1885950
R02X-25400
X-381000
Y1733550
X-330200
R02X25400
Y1784350
R02X-25400
X-381000
Y1631950
X-330200
R02X25400
Y1682750
R02X-25400
X-381000
Y1530350
X-330200
R02X25400
Y1581150
R02X-25400
X-381000
Y1428750
X-330200
R02X25400
Y1479550
R02X-25400
X-381000
Y1327150
X-330200
R02X25400
Y1377950
R02X-25400
X-381000
Y1225550
X-330200
R02X25400
Y1276350
R02X-25400
X-381000
Y863600
X-330200
R02X25400
Y914400
R02X-25400
X-381000
X-939800Y10160
Y238760
Y264160
R08Y25400
Y35560
Y492760
Y518160
R08Y25400
Y60960
Y746760
Y772160
Y797560
Y86360
R05Y25400
X-889000Y10160
Y238760
Y264160
R08Y25400
Y35560
Y492760
Y518160
R08Y25400
Y60960
Y746760
Y772160
Y797560
Y86360
R05Y25400
T03
X-82550Y1225550
R15Y50800
X-133350Y1225550
R15Y50800
X-82550Y152400
R15Y50800
X-133350Y152400
R15Y50800
T04
X-965200Y-40640
Y848360
X0Y2180590
X0Y1070610
X0Y-2540
M30
