G04 ================== begin FILE IDENTIFICATION RECORD ==================*
G04 Layout Name:  E:/ORCAD_sch/K400/KPRM/KPRM_02v1/pcb/KPRM_02v1.brd*
G04 Film Name:    SILK_BOT*
G04 File Format:  Gerber RS274X*
G04 File Origin:  Cadence Allegro 16.6-S001*
G04 Origin Date:  Mon Jan 28 10:58:12 2013*
G04 *
G04 Layer:  MANUFACTURING/AUTOSILK_BOTTOM*
G04 *
G04 Offset:    (0.000 0.000)*
G04 Mirror:    No*
G04 Mode:      Positive*
G04 Rotation:  0*
G04 FullContactRelief:  No*
G04 UndefLineWidth:     0.250*
G04 ================== end FILE IDENTIFICATION RECORD ====================*
%FSLAX34Y34*MOMM*%
%IR0*IPPOS*OFA0.00000B0.00000*MIA0B0*SFA1.00000B1.00000*%
%ADD10C,.2*%
%ADD11C,.25*%
G75*
%LPD*%
G75*
G54D10*
G01X-210850Y147900D02*
X-214850D01*
Y199900D01*
X-210850D01*
G01Y249500D02*
X-214850D01*
Y301500D01*
X-210850D01*
G01Y351100D02*
X-214850D01*
Y403100D01*
X-210850D01*
G01Y452700D02*
X-214850D01*
Y504700D01*
X-210850D01*
G01Y554300D02*
X-214850D01*
Y606300D01*
X-210850D01*
G01Y655900D02*
X-214850D01*
Y707900D01*
X-210850D01*
G01Y757500D02*
X-214850D01*
Y809500D01*
X-210850D01*
G01Y859100D02*
X-214850D01*
Y911100D01*
X-210850D01*
G01Y1221050D02*
X-214850D01*
Y1273050D01*
X-210850D01*
G01Y1322650D02*
X-214850D01*
Y1374650D01*
X-210850D01*
G01Y1424250D02*
X-214850D01*
Y1476250D01*
X-210850D01*
G01Y1525850D02*
X-214850D01*
Y1577850D01*
X-210850D01*
G01Y1627450D02*
X-214850D01*
Y1679450D01*
X-210850D01*
G01Y1729050D02*
X-214850D01*
Y1781050D01*
X-210850D01*
G01Y1830650D02*
X-214850D01*
Y1882650D01*
X-210850D01*
G01Y1932250D02*
X-214850D01*
Y1984250D01*
X-210850D01*
G01X-182850Y147900D02*
X-178850D01*
Y199900D01*
X-182850D01*
G01Y249500D02*
X-178850D01*
Y301500D01*
X-182850D01*
G01Y351100D02*
X-178850D01*
Y403100D01*
X-182850D01*
G01Y452700D02*
X-178850D01*
Y504700D01*
X-182850D01*
G01Y554300D02*
X-178850D01*
Y606300D01*
X-182850D01*
G01Y655900D02*
X-178850D01*
Y707900D01*
X-182850D01*
G01Y757500D02*
X-178850D01*
Y809500D01*
X-182850D01*
G01Y859100D02*
X-178850D01*
Y911100D01*
X-182850D01*
G01Y1221050D02*
X-178850D01*
Y1273050D01*
X-182850D01*
G01Y1322650D02*
X-178850D01*
Y1374650D01*
X-182850D01*
G01Y1424250D02*
X-178850D01*
Y1476250D01*
X-182850D01*
G01Y1525850D02*
X-178850D01*
Y1577850D01*
X-182850D01*
G01Y1627450D02*
X-178850D01*
Y1679450D01*
X-182850D01*
G01Y1729050D02*
X-178850D01*
Y1781050D01*
X-182850D01*
G01Y1830650D02*
X-178850D01*
Y1882650D01*
X-182850D01*
G01Y1932250D02*
X-178850D01*
Y1984250D01*
X-182850D01*
G54D11*
G01X-174800Y227400D02*
X-178820Y214700D01*
X-182850Y227400D01*
G01X-188240Y214700D02*
Y227400D01*
X-191450D01*
X-192740Y226760D01*
X-193710Y225920D01*
X-194510Y224650D01*
X-195150Y223170D01*
X-195310Y221050D01*
X-195150Y218930D01*
X-194510Y217450D01*
X-193710Y216180D01*
X-192740Y215330D01*
X-191450Y214700D01*
X-188240D01*
G01X-201190Y217240D02*
X-202150Y215760D01*
X-203440Y214910D01*
X-204890Y214700D01*
X-206170Y214910D01*
X-207460Y215970D01*
X-208260Y217240D01*
X-208420Y218510D01*
X-208100Y219990D01*
X-206980Y221050D01*
X-205850Y221470D01*
X-204400D01*
G01X-205850D02*
X-206820Y222110D01*
X-207620Y223170D01*
X-207940Y224440D01*
X-207620Y225710D01*
X-206820Y226760D01*
X-205370Y227400D01*
X-203920Y227190D01*
X-202470Y226340D01*
G01X-214620Y225280D02*
X-215580Y226550D01*
X-216710Y227190D01*
X-218000Y227400D01*
X-219610Y226980D01*
X-220730Y225920D01*
X-221050Y224650D01*
X-220890Y223380D01*
X-220250Y222320D01*
X-217030Y220200D01*
X-215580Y218720D01*
X-214620Y216600D01*
X-214300Y214700D01*
X-221050D01*
G01X-174800Y329000D02*
X-178820Y316300D01*
X-182850Y329000D01*
G01X-188240Y316300D02*
Y329000D01*
X-191450D01*
X-192740Y328360D01*
X-193710Y327520D01*
X-194510Y326250D01*
X-195150Y324770D01*
X-195310Y322650D01*
X-195150Y320530D01*
X-194510Y319050D01*
X-193710Y317780D01*
X-192740Y316930D01*
X-191450Y316300D01*
X-188240D01*
G01X-201190Y318840D02*
X-202150Y317360D01*
X-203440Y316510D01*
X-204890Y316300D01*
X-206170Y316510D01*
X-207460Y317570D01*
X-208260Y318840D01*
X-208420Y320110D01*
X-208100Y321590D01*
X-206980Y322650D01*
X-205850Y323070D01*
X-204400D01*
G01X-205850D02*
X-206820Y323710D01*
X-207620Y324770D01*
X-207940Y326040D01*
X-207620Y327310D01*
X-206820Y328360D01*
X-205370Y329000D01*
X-203920Y328790D01*
X-202470Y327940D01*
G01X-217670Y329000D02*
X-216390Y328580D01*
X-215420Y327520D01*
X-214780Y326250D01*
X-214300Y324550D01*
X-214140Y322650D01*
X-214300Y320740D01*
X-214780Y319050D01*
X-215420Y317780D01*
X-216390Y316720D01*
X-217670Y316300D01*
X-218960Y316720D01*
X-219930Y317780D01*
X-220570Y319050D01*
X-221050Y320740D01*
X-221210Y322650D01*
X-221050Y324550D01*
X-220570Y326250D01*
X-219930Y327520D01*
X-218960Y328580D01*
X-217670Y329000D01*
G01X-174800Y430600D02*
X-178820Y417900D01*
X-182850Y430600D01*
G01X-188240Y417900D02*
Y430600D01*
X-191450D01*
X-192740Y429960D01*
X-193710Y429120D01*
X-194510Y427850D01*
X-195150Y426370D01*
X-195310Y424250D01*
X-195150Y422130D01*
X-194510Y420650D01*
X-193710Y419380D01*
X-192740Y418530D01*
X-191450Y417900D01*
X-188240D01*
G01X-201670Y428480D02*
X-202630Y429750D01*
X-203760Y430390D01*
X-205050Y430600D01*
X-206660Y430180D01*
X-207780Y429120D01*
X-208100Y427850D01*
X-207940Y426580D01*
X-207300Y425520D01*
X-204080Y423400D01*
X-202630Y421920D01*
X-201670Y419800D01*
X-201350Y417900D01*
X-208100D01*
G01X-217670D02*
X-218800Y418110D01*
X-220090Y418750D01*
X-220890Y419800D01*
X-221210Y421290D01*
X-220890Y422770D01*
X-219930Y424040D01*
X-218480Y424670D01*
X-216870D01*
X-215910Y425100D01*
X-215100Y426150D01*
X-214780Y427640D01*
X-215260Y429120D01*
X-216390Y430180D01*
X-217670Y430600D01*
X-218960Y430180D01*
X-220090Y429120D01*
X-220570Y427640D01*
X-220250Y426150D01*
X-219440Y425100D01*
X-218480Y424670D01*
X-216870D01*
X-215420Y424040D01*
X-214460Y422770D01*
X-214140Y421290D01*
X-214460Y419800D01*
X-215260Y418750D01*
X-216550Y418110D01*
X-217670Y417900D01*
G01X-174800Y532200D02*
X-178820Y519500D01*
X-182850Y532200D01*
G01X-188240Y519500D02*
Y532200D01*
X-191450D01*
X-192740Y531560D01*
X-193710Y530720D01*
X-194510Y529450D01*
X-195150Y527970D01*
X-195310Y525850D01*
X-195150Y523730D01*
X-194510Y522250D01*
X-193710Y520980D01*
X-192740Y520130D01*
X-191450Y519500D01*
X-188240D01*
G01X-201670Y530080D02*
X-202630Y531350D01*
X-203760Y531990D01*
X-205050Y532200D01*
X-206660Y531780D01*
X-207780Y530720D01*
X-208100Y529450D01*
X-207940Y528180D01*
X-207300Y527120D01*
X-204080Y525000D01*
X-202630Y523520D01*
X-201670Y521400D01*
X-201350Y519500D01*
X-208100D01*
G01X-214620Y524790D02*
X-215740Y526270D01*
X-216710Y527120D01*
X-218000Y527540D01*
X-219120Y527120D01*
X-219930Y526270D01*
X-220570Y525000D01*
X-220730Y523520D01*
X-220570Y522250D01*
X-219930Y520980D01*
X-218960Y519920D01*
X-217840Y519500D01*
X-216550Y519920D01*
X-215420Y521190D01*
X-214780Y523100D01*
X-214620Y525210D01*
X-214940Y527970D01*
X-215420Y529450D01*
X-216230Y530930D01*
X-217350Y531990D01*
X-218480Y532200D01*
X-219610Y531780D01*
X-220410Y530720D01*
G01X-174800Y633800D02*
X-178820Y621100D01*
X-182850Y633800D01*
G01X-188240Y621100D02*
Y633800D01*
X-191450D01*
X-192740Y633160D01*
X-193710Y632320D01*
X-194510Y631050D01*
X-195150Y629570D01*
X-195310Y627450D01*
X-195150Y625330D01*
X-194510Y623850D01*
X-193710Y622580D01*
X-192740Y621730D01*
X-191450Y621100D01*
X-188240D01*
G01X-201670Y631680D02*
X-202630Y632950D01*
X-203760Y633590D01*
X-205050Y633800D01*
X-206660Y633380D01*
X-207780Y632320D01*
X-208100Y631050D01*
X-207940Y629780D01*
X-207300Y628720D01*
X-204080Y626600D01*
X-202630Y625120D01*
X-201670Y623000D01*
X-201350Y621100D01*
X-208100D01*
G01X-219610D02*
Y633800D01*
X-213650Y624700D01*
X-221700D01*
G01X-174800Y735400D02*
X-178820Y722700D01*
X-182850Y735400D01*
G01X-188240Y722700D02*
Y735400D01*
X-191450D01*
X-192740Y734760D01*
X-193710Y733920D01*
X-194510Y732650D01*
X-195150Y731170D01*
X-195310Y729050D01*
X-195150Y726930D01*
X-194510Y725450D01*
X-193710Y724180D01*
X-192740Y723330D01*
X-191450Y722700D01*
X-188240D01*
G01X-201670Y733280D02*
X-202630Y734550D01*
X-203760Y735190D01*
X-205050Y735400D01*
X-206660Y734980D01*
X-207780Y733920D01*
X-208100Y732650D01*
X-207940Y731380D01*
X-207300Y730320D01*
X-204080Y728200D01*
X-202630Y726720D01*
X-201670Y724600D01*
X-201350Y722700D01*
X-208100D01*
G01X-214620Y733280D02*
X-215580Y734550D01*
X-216710Y735190D01*
X-218000Y735400D01*
X-219610Y734980D01*
X-220730Y733920D01*
X-221050Y732650D01*
X-220890Y731380D01*
X-220250Y730320D01*
X-217030Y728200D01*
X-215580Y726720D01*
X-214620Y724600D01*
X-214300Y722700D01*
X-221050D01*
G01X-174800Y837000D02*
X-178820Y824300D01*
X-182850Y837000D01*
G01X-188240Y824300D02*
Y837000D01*
X-191450D01*
X-192740Y836360D01*
X-193710Y835520D01*
X-194510Y834250D01*
X-195150Y832770D01*
X-195310Y830650D01*
X-195150Y828530D01*
X-194510Y827050D01*
X-193710Y825780D01*
X-192740Y824930D01*
X-191450Y824300D01*
X-188240D01*
G01X-201670Y834880D02*
X-202630Y836150D01*
X-203760Y836790D01*
X-205050Y837000D01*
X-206660Y836580D01*
X-207780Y835520D01*
X-208100Y834250D01*
X-207940Y832980D01*
X-207300Y831920D01*
X-204080Y829800D01*
X-202630Y828320D01*
X-201670Y826200D01*
X-201350Y824300D01*
X-208100D01*
G01X-217670Y837000D02*
X-216390Y836580D01*
X-215420Y835520D01*
X-214780Y834250D01*
X-214300Y832550D01*
X-214140Y830650D01*
X-214300Y828740D01*
X-214780Y827050D01*
X-215420Y825780D01*
X-216390Y824720D01*
X-217670Y824300D01*
X-218960Y824720D01*
X-219930Y825780D01*
X-220570Y827050D01*
X-221050Y828740D01*
X-221210Y830650D01*
X-221050Y832550D01*
X-220570Y834250D01*
X-219930Y835520D01*
X-218960Y836580D01*
X-217670Y837000D01*
G01X-174800Y938600D02*
X-178820Y925900D01*
X-182850Y938600D01*
G01X-188240Y925900D02*
Y938600D01*
X-191450D01*
X-192740Y937960D01*
X-193710Y937120D01*
X-194510Y935850D01*
X-195150Y934370D01*
X-195310Y932250D01*
X-195150Y930130D01*
X-194510Y928650D01*
X-193710Y927380D01*
X-192740Y926530D01*
X-191450Y925900D01*
X-188240D01*
G01X-204720D02*
Y938600D01*
X-202790Y936060D01*
G01Y925900D02*
X-206650D01*
G01X-217670D02*
X-218800Y926110D01*
X-220090Y926750D01*
X-220890Y927800D01*
X-221210Y929290D01*
X-220890Y930770D01*
X-219930Y932040D01*
X-218480Y932670D01*
X-216870D01*
X-215910Y933100D01*
X-215100Y934150D01*
X-214780Y935640D01*
X-215260Y937120D01*
X-216390Y938180D01*
X-217670Y938600D01*
X-218960Y938180D01*
X-220090Y937120D01*
X-220570Y935640D01*
X-220250Y934150D01*
X-219440Y933100D01*
X-218480Y932670D01*
X-216870D01*
X-215420Y932040D01*
X-214460Y930770D01*
X-214140Y929290D01*
X-214460Y927800D01*
X-215260Y926750D01*
X-216550Y926110D01*
X-217670Y925900D01*
G01X-174800Y1302550D02*
X-178820Y1289850D01*
X-182850Y1302550D01*
G01X-188240Y1289850D02*
Y1302550D01*
X-191450D01*
X-192740Y1301910D01*
X-193710Y1301070D01*
X-194510Y1299800D01*
X-195150Y1298320D01*
X-195310Y1296200D01*
X-195150Y1294080D01*
X-194510Y1292600D01*
X-193710Y1291330D01*
X-192740Y1290480D01*
X-191450Y1289850D01*
X-188240D01*
G01X-204720D02*
Y1302550D01*
X-202790Y1300010D01*
G01Y1289850D02*
X-206650D01*
G01X-214620Y1295140D02*
X-215740Y1296620D01*
X-216710Y1297470D01*
X-218000Y1297890D01*
X-219120Y1297470D01*
X-219930Y1296620D01*
X-220570Y1295350D01*
X-220730Y1293870D01*
X-220570Y1292600D01*
X-219930Y1291330D01*
X-218960Y1290270D01*
X-217840Y1289850D01*
X-216550Y1290270D01*
X-215420Y1291540D01*
X-214780Y1293450D01*
X-214620Y1295560D01*
X-214940Y1298320D01*
X-215420Y1299800D01*
X-216230Y1301280D01*
X-217350Y1302340D01*
X-218480Y1302550D01*
X-219610Y1302130D01*
X-220410Y1301070D01*
G01X-174800Y1404150D02*
X-178820Y1391450D01*
X-182850Y1404150D01*
G01X-188240Y1391450D02*
Y1404150D01*
X-191450D01*
X-192740Y1403510D01*
X-193710Y1402670D01*
X-194510Y1401400D01*
X-195150Y1399920D01*
X-195310Y1397800D01*
X-195150Y1395680D01*
X-194510Y1394200D01*
X-193710Y1392930D01*
X-192740Y1392080D01*
X-191450Y1391450D01*
X-188240D01*
G01X-204720D02*
Y1404150D01*
X-202790Y1401610D01*
G01Y1391450D02*
X-206650D01*
G01X-219610D02*
Y1404150D01*
X-213650Y1395050D01*
X-221700D01*
G01X-174800Y1505750D02*
X-178820Y1493050D01*
X-182850Y1505750D01*
G01X-188240Y1493050D02*
Y1505750D01*
X-191450D01*
X-192740Y1505110D01*
X-193710Y1504270D01*
X-194510Y1503000D01*
X-195150Y1501520D01*
X-195310Y1499400D01*
X-195150Y1497280D01*
X-194510Y1495800D01*
X-193710Y1494530D01*
X-192740Y1493680D01*
X-191450Y1493050D01*
X-188240D01*
G01X-204720D02*
Y1505750D01*
X-202790Y1503210D01*
G01Y1493050D02*
X-206650D01*
G01X-214620Y1503630D02*
X-215580Y1504900D01*
X-216710Y1505540D01*
X-218000Y1505750D01*
X-219610Y1505330D01*
X-220730Y1504270D01*
X-221050Y1503000D01*
X-220890Y1501730D01*
X-220250Y1500670D01*
X-217030Y1498550D01*
X-215580Y1497070D01*
X-214620Y1494950D01*
X-214300Y1493050D01*
X-221050D01*
G01X-174800Y1607350D02*
X-178820Y1594650D01*
X-182850Y1607350D01*
G01X-188240Y1594650D02*
Y1607350D01*
X-191450D01*
X-192740Y1606710D01*
X-193710Y1605870D01*
X-194510Y1604600D01*
X-195150Y1603120D01*
X-195310Y1601000D01*
X-195150Y1598880D01*
X-194510Y1597400D01*
X-193710Y1596130D01*
X-192740Y1595280D01*
X-191450Y1594650D01*
X-188240D01*
G01X-204720D02*
Y1607350D01*
X-202790Y1604810D01*
G01Y1594650D02*
X-206650D01*
G01X-217670Y1607350D02*
X-216390Y1606930D01*
X-215420Y1605870D01*
X-214780Y1604600D01*
X-214300Y1602900D01*
X-214140Y1601000D01*
X-214300Y1599090D01*
X-214780Y1597400D01*
X-215420Y1596130D01*
X-216390Y1595070D01*
X-217670Y1594650D01*
X-218960Y1595070D01*
X-219930Y1596130D01*
X-220570Y1597400D01*
X-221050Y1599090D01*
X-221210Y1601000D01*
X-221050Y1602900D01*
X-220570Y1604600D01*
X-219930Y1605870D01*
X-218960Y1606930D01*
X-217670Y1607350D01*
G01X-181270Y1708950D02*
X-185290Y1696250D01*
X-189320Y1708950D01*
G01X-194710Y1696250D02*
Y1708950D01*
X-197920D01*
X-199210Y1708310D01*
X-200180Y1707470D01*
X-200980Y1706200D01*
X-201620Y1704720D01*
X-201780Y1702600D01*
X-201620Y1700480D01*
X-200980Y1699000D01*
X-200180Y1697730D01*
X-199210Y1696880D01*
X-197920Y1696250D01*
X-194710D01*
G01X-211190D02*
X-212320Y1696460D01*
X-213610Y1697100D01*
X-214410Y1698150D01*
X-214730Y1699640D01*
X-214410Y1701120D01*
X-213450Y1702390D01*
X-212000Y1703020D01*
X-210390D01*
X-209430Y1703450D01*
X-208620Y1704500D01*
X-208300Y1705990D01*
X-208780Y1707470D01*
X-209910Y1708530D01*
X-211190Y1708950D01*
X-212480Y1708530D01*
X-213610Y1707470D01*
X-214090Y1705990D01*
X-213770Y1704500D01*
X-212960Y1703450D01*
X-212000Y1703020D01*
X-210390D01*
X-208940Y1702390D01*
X-207980Y1701120D01*
X-207660Y1699640D01*
X-207980Y1698150D01*
X-208780Y1697100D01*
X-210070Y1696460D01*
X-211190Y1696250D01*
G01X-181270Y1810550D02*
X-185290Y1797850D01*
X-189320Y1810550D01*
G01X-194710Y1797850D02*
Y1810550D01*
X-197920D01*
X-199210Y1809910D01*
X-200180Y1809070D01*
X-200980Y1807800D01*
X-201620Y1806320D01*
X-201780Y1804200D01*
X-201620Y1802080D01*
X-200980Y1800600D01*
X-200180Y1799330D01*
X-199210Y1798480D01*
X-197920Y1797850D01*
X-194710D01*
G01X-208140Y1803140D02*
X-209260Y1804620D01*
X-210230Y1805470D01*
X-211520Y1805890D01*
X-212640Y1805470D01*
X-213450Y1804620D01*
X-214090Y1803350D01*
X-214250Y1801870D01*
X-214090Y1800600D01*
X-213450Y1799330D01*
X-212480Y1798270D01*
X-211360Y1797850D01*
X-210070Y1798270D01*
X-208940Y1799540D01*
X-208300Y1801450D01*
X-208140Y1803560D01*
X-208460Y1806320D01*
X-208940Y1807800D01*
X-209750Y1809280D01*
X-210870Y1810340D01*
X-212000Y1810550D01*
X-213130Y1810130D01*
X-213930Y1809070D01*
G01X-181270Y1912150D02*
X-185290Y1899450D01*
X-189320Y1912150D01*
G01X-194710Y1899450D02*
Y1912150D01*
X-197920D01*
X-199210Y1911510D01*
X-200180Y1910670D01*
X-200980Y1909400D01*
X-201620Y1907920D01*
X-201780Y1905800D01*
X-201620Y1903680D01*
X-200980Y1902200D01*
X-200180Y1900930D01*
X-199210Y1900080D01*
X-197920Y1899450D01*
X-194710D01*
G01X-213130D02*
Y1912150D01*
X-207170Y1903050D01*
X-215220D01*
G01X-181270Y2013750D02*
X-185290Y2001050D01*
X-189320Y2013750D01*
G01X-194710Y2001050D02*
Y2013750D01*
X-197920D01*
X-199210Y2013110D01*
X-200180Y2012270D01*
X-200980Y2011000D01*
X-201620Y2009520D01*
X-201780Y2007400D01*
X-201620Y2005280D01*
X-200980Y2003800D01*
X-200180Y2002530D01*
X-199210Y2001680D01*
X-197920Y2001050D01*
X-194710D01*
G01X-211190D02*
Y2013750D01*
X-209260Y2011210D01*
G01Y2001050D02*
X-213120D01*
M02*
