G04 ================== begin FILE IDENTIFICATION RECORD ==================*
G04 Layout Name:  E:/ORCAD_sch/K400/KPRM/KPRM_02v1/pcb/KPRM_02v1.brd*
G04 Film Name:    TOP*
G04 File Format:  Gerber RS274X*
G04 File Origin:  Cadence Allegro 16.6-S001*
G04 Origin Date:  Mon Jan 28 10:58:12 2013*
G04 *
G04 Layer:  ETCH/TOP*
G04 Layer:  PIN/TOP*
G04 Layer:  VIA CLASS/TOP*
G04 *
G04 Offset:    (0.000 0.000)*
G04 Mirror:    No*
G04 Mode:      Positive*
G04 Rotation:  0*
G04 FullContactRelief:  No*
G04 UndefLineWidth:     0.250*
G04 ================== end FILE IDENTIFICATION RECORD ====================*
%FSLAX34Y34*MOMM*%
%IR0*IPPOS*OFA0.00000B0.00000*MIA0B0*SFA1.00000B1.00000*%
%ADD23R,.6X2.*%
%ADD24R,2.X.6*%
%ADD11C,1.*%
%ADD10C,4.2*%
%ADD31C,5.2*%
%ADD30C,2.5*%
%ADD17R,1.55X.6*%
%ADD12C,1.55*%
%ADD28R,2.05X2.05*%
%ADD21R,1.15X1.15*%
%ADD27R,1.9X.95*%
%ADD13R,1.55X1.55*%
%ADD20R,1.1X1.4*%
%ADD16R,1.4X1.1*%
%ADD14R,2.7X1.1*%
%ADD19O,2.X1.75*%
%ADD22R,1.15X1.05*%
%ADD18R,1.X1.75*%
%ADD29R,2.5X2.5*%
%ADD26R,1.9X3.2*%
%ADD15R,1.75X1.*%
%ADD25R,1.25X1.8*%
%ADD32C,.2*%
%ADD33C,.4*%
%ADD34C,.5*%
%ADD35C,.6*%
%ADD36C,.25*%
%ADD37R,3.314X1.714*%
%ADD39R,3.064X3.064*%
%ADD38R,1.614X2.364*%
G75*
%LPD*%
G75*
G36*
G01X-957900Y-76200D02*
G02X-975110Y-66410I-28J19973D01*
G02X-972760Y-63490I1720J1021D01*
G03X-975080Y-18690I7560J22852D01*
G02X-977900Y-16870I-821J1823D01*
G01Y824590D01*
G02X-975080Y826410I1999J-3D01*
G03Y870310I9880J21950D01*
G02X-977900Y872130I-821J1823D01*
G01Y2196150D01*
G02X-957900Y2216150I19973J27D01*
G01X-401000D01*
G02X-381000Y2196150I27J-19973D01*
G01Y2000320D01*
G03X-392740Y1992570I0J-12767D01*
G01X-408480D01*
X-430470Y1970580D01*
Y1780080D01*
X-484680Y1725870D01*
X-526980D01*
Y1728870D01*
X-557020D01*
Y1722320D01*
X-607520Y1671820D01*
Y1621020D01*
X-632920Y1595620D01*
Y1544970D01*
X-642420D01*
Y1524930D01*
X-620220D01*
Y1514970D01*
X-642420D01*
Y1494930D01*
X-632920D01*
Y1488220D01*
X-636670D01*
Y1486270D01*
X-647420D01*
Y1460130D01*
X-636670D01*
Y1458180D01*
X-531730D01*
Y1488220D01*
X-535480D01*
Y1545730D01*
X-525980D01*
Y1565770D01*
X-548180D01*
Y1575730D01*
X-525980D01*
Y1595770D01*
X-535620D01*
X-547670Y1607820D01*
G02X-546250Y1611230I1417J1411D01*
G01X-526980D01*
Y1612230D01*
X-504560D01*
X-464220Y1571890D01*
Y1298840D01*
X-393770Y1228390D01*
Y1212780D01*
X-381000D01*
Y927170D01*
G03X-393070Y910230I0J-12770D01*
G01X-392860Y909640D01*
X-417770Y884730D01*
Y802180D01*
X-503730Y716220D01*
X-533330D01*
Y719220D01*
X-563370D01*
Y712670D01*
X-613870Y662170D01*
Y611370D01*
X-639270Y585970D01*
Y535320D01*
X-648770D01*
Y515280D01*
X-626570D01*
Y505320D01*
X-648770D01*
Y485280D01*
X-639270D01*
Y478570D01*
X-643020D01*
Y476620D01*
X-653770D01*
Y450480D01*
X-643020D01*
Y448530D01*
X-538080D01*
Y478570D01*
X-541830D01*
Y536080D01*
X-532330D01*
Y556120D01*
X-554530D01*
Y566080D01*
X-532330D01*
Y586120D01*
X-541970D01*
X-554020Y598170D01*
G02X-552600Y601580I1417J1411D01*
G01X-533330D01*
Y602580D01*
X-491860D01*
X-476920Y587640D01*
Y238390D01*
X-403360Y164830D01*
G02X-404780Y161420I-1416J-1411D01*
G01X-454630D01*
Y167670D01*
X-485170D01*
Y161420D01*
X-586810D01*
X-605860Y180470D01*
X-641750D01*
G03X-643990Y182540I-10407J-9015D01*
G02Y185760I1188J1610D01*
G03X-640020Y190330I-8156J11095D01*
G01X-562450D01*
X-507830Y244950D01*
Y390050D01*
X-530700Y412920D01*
X-637700D01*
X-654220Y396400D01*
Y385570D01*
X-655720D01*
Y355530D01*
X-645940D01*
G02X-644520Y352120I3J-1999D01*
G01X-655820Y340820D01*
X-664830D01*
Y350320D01*
X-684870D01*
Y328120D01*
X-694830D01*
Y350320D01*
X-714870D01*
Y344740D01*
G02X-718280Y343320I-1999J-3D01*
G01X-770430Y395470D01*
Y420870D01*
X-871990Y522430D01*
X-876970D01*
G03X-882480Y529140I-12035J-4265D01*
G02Y532580I1020J1720D01*
G03X-876970Y539290I-6525J10975D01*
G01X-864370D01*
X-791980Y611680D01*
X-715620D01*
Y604180D01*
X-694080D01*
Y664820D01*
X-715620D01*
Y658320D01*
X-795520D01*
X-829810Y624030D01*
X-876970D01*
G03X-882480Y630740I-12035J-4265D01*
G02Y634180I1020J1720D01*
G03X-876970Y640890I-6525J10975D01*
G01X-870720D01*
X-836430Y675180D01*
X-715620D01*
Y667680D01*
X-694080D01*
Y728320D01*
X-715620D01*
Y721820D01*
X-876210D01*
X-876300Y722710D01*
G03X-880130Y730550I-12700J-1349D01*
G02X-878750Y733990I1385J1441D01*
G01X-876230D01*
Y759530D01*
X-881830D01*
G02X-882950Y763190I-5J2000D01*
G03X-884470Y781990I-6049J8972D01*
G02X-884360Y785660I842J1811D01*
G03X-878330Y790540I-4640J11899D01*
G01X-545730D01*
X-494630Y841640D01*
Y1387210D01*
X-530490Y1423070D01*
X-625210D01*
X-648370Y1399910D01*
Y1395220D01*
X-649370D01*
Y1365180D01*
X-639590D01*
G02X-638170Y1361770I3J-1999D01*
G01X-649470Y1350470D01*
X-658480D01*
Y1359970D01*
X-678520D01*
Y1337770D01*
X-688480D01*
Y1359970D01*
X-708520D01*
Y1350470D01*
X-774860D01*
G03Y1341930I-6190J-4270D01*
G01X-771520D01*
Y1340340D01*
X-772030Y1340060D01*
G03X-762160Y1329230I3680J-6559D01*
G01X-758820D01*
Y1327640D01*
X-759330Y1327360D01*
G03X-749460Y1316530I3680J-6559D01*
G01X-746120D01*
Y1314940D01*
X-746630Y1314660D01*
G03X-736760Y1303830I3680J-6559D01*
G01X-733420D01*
Y1302240D01*
X-733930Y1301960D01*
G03X-724060Y1291130I3680J-6559D01*
G01X-720720D01*
Y1289540D01*
X-721230Y1289260D01*
G03X-717010Y1275200I3679J-6559D01*
G02X-715450Y1271790I148J-1994D01*
G01X-716180Y1271060D01*
X-716660Y1271120D01*
G03X-710460Y1261140I-890J-7469D01*
G01X-710230Y1261800D01*
X-708520D01*
Y1257510D01*
G03X-698660Y1246680I3669J-6563D01*
G01X-690380D01*
X-684030Y1253030D01*
X-657720D01*
Y1243530D01*
X-637680D01*
Y1265730D01*
X-627720D01*
Y1243530D01*
X-607680D01*
Y1253030D01*
X-569730D01*
X-535480Y1287280D01*
Y1365180D01*
X-531730D01*
Y1395220D01*
X-628370D01*
G02X-629790Y1398630I-4J1999D01*
G01X-619390Y1409030D01*
X-536310D01*
X-508670Y1381390D01*
Y847460D01*
X-551550Y804580D01*
X-878330D01*
G03X-879980Y806600I-10664J-7027D01*
G01Y824880D01*
X-870480D01*
Y845920D01*
X-907520D01*
Y824880D01*
X-898020D01*
Y806600D01*
G03X-898040Y806580I9020J-9040D01*
G01X-930760D01*
G03X-944440Y785660I-9039J-9022D01*
G02X-944330Y781990I-732J-1859D01*
G03X-945850Y763190I4529J-9828D01*
G02X-946970Y759530I-1115J-1660D01*
G01X-952570D01*
Y733990D01*
X-950050D01*
G02X-948670Y730550I-5J-1999D01*
G03X-946320Y710380I8869J-9189D01*
G02Y706940I-1020J-1720D01*
G03Y684980I6520J-10980D01*
G02Y681540I-1020J-1720D01*
G03Y659580I6520J-10980D01*
G02Y656140I-1020J-1720D01*
G03Y634180I6520J-10980D01*
G02Y630740I-1020J-1720D01*
G03Y608780I6520J-10980D01*
G02Y605340I-1020J-1720D01*
G03Y583380I6520J-10980D01*
G02Y579940I-1020J-1720D01*
G03Y557980I6520J-10980D01*
G02Y554540I-1020J-1720D01*
G03Y532580I6520J-10980D01*
G02Y529140I-1020J-1720D01*
G03X-948670Y508970I6519J-10981D01*
G02X-950050Y505530I-1385J-1441D01*
G01X-952570D01*
Y479990D01*
X-950050D01*
G02X-948670Y476550I-5J-1999D01*
G03X-946320Y456380I8869J-9189D01*
G02Y452940I-1020J-1720D01*
G03Y430980I6520J-10980D01*
G02Y427540I-1020J-1720D01*
G03Y405580I6520J-10980D01*
G02Y402140I-1020J-1720D01*
G03Y380180I6520J-10980D01*
G02Y376740I-1020J-1720D01*
G03Y354780I6520J-10980D01*
G02Y351340I-1020J-1720D01*
G03Y329380I6520J-10980D01*
G02Y325940I-1020J-1720D01*
G03Y303980I6520J-10980D01*
G02Y300540I-1020J-1720D01*
G03Y278580I6520J-10980D01*
G02Y275140I-1020J-1720D01*
G03X-946490Y253280I6519J-10981D01*
G02X-947540Y249580I-1050J-1701D01*
G01X-950620D01*
Y227940D01*
X-947540D01*
G02X-946490Y224240I0J-1999D01*
G03X-946320Y202380I6689J-10879D01*
G02Y198940I-1020J-1720D01*
G03Y176980I6520J-10980D01*
G02Y173540I-1020J-1720D01*
G03Y151580I6520J-10980D01*
G02Y148140I-1020J-1720D01*
G03Y126180I6520J-10980D01*
G02Y122740I-1020J-1720D01*
G03Y100780I6520J-10980D01*
G02Y97340I-1020J-1720D01*
G03Y75380I6520J-10980D01*
G02Y71940I-1020J-1720D01*
G03Y49980I6520J-10980D01*
G02Y46540I-1020J-1720D01*
G03X-948670Y26370I6519J-10981D01*
G02X-950050Y22930I-1385J-1441D01*
G01X-952570D01*
Y-2610D01*
X-927030D01*
Y22930D01*
X-929550D01*
G02X-930930Y26370I5J1999D01*
G03X-933280Y46540I-8869J9189D01*
G02Y49980I1020J1720D01*
G03Y71940I-6520J10980D01*
G02Y75380I1020J1720D01*
G03Y97340I-6520J10980D01*
G02Y100780I1020J1720D01*
G03Y122740I-6520J10980D01*
G02Y126180I1020J1720D01*
G03Y148140I-6520J10980D01*
G02Y151580I1020J1720D01*
G03Y173540I-6520J10980D01*
G02Y176980I1020J1720D01*
G03Y198940I-6520J10980D01*
G02Y202380I1020J1720D01*
G03X-933110Y224240I-6519J10981D01*
G02X-932060Y227940I1050J1701D01*
G01X-928980D01*
Y249580D01*
X-932060D01*
G02X-933110Y253280I0J1999D01*
G03X-933280Y275140I-6689J10879D01*
G02Y278580I1020J1720D01*
G03Y300540I-6520J10980D01*
G02Y303980I1020J1720D01*
G03Y325940I-6520J10980D01*
G02Y329380I1020J1720D01*
G03Y351340I-6520J10980D01*
G02Y354780I1020J1720D01*
G03Y376740I-6520J10980D01*
G02Y380180I1020J1720D01*
G03Y402140I-6520J10980D01*
G02Y405580I1020J1720D01*
G03Y427540I-6520J10980D01*
G02Y430980I1020J1720D01*
G03Y452940I-6520J10980D01*
G02Y456380I1020J1720D01*
G03X-930930Y476550I-6519J10981D01*
G02X-929550Y479990I1385J1441D01*
G01X-927030D01*
Y505530D01*
X-929550D01*
G02X-930930Y508970I5J1999D01*
G03X-933280Y529140I-8869J9189D01*
G02Y532580I1020J1720D01*
G03Y554540I-6520J10980D01*
G02Y557980I1020J1720D01*
G03Y579940I-6520J10980D01*
G02Y583380I1020J1720D01*
G03Y605340I-6520J10980D01*
G02Y608780I1020J1720D01*
G03Y630740I-6520J10980D01*
G02Y634180I1020J1720D01*
G03Y656140I-6520J10980D01*
G02Y659580I1020J1720D01*
G03Y681540I-6520J10980D01*
G02Y684980I1020J1720D01*
G03Y706940I-6520J10980D01*
G02Y710380I1020J1720D01*
G03X-930930Y730550I-6519J10981D01*
G02X-929550Y733990I1385J1441D01*
G01X-927030D01*
Y759530D01*
X-932630D01*
G02X-933750Y763190I-5J2000D01*
G03X-935270Y781990I-6049J8972D01*
G02X-935160Y785660I842J1811D01*
G03X-930760Y788540I-4644J11897D01*
G01X-923420D01*
Y-3740D01*
X-886390Y-40770D01*
X-635000D01*
G03X-629340Y-38770I0J9009D01*
G01X-596370D01*
Y-42270D01*
X-559330D01*
Y-38770D01*
X-551770D01*
Y-42270D01*
X-527730D01*
Y-38770D01*
X-518020D01*
Y-56190D01*
G03X-512840Y-73080I29994J-40D01*
G02X-514490Y-76200I-1655J-1121D01*
G01X-957900D01*
G37*
G36*
G01X-878910Y-22730D02*
X-895620Y-6020D01*
G02X-894210Y-2610I1416J1411D01*
G01X-876230D01*
Y22930D01*
X-878750D01*
G02X-880130Y26370I5J1999D01*
G03X-882480Y46540I-8869J9189D01*
G02Y49980I1020J1720D01*
G03Y71940I-6520J10980D01*
G02Y75380I1020J1720D01*
G03Y97340I-6520J10980D01*
G02Y100780I1020J1720D01*
G03Y122740I-6520J10980D01*
G02Y126180I1020J1720D01*
G03Y148140I-6520J10980D01*
G02Y151580I1020J1720D01*
G03Y173540I-6520J10980D01*
G02Y176980I1020J1720D01*
G03Y198940I-6520J10980D01*
G02Y202380I1020J1720D01*
G03X-882310Y224240I-6519J10981D01*
G02X-881260Y227940I1050J1701D01*
G01X-878180D01*
Y249580D01*
X-881260D01*
G02X-882310Y253280I0J1999D01*
G03X-882480Y275140I-6689J10879D01*
G02Y278580I1020J1720D01*
G03X-876970Y285290I-6525J10975D01*
G01X-862830D01*
X-848820Y271280D01*
Y106180D01*
X-820920Y78280D01*
X-814720D01*
Y68780D01*
X-794680D01*
Y96320D01*
X-814720D01*
Y86820D01*
X-817380D01*
X-840280Y109720D01*
Y274820D01*
X-859290Y293830D01*
X-876970D01*
G03X-882480Y300540I-12035J-4265D01*
G02Y303980I1020J1720D01*
G03X-876970Y310690I-6525J10975D01*
G01X-856480D01*
X-836120Y290330D01*
Y188730D01*
X-814570Y167180D01*
X-813120D01*
Y157680D01*
X-793080D01*
Y185220D01*
X-813120D01*
Y182640D01*
G02X-816530Y181220I-1999J-3D01*
G01X-827580Y192270D01*
Y293870D01*
X-852940Y319230D01*
X-876970D01*
G03X-882480Y325940I-12035J-4265D01*
G02Y329380I1020J1720D01*
G03X-876970Y336090I-6525J10975D01*
G01X-824730D01*
X-732020Y243380D01*
X-664070D01*
Y233880D01*
X-644030D01*
Y256080D01*
X-634070D01*
Y233880D01*
X-614030D01*
Y243380D01*
X-576080D01*
X-541830Y277630D01*
Y355530D01*
X-538080D01*
Y385570D01*
X-641180D01*
Y391000D01*
X-632300Y399880D01*
X-536100D01*
X-520870Y384650D01*
Y250350D01*
X-567850Y203370D01*
X-640020D01*
G03X-652150Y210620I-12130J-6522D01*
G01X-654650D01*
G03X-665050Y205870I0J-13760D01*
G01X-676840D01*
X-680180Y202530D01*
X-683520Y205870D01*
X-728750D01*
G03X-739150Y210620I-10400J-9010D01*
G01X-741650D01*
G03X-749810Y185760I0J-13769D01*
G02Y182540I-1188J-1610D01*
G03X-754510Y176360I8164J-11086D01*
G01X-754760Y175720D01*
X-763080D01*
Y185220D01*
X-783120D01*
Y157680D01*
X-763080D01*
Y167180D01*
X-754760D01*
X-754510Y166540D01*
G03X-749810Y160360I12864J4906D01*
G02Y157140I-1188J-1610D01*
G03X-741650Y132280I8160J-11091D01*
G01X-739150D01*
G03X-730990Y157140I0J13769D01*
G02Y160360I1188J1610D01*
G03Y182540I-8160J11090D01*
G02Y185760I1188J1610D01*
G03X-728750Y187830I-8167J11085D01*
G01X-691000D01*
X-689200Y186030D01*
Y149390D01*
X-676840Y137030D01*
X-665050D01*
G03X-654650Y132280I10400J9010D01*
G01X-652150D01*
G03X-642030Y136710I0J13774D01*
G01X-641740Y137030D01*
X-638740D01*
X-624970Y123260D01*
Y82220D01*
X-635680D01*
Y86720D01*
X-659720D01*
Y82220D01*
X-663480D01*
Y84220D01*
X-689020D01*
Y66300D01*
G02X-692430Y64890I-1998J4D01*
G01X-693230Y65680D01*
Y89580D01*
X-675280D01*
Y91530D01*
X-660230D01*
Y111670D01*
X-675280D01*
Y115380D01*
X-646710D01*
G03Y125920I5360J5270D01*
G01X-681630D01*
X-691070Y116480D01*
Y113620D01*
X-696320D01*
Y106870D01*
X-700680D01*
Y113620D01*
X-721720D01*
Y111670D01*
X-736770D01*
Y91530D01*
X-721720D01*
Y89580D01*
X-703770D01*
Y68770D01*
X-717480D01*
Y84220D01*
X-743020D01*
Y80470D01*
X-747530D01*
X-753880Y86820D01*
X-764680D01*
Y96320D01*
X-784720D01*
Y68780D01*
X-764680D01*
Y78280D01*
X-757420D01*
X-751070Y71930D01*
X-743020D01*
Y55070D01*
X-754730D01*
Y61320D01*
X-778770D01*
Y60820D01*
X-831320D01*
Y40780D01*
X-778770D01*
Y40280D01*
X-776820D01*
Y30820D01*
X-805920D01*
Y28870D01*
X-829370D01*
Y12730D01*
X-805920D01*
Y10780D01*
X-798170D01*
Y-22730D01*
X-878910D01*
G37*
G36*
G01X-903480Y1830D02*
X-905380Y3740D01*
Y788540D01*
X-898040D01*
G03X-893640Y785660I9044J9017D01*
G02X-893530Y781990I-732J-1859D01*
G03X-895050Y763190I4529J-9828D01*
G02X-896170Y759530I-1115J-1660D01*
G01X-901770D01*
Y733990D01*
X-899250D01*
G02X-897870Y730550I-5J-1999D01*
G03X-895520Y710380I8869J-9189D01*
G02Y706940I-1020J-1720D01*
G03Y684980I6520J-10980D01*
G02Y681540I-1020J-1720D01*
G03Y659580I6520J-10980D01*
G02Y656140I-1020J-1720D01*
G03Y634180I6520J-10980D01*
G02Y630740I-1020J-1720D01*
G03Y608780I6520J-10980D01*
G02Y605340I-1020J-1720D01*
G03Y583380I6520J-10980D01*
G02Y579940I-1020J-1720D01*
G03Y557980I6520J-10980D01*
G02Y554540I-1020J-1720D01*
G03Y532580I6520J-10980D01*
G02Y529140I-1020J-1720D01*
G03X-897870Y508970I6519J-10981D01*
G02X-899250Y505530I-1385J-1441D01*
G01X-901770D01*
Y479990D01*
X-899250D01*
G02X-897870Y476550I-5J-1999D01*
G03X-895520Y456380I8869J-9189D01*
G02Y452940I-1020J-1720D01*
G03Y430980I6520J-10980D01*
G02Y427540I-1020J-1720D01*
G03Y405580I6520J-10980D01*
G02Y402140I-1020J-1720D01*
G03Y380180I6520J-10980D01*
G02Y376740I-1020J-1720D01*
G03Y354780I6520J-10980D01*
G02Y351340I-1020J-1720D01*
G03Y329380I6520J-10980D01*
G02Y325940I-1020J-1720D01*
G03Y303980I6520J-10980D01*
G02Y300540I-1020J-1720D01*
G03Y278580I6520J-10980D01*
G02Y275140I-1020J-1720D01*
G03X-895690Y253280I6519J-10981D01*
G02X-896740Y249580I-1050J-1701D01*
G01X-899820D01*
Y227940D01*
X-896740D01*
G02X-895690Y224240I0J-1999D01*
G03X-895520Y202380I6689J-10879D01*
G02Y198940I-1020J-1720D01*
G03Y176980I6520J-10980D01*
G02Y173540I-1020J-1720D01*
G03Y151580I6520J-10980D01*
G02Y148140I-1020J-1720D01*
G03Y126180I6520J-10980D01*
G02Y122740I-1020J-1720D01*
G03Y100780I6520J-10980D01*
G02Y97340I-1020J-1720D01*
G03Y75380I6520J-10980D01*
G02Y71940I-1020J-1720D01*
G03Y49980I6520J-10980D01*
G02Y46540I-1020J-1720D01*
G03X-897870Y26370I6519J-10981D01*
G02X-899250Y22930I-1385J-1441D01*
G01X-901770D01*
Y2540D01*
G02X-903480Y1830I-1001J-3D01*
G37*
G36*
G01X-876970Y463090D02*
X-850130D01*
X-791670Y404630D01*
Y379230D01*
X-719320Y306880D01*
X-714870D01*
Y302720D01*
X-728480D01*
X-871990Y446230D01*
X-876970D01*
G03X-882480Y452940I-12035J-4265D01*
G02Y456380I1020J1720D01*
G03X-876970Y463090I-6525J10975D01*
G37*
G36*
G01X-786130Y-22730D02*
Y10780D01*
X-778380D01*
Y25230D01*
X-756680D01*
Y40280D01*
X-754730D01*
Y46530D01*
X-743020D01*
Y42780D01*
X-741070D01*
Y32030D01*
X-719430D01*
Y42780D01*
X-717480D01*
Y46530D01*
X-700280D01*
X-689020Y35270D01*
Y30080D01*
X-663480D01*
Y70180D01*
X-659720D01*
Y65680D01*
X-657770D01*
Y50630D01*
X-637630D01*
Y65680D01*
X-635680D01*
Y70180D01*
X-624970D01*
Y-8960D01*
X-638740Y-22730D01*
X-786130D01*
G37*
G36*
G01X-610400Y-24730D02*
G02X-611810Y-21320I6J1999D01*
G01X-606930Y-16440D01*
Y130740D01*
X-631260Y155070D01*
X-641750D01*
G03X-643990Y157140I-10407J-9015D01*
G02Y160360I1188J1610D01*
G03X-641750Y162430I-8167J11085D01*
G01X-613340D01*
X-596930Y146020D01*
G03X-595820Y145080I6366J6392D01*
G01Y126010D01*
G03X-585280I5270J-5360D01*
G01Y143380D01*
X-536010D01*
G02X-534570Y139990I2J-2000D01*
G03X-543420Y121300I23394J-22518D01*
G01Y53030D01*
G02X-545130Y52330I-1000J4D01*
G01X-547030Y54230D01*
Y70920D01*
X-552030D01*
Y74880D01*
X-545780D01*
Y102920D01*
X-568320D01*
Y74880D01*
X-562070D01*
Y70920D01*
X-567070D01*
Y43380D01*
X-550380D01*
X-543420Y36420D01*
Y21730D01*
X-538820D01*
Y11630D01*
X-518020D01*
Y-24730D01*
X-527730D01*
Y-21230D01*
X-529680D01*
Y-6180D01*
X-549820D01*
Y-21230D01*
X-551770D01*
Y-24730D01*
X-559330D01*
Y-21230D01*
X-596370D01*
Y-24730D01*
X-610400D01*
G37*
G36*
G01X-488000Y-76200D02*
G02X-508000Y-56200I-27J19973D01*
G01Y-41320D01*
X-502970D01*
Y-42570D01*
X-474930D01*
Y-24030D01*
X-502970D01*
Y-25280D01*
X-508000D01*
Y5680D01*
X-502970D01*
Y3430D01*
X-474930D01*
Y21970D01*
X-502970D01*
Y19720D01*
X-505100D01*
X-508000Y22620D01*
Y31750D01*
X-381000D01*
Y-56200D01*
G02X-401000Y-76200I-19973J-27D01*
G01X-488000D01*
G37*
G36*
G01X-517130Y31750D02*
X-517800Y32420D01*
X-519280D01*
Y38670D01*
X-528640D01*
X-529890Y39920D01*
G02X-528470Y43330I1416J1411D01*
G01X-516980D01*
Y70970D01*
X-533400D01*
Y74830D01*
X-515730D01*
Y102970D01*
X-533400D01*
Y120650D01*
G02X-508000Y139700I22225J-3175D01*
G01X-484670D01*
Y137630D01*
X-455130D01*
Y139700D01*
X-384530D01*
X-384340Y139610D01*
G03X-381840Y138870I4070J9159D01*
G01X-381000Y138740D01*
Y31750D01*
X-517130D01*
G37*
G36*
G01X-381000Y215970D02*
G03X-385170Y215270I0J-12771D01*
G01X-385760Y215060D01*
X-445830Y275130D01*
Y605330D01*
X-467820Y627320D01*
X-533330D01*
Y629980D01*
X-465630D01*
X-443170Y607520D01*
Y359870D01*
X-392860Y309560D01*
X-393070Y308970D01*
G03X-381000Y292030I12070J-4170D01*
G01Y266770D01*
X-393770D01*
Y241230D01*
X-381000D01*
Y215970D01*
G37*
G36*
G01Y317570D02*
G03X-385170Y316870I0J-12771D01*
G01X-385760Y316660D01*
X-433130Y364030D01*
Y611680D01*
X-461470Y640020D01*
X-533330D01*
Y642680D01*
X-459280D01*
X-430470Y613870D01*
Y448770D01*
X-392860Y411160D01*
X-393070Y410570D01*
G03X-381000Y393630I12070J-4170D01*
G01Y368370D01*
X-393770D01*
Y342830D01*
X-381000D01*
Y317570D01*
G37*
G36*
G01Y622370D02*
G03X-385170Y621670I0J-12771D01*
G01X-385760Y621460D01*
X-442420Y678120D01*
X-533330D01*
Y680780D01*
X-404320D01*
X-385760Y699340D01*
X-385170Y699130D01*
G03X-381000Y698430I4170J12071D01*
G01Y673170D01*
X-393770D01*
Y647630D01*
X-381000D01*
Y622370D01*
G37*
G36*
G01X-493220Y693480D02*
X-385760Y800940D01*
X-385170Y800730D01*
G03X-381000Y800030I4170J12071D01*
G01Y774770D01*
X-393770D01*
Y749230D01*
X-381000D01*
Y723970D01*
G03X-393070Y707030I0J-12770D01*
G01X-392860Y706440D01*
X-408480Y690820D01*
X-533330D01*
Y693480D01*
X-493220D01*
G37*
G36*
G01X-381000Y1289120D02*
G03X-385170Y1288420I0J-12771D01*
G01X-385760Y1288210D01*
X-433130Y1335580D01*
Y1583210D01*
X-486890Y1636970D01*
X-526980D01*
Y1639630D01*
X-484680D01*
X-430470Y1585420D01*
Y1420320D01*
X-392860Y1382710D01*
X-393070Y1382120D01*
G03X-381000Y1365180I12070J-4170D01*
G01Y1339920D01*
X-393770D01*
Y1314380D01*
X-381000D01*
Y1289120D01*
G37*
G36*
G01Y1593920D02*
G03X-385170Y1593220I0J-12771D01*
G01X-385760Y1593010D01*
X-467820Y1675070D01*
X-526980D01*
Y1677730D01*
X-392740D01*
G03X-381000Y1669980I11740J5017D01*
G01Y1644720D01*
X-393770D01*
Y1619180D01*
X-381000D01*
Y1593920D01*
G37*
G36*
G01X-467820Y1690430D02*
X-385760Y1772490D01*
X-385170Y1772280D01*
G03X-381000Y1771580I4170J12071D01*
G01Y1746320D01*
X-393770D01*
Y1720780D01*
X-381000D01*
Y1695520D01*
G03X-392740Y1687770I0J-12767D01*
G01X-526980D01*
Y1690430D01*
X-467820D01*
G37*
G36*
G01X-420430Y1775920D02*
Y1966420D01*
X-404320Y1982530D01*
X-392740D01*
G03X-381000Y1974780I11740J5017D01*
G01Y1949520D01*
X-393770D01*
Y1923980D01*
X-381000D01*
Y1898720D01*
G03X-393070Y1881780I0J-12770D01*
G01X-392860Y1881190D01*
X-417770Y1856280D01*
Y1773730D01*
X-478330Y1713170D01*
X-526980D01*
Y1715830D01*
X-480520D01*
X-420430Y1775920D01*
G37*
G36*
G01X-455870Y601170D02*
Y270970D01*
X-392860Y207960D01*
X-393070Y207370D01*
G03X-381000Y190430I12070J-4170D01*
G01Y165170D01*
X-383840D01*
X-462880Y244210D01*
Y593460D01*
X-483290Y613870D01*
G02X-481870Y617280I1416J1411D01*
G01X-471980D01*
X-455870Y601170D01*
G37*
G36*
G01X-443170Y1579050D02*
Y1331420D01*
X-392860Y1281110D01*
X-393070Y1280520D01*
G03X-381000Y1263580I12070J-4170D01*
G01Y1238320D01*
X-383840D01*
X-450180Y1304660D01*
Y1577710D01*
X-495990Y1623520D01*
G02X-494570Y1626930I1416J1411D01*
G01X-491050D01*
X-443170Y1579050D01*
G37*
%LPC*%
G75*
G36*
G01X-687730Y1677330D02*
X-709270D01*
Y1685080D01*
X-787390D01*
G02X-797010Y1695880I-6357J4022D01*
G01X-796440Y1696150D01*
Y1697780D01*
X-800090D01*
G02X-809710Y1708580I-6357J4022D01*
G01X-809140Y1708850D01*
Y1710480D01*
X-812790D01*
G02X-822410Y1721280I-6357J4022D01*
G01X-821840Y1721550D01*
Y1723180D01*
X-825490D01*
G02Y1731220I-6360J4020D01*
G01X-709270D01*
Y1737970D01*
X-687730D01*
Y1677330D01*
G37*
G36*
G01Y1613830D02*
X-709270D01*
Y1620580D01*
X-750050D01*
G02X-759700Y1631940I-5597J5024D01*
G01X-759240Y1632230D01*
Y1633780D01*
X-761490D01*
G02X-771110Y1644580I-6357J4022D01*
G01X-770540Y1644850D01*
Y1646480D01*
X-774190D01*
G02X-785490Y1656170I-6355J4022D01*
G03X-786800Y1659680I-1310J1510D01*
G01X-787370D01*
X-787670Y1659270D01*
G02X-787390Y1667720I-6079J4431D01*
G01X-709270D01*
Y1674470D01*
X-687730D01*
Y1613830D01*
G37*
G36*
G01X-621930Y1623930D02*
Y1613180D01*
X-648070D01*
Y1623930D01*
X-649680D01*
X-652280Y1621330D01*
X-655730D01*
Y1613830D01*
X-677270D01*
Y1674470D01*
X-655730D01*
Y1672890D01*
G03X-652320Y1671470I1999J-3D01*
G01X-650020Y1673770D01*
Y1679030D01*
X-652320Y1681330D01*
G03X-655730Y1679910I-1411J-1417D01*
G01Y1677330D01*
X-677270D01*
Y1737970D01*
X-655730D01*
Y1731470D01*
X-652280D01*
X-649680Y1728870D01*
X-619980D01*
Y1623930D01*
X-621930D01*
G37*
G36*
G01X-628280Y614280D02*
Y603530D01*
X-654420D01*
Y614280D01*
X-656030D01*
X-658630Y611680D01*
X-662080D01*
Y604180D01*
X-683620D01*
Y664820D01*
X-662080D01*
Y663240D01*
G03X-658670Y661820I1999J-3D01*
G01X-656370Y664120D01*
Y669380D01*
X-658670Y671680D01*
G03X-662080Y670260I-1411J-1417D01*
G01Y667680D01*
X-683620D01*
Y728320D01*
X-662080D01*
Y721820D01*
X-658630D01*
X-656030Y719220D01*
X-626330D01*
Y614280D01*
X-628280D01*
G37*
G54D37*
X-889000Y866400D03*
X-577850Y-750D03*
G54D39*
X-469900Y109400D03*
G54D38*
X-558800Y25400D03*
%LPD*%
G75*
G54D10*
X-965200Y-40640D03*
Y848360D03*
G54D20*
X-728200Y101600D03*
X-711200D03*
X-668800D03*
X-685800D03*
G54D11*
G01X-793750Y-31750D02*
X-882650D01*
X-914400Y0D01*
Y793750D01*
G01X-889000Y797560D02*
Y835400D01*
G01Y797560D02*
X-910590D01*
X-914400Y793750D01*
G01D02*
X-918210Y797560D01*
X-939800D01*
G01X-635000Y-31750D02*
X-793750D01*
G01X-740400Y196850D02*
X-687260D01*
X-680180Y189770D01*
G01X-653400Y196850D02*
X-673100D01*
X-680180Y189770D01*
G01D02*
Y153130D01*
X-673100Y146050D01*
X-653400D01*
G01X-615950Y76200D02*
Y-12700D01*
X-635000Y-31750D01*
G01X-653400Y146050D02*
X-635000D01*
X-615950Y127000D01*
Y76200D01*
G01X-469900Y152400D02*
X-590550D01*
G01D02*
X-609600Y171450D01*
X-653400D01*
G01X-469900Y152400D02*
X-381000D01*
G01D02*
X-382450Y150950D01*
X-380270Y148770D01*
G01X-196850Y203200D02*
X-279400D01*
G01X-196850Y160200D02*
X-217350D01*
X-234950Y177800D01*
X-292100D01*
X-304800Y190500D01*
Y203200D01*
G01X-196850Y261800D02*
X-217350D01*
X-234950Y279400D01*
X-292100D01*
X-304800Y292100D01*
Y304800D01*
G01X-196850D02*
X-279400D01*
G01X-196850Y406400D02*
X-279400D01*
G01X-196850Y363400D02*
X-217350D01*
X-234950Y381000D01*
X-292100D01*
X-304800Y393700D01*
Y406400D01*
G01X-196850Y508000D02*
X-279400D01*
G01X-196850Y465000D02*
X-217350D01*
X-234950Y482600D01*
X-292100D01*
X-304800Y495300D01*
Y508000D01*
G01X-196850Y566600D02*
X-217350D01*
X-234950Y584200D01*
X-292100D01*
X-304800Y596900D01*
Y609600D01*
G01X-196850D02*
X-279400D01*
G01X-196850Y711200D02*
X-279400D01*
G01X-196850Y668200D02*
X-217350D01*
X-234950Y685800D01*
X-292100D01*
X-304800Y698500D01*
Y711200D01*
G01X-196850Y812800D02*
X-279400D01*
G01X-196850Y769800D02*
X-217350D01*
X-234950Y787400D01*
X-292100D01*
X-304800Y800100D01*
Y812800D01*
G01X-196850Y871400D02*
X-217350D01*
X-234950Y889000D01*
X-292100D01*
X-304800Y901700D01*
Y914400D01*
G01X-196850D02*
X-279400D01*
G01X-196850Y1233350D02*
X-217350D01*
X-234950Y1250950D01*
X-292100D01*
X-304800Y1263650D01*
Y1276350D01*
G01X-196850Y1334950D02*
X-217350D01*
X-234950Y1352550D01*
X-292100D01*
X-304800Y1365250D01*
Y1377950D01*
G01X-196850Y1276350D02*
X-279400D01*
G01X-196850Y1377950D02*
X-279400D01*
G01X-196850Y1479550D02*
X-279400D01*
G01X-196850Y1436550D02*
X-217350D01*
X-234950Y1454150D01*
X-292100D01*
X-304800Y1466850D01*
Y1479550D01*
G01X-196850Y1538150D02*
X-217350D01*
X-234950Y1555750D01*
X-292100D01*
X-304800Y1568450D01*
Y1581150D01*
G01X-196850Y1639750D02*
X-217350D01*
X-234950Y1657350D01*
X-292100D01*
X-304800Y1670050D01*
Y1682750D01*
G01X-196850Y1581150D02*
X-279400D01*
G01X-196850Y1682750D02*
X-279400D01*
G01X-196850Y1784350D02*
X-279400D01*
G01X-196850Y1741350D02*
X-217350D01*
X-234950Y1758950D01*
X-292100D01*
X-304800Y1771650D01*
Y1784350D01*
G01X-196850Y1842950D02*
X-217350D01*
X-234950Y1860550D01*
X-292100D01*
X-304800Y1873250D01*
Y1885950D01*
G01X-196850D02*
X-279400D01*
G01X-196850Y1944550D02*
X-217350D01*
X-234950Y1962150D01*
X-292100D01*
X-304800Y1974850D01*
Y1987550D01*
G01X-196850D02*
X-279400D01*
G01X-133350Y203200D02*
X-196850D01*
G01X-82550D02*
X-107950Y177800D01*
X-158750D01*
X-176350Y160200D01*
X-196850D01*
G01X-82550Y304800D02*
X-107950Y279400D01*
X-158750D01*
X-176350Y261800D01*
X-196850D01*
G01X-133350Y304800D02*
X-196850D01*
G01X-133350Y406400D02*
X-196850D01*
G01X-82550D02*
X-107950Y381000D01*
X-158750D01*
X-176350Y363400D01*
X-196850D01*
G01X-133350Y508000D02*
X-196850D01*
G01X-82550D02*
X-107950Y482600D01*
X-158750D01*
X-176350Y465000D01*
X-196850D01*
G01X-82550Y609600D02*
X-107950Y584200D01*
X-158750D01*
X-176350Y566600D01*
X-196850D01*
G01X-133350Y609600D02*
X-196850D01*
G01X-133350Y711200D02*
X-196850D01*
G01X-82550D02*
X-107950Y685800D01*
X-158750D01*
X-176350Y668200D01*
X-196850D01*
G01X-133350Y812800D02*
X-196850D01*
G01X-82550D02*
X-107950Y787400D01*
X-158750D01*
X-176350Y769800D01*
X-196850D01*
G01X-82550Y914400D02*
X-107950Y889000D01*
X-158750D01*
X-176350Y871400D01*
X-196850D01*
G01X-133350Y914400D02*
X-196850D01*
G01X-82550Y1276350D02*
X-107950Y1250950D01*
X-158750D01*
X-176350Y1233350D01*
X-196850D01*
G01X-82550Y1377950D02*
X-107950Y1352550D01*
X-158750D01*
X-176350Y1334950D01*
X-196850D01*
G01X-133350Y1276350D02*
X-196850D01*
G01X-133350Y1377950D02*
X-196850D01*
G01X-133350Y1479550D02*
X-196850D01*
G01X-82550D02*
X-107950Y1454150D01*
X-158750D01*
X-176350Y1436550D01*
X-196850D01*
G01X-82550Y1581150D02*
X-107950Y1555750D01*
X-158750D01*
X-176350Y1538150D01*
X-196850D01*
G01X-82550Y1682750D02*
X-107950Y1657350D01*
X-158750D01*
X-176350Y1639750D01*
X-196850D01*
G01X-133350Y1581150D02*
X-196850D01*
G01X-133350Y1682750D02*
X-196850D01*
G01X-133350Y1784350D02*
X-196850D01*
G01X-82550D02*
X-107950Y1758950D01*
X-158750D01*
X-176350Y1741350D01*
X-196850D01*
G01X-82550Y1885950D02*
X-107950Y1860550D01*
X-158750D01*
X-176350Y1842950D01*
X-196850D01*
G01X-133350Y1885950D02*
X-196850D01*
G01X-82550Y1987550D02*
X-107950Y1962150D01*
X-158750D01*
X-176350Y1944550D01*
X-196850D01*
G01X-133350Y1987550D02*
X-196850D01*
X-967900Y14390D03*
Y114390D03*
Y214390D03*
Y314390D03*
Y414390D03*
Y514390D03*
Y614390D03*
Y714390D03*
Y915660D03*
Y1015660D03*
Y1115660D03*
Y1215660D03*
Y1315660D03*
Y1415660D03*
Y1515660D03*
Y1615660D03*
Y1715660D03*
Y1815660D03*
Y1915660D03*
Y2015660D03*
Y2115660D03*
X-942670Y-66200D03*
X-925330Y2206150D03*
X-842670Y-66200D03*
X-812800Y-6350D03*
X-869950Y-12700D03*
X-868310Y45070D03*
X-825500Y114300D03*
X-838200Y82550D03*
X-831850Y171450D03*
X-867650Y145070D03*
X-863600Y222250D03*
X-812800D03*
X-831850Y323850D03*
X-812080Y400470D03*
X-850900Y444500D03*
X-844550Y546100D03*
X-877370Y899820D03*
Y999820D03*
Y1099820D03*
Y1199820D03*
Y1299820D03*
Y1399820D03*
X-805380Y1477110D03*
X-877370Y1499820D03*
Y1599820D03*
X-831850Y1727200D03*
X-819150Y1714500D03*
X-806450Y1701800D03*
X-877370Y1699820D03*
X-867900Y1861250D03*
Y1961250D03*
X-836370Y2106150D03*
X-825330Y2206150D03*
X-742670Y-66200D03*
X-730250Y19050D03*
X-768350Y12700D03*
X-742950Y-12700D03*
X-755650Y101600D03*
X-774700Y196850D03*
Y146050D03*
Y266700D03*
Y438150D03*
X-746990Y385470D03*
X-741370Y471180D03*
X-793750Y546100D03*
X-800000Y666000D03*
X-793750Y596900D03*
X-800100Y812800D03*
Y781050D03*
Y876300D03*
Y977900D03*
Y1079500D03*
Y1181100D03*
Y1276350D03*
X-781050Y1346200D03*
X-768350Y1333500D03*
X-755650Y1320800D03*
X-742950Y1308100D03*
X-730250Y1295400D03*
Y1422400D03*
X-800100Y1377950D03*
X-786460Y1575310D03*
X-780550Y1650500D03*
X-767850Y1637800D03*
X-755650Y1625600D03*
X-793750Y1689100D03*
Y1663700D03*
X-780470Y1675130D03*
X-747960Y1740720D03*
X-771880Y1828240D03*
X-762220Y2006150D03*
X-736370Y2106150D03*
X-679450Y6350D03*
X-698500Y120650D03*
X-711200Y76200D03*
X-704850Y177800D03*
X-717550Y222260D03*
X-715530Y356030D03*
X-650590Y412050D03*
X-666750Y463550D03*
X-722830Y569450D03*
X-658770Y533700D03*
X-724000Y666000D03*
X-656020Y731320D03*
X-723900Y812800D03*
X-722830Y769450D03*
Y869450D03*
X-710480Y913080D03*
X-723900Y977900D03*
Y1079500D03*
Y1181100D03*
X-685210Y1238410D03*
X-717550Y1263650D03*
X-704850Y1250950D03*
X-717550Y1282700D03*
X-685510Y1369970D03*
X-660400Y1473200D03*
X-723900Y1530350D03*
X-652420Y1543350D03*
X-725990Y1611080D03*
X-721670Y1914740D03*
X-662220Y2006150D03*
X-725330Y2206150D03*
X-642670Y-66200D03*
X-641350Y-6350D03*
X-647700Y38100D03*
X-596900Y19050D03*
X-590550Y120650D03*
X-641350D03*
X-647700Y95250D03*
X-596900D03*
X-577850Y177800D03*
X-615950Y152400D03*
X-641350Y215900D03*
X-647700Y590550D03*
X-618000Y672000D03*
X-646600Y813080D03*
X-642200Y782040D03*
X-622830Y871130D03*
Y971130D03*
X-617170Y1062860D03*
Y1162860D03*
X-585340Y1243530D03*
X-612000Y1402000D03*
X-606740Y1431570D03*
X-647700Y1600200D03*
X-609600Y1682750D03*
X-647960Y1740590D03*
X-617570Y1816670D03*
Y1916670D03*
X-636370Y2106150D03*
X-625330Y2206150D03*
X-546000Y-66000D03*
X-552450Y6350D03*
X-530300Y3850D03*
X-546100Y133350D03*
X-571500Y228600D03*
X-529370Y316370D03*
X-499330Y335820D03*
X-552450Y431800D03*
X-534000Y486000D03*
X-517570Y589120D03*
X-556040Y729220D03*
X-546930Y821220D03*
X-542200Y782040D03*
X-517170Y916690D03*
Y1016690D03*
Y1116690D03*
Y1216690D03*
Y1316690D03*
X-508460Y1413070D03*
X-517570Y1489120D03*
Y1589120D03*
Y1789120D03*
X-547970Y1738870D03*
X-517570Y1889120D03*
Y1989120D03*
X-525330Y2206150D03*
X-495300Y177800D03*
X-429700Y169920D03*
X-494000Y252000D03*
X-452000Y250000D03*
X-438000Y280000D03*
X-485420Y452960D03*
Y552960D03*
X-469900Y698500D03*
X-464320Y769060D03*
X-427270Y861950D03*
X-486130Y915600D03*
Y1015600D03*
Y1115600D03*
Y1215600D03*
X-442000Y1320000D03*
X-424000Y1340000D03*
X-486130Y1315600D03*
X-472720Y1337250D03*
Y1437250D03*
Y1537250D03*
X-452000Y1670000D03*
Y1696000D03*
X-453200Y1770780D03*
X-439970Y1869900D03*
X-425450Y2000250D03*
X-491000Y2076060D03*
X-425330Y2206150D03*
X-417570Y215820D03*
Y315820D03*
X-422000Y368000D03*
X-417570Y415820D03*
X-420000Y672000D03*
X-419100Y749300D03*
X-417570Y915820D03*
Y1015820D03*
Y1115820D03*
Y1215820D03*
X-418000Y1284000D03*
Y1396000D03*
Y1638000D03*
Y1728000D03*
X-406400Y1962150D03*
X-391000Y2063480D03*
Y2163480D03*
G54D21*
X-672850Y654050D03*
Y614950D03*
X-704850D03*
Y654050D03*
X-672850Y717550D03*
Y678450D03*
X-704850D03*
Y717550D03*
X-666500Y1624600D03*
X-698500D03*
X-666500Y1727200D03*
Y1688100D03*
X-698500D03*
Y1727200D03*
X-666500Y1663700D03*
X-698500D03*
G54D12*
X-889000Y60960D03*
Y35560D03*
X-939800Y60960D03*
Y35560D03*
X-889000Y137160D03*
Y111760D03*
Y86360D03*
X-939800Y137160D03*
Y111760D03*
Y86360D03*
X-889000Y213360D03*
Y187960D03*
Y162560D03*
X-939800Y213360D03*
Y187960D03*
Y162560D03*
X-889000Y289560D03*
Y264160D03*
X-939800Y289560D03*
Y264160D03*
X-889000Y365760D03*
Y340360D03*
Y314960D03*
X-939800Y365760D03*
Y340360D03*
Y314960D03*
X-889000Y441960D03*
Y416560D03*
Y391160D03*
X-939800Y441960D03*
Y416560D03*
Y391160D03*
X-889000Y518160D03*
Y467360D03*
X-939800Y518160D03*
Y467360D03*
X-889000Y594360D03*
Y568960D03*
Y543560D03*
X-939800Y594360D03*
Y568960D03*
Y543560D03*
X-889000Y670560D03*
Y645160D03*
Y619760D03*
X-939800Y670560D03*
Y645160D03*
Y619760D03*
X-889000Y721360D03*
Y695960D03*
X-939800Y721360D03*
Y695960D03*
X-889000Y797560D03*
Y772160D03*
X-939800Y797560D03*
Y772160D03*
X-381000Y203200D03*
Y304800D03*
Y406400D03*
Y508000D03*
Y609600D03*
Y711200D03*
Y812800D03*
Y914400D03*
Y1276350D03*
Y1377950D03*
Y1479550D03*
Y1581150D03*
Y1682750D03*
Y1784350D03*
Y1885950D03*
Y1987550D03*
X-330200Y203200D03*
X-304800D03*
X-279400D03*
Y152400D03*
X-304800D03*
X-330200D03*
X-279400Y254000D03*
X-304800D03*
X-330200D03*
X-279400Y355600D03*
X-304800D03*
X-330200D03*
Y304800D03*
X-304800D03*
X-279400D03*
X-330200Y406400D03*
X-304800D03*
X-279400D03*
X-330200Y508000D03*
X-304800D03*
X-279400D03*
Y457200D03*
X-304800D03*
X-330200D03*
X-279400Y558800D03*
X-304800D03*
X-330200D03*
X-279400Y660400D03*
X-304800D03*
X-330200D03*
Y609600D03*
X-304800D03*
X-279400D03*
X-330200Y711200D03*
X-304800D03*
X-279400D03*
X-330200Y812800D03*
X-304800D03*
X-279400D03*
Y762000D03*
X-304800D03*
X-330200D03*
X-279400Y863600D03*
X-304800D03*
X-330200D03*
Y914400D03*
X-304800D03*
X-279400D03*
X-330200Y1276350D03*
X-304800D03*
X-279400D03*
Y1225550D03*
X-304800D03*
X-330200D03*
X-279400Y1327150D03*
X-304800D03*
X-330200D03*
X-279400Y1428750D03*
X-304800D03*
X-330200D03*
Y1377950D03*
X-304800D03*
X-279400D03*
X-330200Y1479550D03*
X-304800D03*
X-279400D03*
X-330200Y1581150D03*
X-304800D03*
X-279400D03*
Y1530350D03*
X-304800D03*
X-330200D03*
X-279400Y1631950D03*
X-304800D03*
X-330200D03*
X-279400Y1733550D03*
X-304800D03*
X-330200D03*
Y1682750D03*
X-304800D03*
X-279400D03*
X-330200Y1784350D03*
X-304800D03*
X-279400D03*
X-330200Y1885950D03*
X-304800D03*
X-279400D03*
Y1835150D03*
X-304800D03*
X-330200D03*
X-279400Y1936750D03*
X-304800D03*
X-330200D03*
Y1987550D03*
X-304800D03*
X-279400D03*
G54D30*
X-133350Y203200D03*
Y254000D03*
Y355600D03*
Y304800D03*
Y406400D03*
Y508000D03*
Y457200D03*
Y558800D03*
Y660400D03*
Y609600D03*
Y711200D03*
Y812800D03*
Y762000D03*
Y863600D03*
Y914400D03*
Y1276350D03*
Y1327150D03*
Y1428750D03*
Y1377950D03*
Y1479550D03*
Y1581150D03*
Y1530350D03*
Y1631950D03*
Y1733550D03*
Y1682750D03*
Y1784350D03*
Y1885950D03*
Y1835150D03*
Y1936750D03*
Y1987550D03*
X-82550Y203200D03*
Y254000D03*
Y355600D03*
Y304800D03*
Y406400D03*
Y508000D03*
Y457200D03*
Y558800D03*
Y660400D03*
Y609600D03*
Y711200D03*
Y812800D03*
Y762000D03*
Y863600D03*
Y914400D03*
Y1276350D03*
Y1327150D03*
Y1428750D03*
Y1377950D03*
Y1479550D03*
Y1581150D03*
Y1530350D03*
Y1631950D03*
Y1733550D03*
Y1682750D03*
Y1784350D03*
Y1885950D03*
Y1835150D03*
Y1936750D03*
Y1987550D03*
G54D22*
X-672850Y640850D03*
Y628150D03*
X-704850D03*
Y640850D03*
X-672850Y704350D03*
Y691650D03*
X-704850D03*
Y704350D03*
X-666500Y1650500D03*
Y1637800D03*
X-698500D03*
Y1650500D03*
X-666500Y1714000D03*
Y1701300D03*
X-698500D03*
Y1714000D03*
G54D13*
X-889000Y10160D03*
X-939800D03*
X-889000Y238760D03*
X-939800D03*
X-889000Y492760D03*
X-939800D03*
X-889000Y746760D03*
X-939800D03*
X-381000Y152400D03*
Y254000D03*
Y355600D03*
Y457200D03*
Y558800D03*
Y660400D03*
Y762000D03*
Y863600D03*
Y1225550D03*
Y1327150D03*
Y1428750D03*
Y1530350D03*
Y1631950D03*
Y1733550D03*
Y1835150D03*
Y1936750D03*
G54D31*
X0Y-2540D03*
Y1070610D03*
Y2180590D03*
G54D32*
G01X-831850Y1727200D02*
X-698500D01*
G01Y1714000D02*
X-699000Y1714500D01*
X-819150D01*
G01X-698500Y1650500D02*
X-780550D01*
G01X-698500Y1637800D02*
X-767850D01*
G01X-698500Y1624600D02*
X-754650D01*
X-755650Y1625600D01*
G01X-698500Y1701300D02*
X-699000Y1701800D01*
X-806450D01*
G01X-698500Y1688100D02*
X-699500Y1689100D01*
X-793750D01*
G01X-698500Y1663700D02*
X-793750D01*
G54D14*
X-889000Y866400D03*
Y835400D03*
X-577850Y-31750D03*
Y-750D03*
G54D23*
X-584200Y370550D03*
X-596900D03*
X-609600D03*
X-622300D03*
X-635000D03*
X-647700D03*
Y463550D03*
X-635000D03*
X-622300D03*
X-609600D03*
X-596900D03*
X-584200D03*
X-590550Y1380200D03*
X-603250D03*
X-615950D03*
X-628650D03*
X-641350D03*
Y1473200D03*
X-628650D03*
X-615950D03*
X-603250D03*
X-590550D03*
X-546100Y370550D03*
X-558800D03*
X-571500D03*
Y463550D03*
X-558800D03*
X-546100D03*
X-539750Y1380200D03*
X-552450D03*
X-565150D03*
X-577850D03*
Y1473200D03*
X-565150D03*
X-552450D03*
X-539750D03*
G54D33*
G01X-792150Y20800D02*
Y-30150D01*
X-793750Y-31750D01*
G01X-647700Y76200D02*
X-676250D01*
G01X-647700D02*
X-615950D01*
G01X-609600Y525300D02*
Y527050D01*
G01X-528800Y25400D02*
Y28900D01*
X-557050Y57150D01*
G01X-528800Y25400D02*
X-520710D01*
X-508010Y12700D01*
X-488950D01*
G01X-557050Y88900D02*
Y57150D01*
G01X-381000Y508000D02*
X-412750Y539750D01*
Y622300D01*
X-450850Y660400D01*
X-548350D01*
G01X-381000Y406400D02*
X-425450Y450850D01*
Y615950D01*
X-457200Y647700D01*
X-548350D01*
G01X-381000Y304800D02*
X-438150Y361950D01*
Y609600D01*
X-463550Y635000D01*
X-548350D01*
G01X-381000Y203200D02*
X-450850Y273050D01*
Y603250D01*
X-469900Y622300D01*
X-548350D01*
G01X-381000Y914400D02*
X-412750Y882650D01*
Y800100D01*
X-501650Y711200D01*
X-548350D01*
G01X-381000Y812800D02*
X-495300Y698500D01*
X-548350D01*
G01X-381000Y711200D02*
X-406400Y685800D01*
X-548350D01*
G01X-381000Y609600D02*
X-444500Y673100D01*
X-548350D01*
G01X-381000Y1377950D02*
X-425450Y1422400D01*
Y1587500D01*
X-482600Y1644650D01*
X-542000D01*
G01X-381000Y1276350D02*
X-438150Y1333500D01*
Y1581130D01*
X-488970Y1631950D01*
X-542000D01*
G01X-381000Y1987550D02*
X-406400D01*
X-425450Y1968500D01*
Y1778000D01*
X-482600Y1720850D01*
X-542000D01*
G01X-381000Y1885950D02*
X-412750Y1854200D01*
Y1771650D01*
X-476250Y1708150D01*
X-542000D01*
G01X-381000Y1784350D02*
X-469900Y1695450D01*
X-542000D01*
G01X-381000Y1682750D02*
X-542000D01*
G01X-381000Y1581150D02*
X-469900Y1670050D01*
X-542000D01*
G01X-381000Y1479550D02*
X-412750Y1511300D01*
Y1593850D01*
X-476250Y1657350D01*
X-542000D01*
G54D15*
X-817550Y50800D03*
Y20800D03*
X-792150Y50800D03*
Y20800D03*
X-635000Y495300D03*
X-609600D03*
X-584200D03*
X-635000Y525300D03*
X-622300Y576100D03*
Y546100D03*
X-609600Y525300D03*
X-596900Y576100D03*
Y546100D03*
X-584200Y525300D03*
X-603250Y1504950D03*
X-577850D03*
X-628650D03*
X-615950Y1555750D03*
X-603250Y1534950D03*
X-590550Y1555750D03*
X-577850Y1534950D03*
X-628650D03*
X-615950Y1585750D03*
X-590550D03*
X-558800Y495300D03*
X-571500Y576100D03*
Y546100D03*
X-558800Y525300D03*
X-546100Y576100D03*
Y546100D03*
X-552450Y1504950D03*
X-565150Y1555750D03*
X-552450Y1534950D03*
X-539750Y1555750D03*
X-565150Y1585750D03*
X-539750D03*
G54D24*
X-641350Y609600D03*
Y622300D03*
Y635000D03*
Y647700D03*
Y660400D03*
Y673100D03*
Y685800D03*
Y698500D03*
Y711200D03*
X-635000Y1619250D03*
Y1631950D03*
Y1644650D03*
Y1657350D03*
Y1670050D03*
Y1682750D03*
Y1695450D03*
Y1708150D03*
Y1720850D03*
X-548350Y660400D03*
Y647700D03*
Y635000D03*
Y622300D03*
Y609600D03*
Y711200D03*
Y698500D03*
Y685800D03*
Y673100D03*
X-542000Y1644650D03*
Y1631950D03*
Y1619250D03*
Y1720850D03*
Y1708150D03*
Y1695450D03*
Y1682750D03*
Y1670050D03*
Y1657350D03*
G54D34*
G01X-965200Y-65710D02*
Y-40640D01*
G01D02*
Y-15570D01*
G01Y-40640D02*
X-940130D01*
G01X-965200Y823290D02*
Y848360D01*
G01D02*
Y873430D01*
G01Y848360D02*
X-940130D01*
G01X-951620Y238760D02*
X-939800D01*
G01D02*
X-927980D01*
G01X-900820D02*
X-889000D01*
G01D02*
X-877180D01*
G01X-951620Y772160D02*
X-939800D01*
G01D02*
X-927980D01*
G01X-900820D02*
X-889000D01*
G01D02*
X-877180D01*
G01X-889000Y856830D02*
Y866400D01*
G01D02*
Y875970D01*
G01X-906570Y866400D02*
X-889000D01*
G01D02*
X-871430D01*
G01X-817550Y11730D02*
Y20800D01*
G01D02*
Y29870D01*
G01X-830370Y20800D02*
X-817550D01*
G01X-742070Y38100D02*
X-730250D01*
G01X-766750Y24230D02*
Y33800D01*
G01X-777820D02*
X-766750D01*
G01D02*
X-755680D01*
G01X-737770Y101600D02*
X-728200D01*
G01X-730250Y31030D02*
Y38100D01*
G01D02*
X-718430D01*
G01X-658770Y59200D02*
X-647700D01*
G01X-668800Y90530D02*
Y101600D01*
G01D02*
Y112670D01*
G01Y101600D02*
X-659230D01*
G01X-728200Y90530D02*
Y101600D01*
G01D02*
Y112670D01*
G01X-647700Y49630D02*
Y59200D01*
G01X-595420Y-750D02*
X-577850D01*
G01X-647700Y59200D02*
X-636630D01*
G01X-653400Y196850D02*
X-565150D01*
X-514350Y247650D01*
Y387350D01*
X-533400Y406400D01*
X-635000D01*
X-647700Y393700D01*
Y370550D01*
G01Y449480D02*
Y463550D01*
G01D02*
Y477620D01*
G01X-654770Y463550D02*
X-647700D01*
G01X-641350Y602530D02*
Y609600D01*
G01X-655420D02*
X-641350D01*
G01D02*
X-627280D01*
G01X-641350Y1459130D02*
Y1473200D01*
G01D02*
Y1487270D01*
G01X-648420Y1473200D02*
X-641350D01*
G01X-635000Y1612180D02*
Y1619250D01*
G01X-649070D02*
X-635000D01*
G01D02*
X-620930D01*
G01X-539750Y-14750D02*
Y-5180D01*
G01X-550820Y-14750D02*
X-539750D01*
G01D02*
X-528680D01*
G01X-558800Y12580D02*
Y25400D01*
G01D02*
Y38220D01*
G01X-567870Y25400D02*
X-558800D01*
G01D02*
X-549730D01*
G01X-577850Y-10320D02*
Y-750D01*
G01D02*
Y8820D01*
G01Y-750D02*
X-560280D01*
G01X-527050Y42330D02*
Y57150D01*
G01Y73830D02*
Y88900D01*
G01D02*
Y103970D01*
G01Y88900D02*
X-514730D01*
G01X-527050Y57150D02*
Y71970D01*
G01Y57150D02*
X-515980D01*
G01X-469900Y93080D02*
Y109400D01*
G01D02*
Y125720D01*
G01X-486220Y109400D02*
X-469900D01*
G01D02*
X-453580D01*
G54D25*
X-557050Y88900D03*
X-527050D03*
G54D16*
X-766750Y33800D03*
Y50800D03*
X-647700Y59200D03*
Y76200D03*
X-539750Y-31750D03*
Y-14750D03*
G54D35*
G01X-641350Y1380200D02*
Y1397000D01*
X-622300Y1416050D01*
X-533400D01*
X-501650Y1384300D01*
Y844550D01*
X-548640Y797560D01*
X-889000D01*
G01X-577850Y-31750D02*
X-635000D01*
G01X-577850D02*
X-539750D01*
G01D02*
X-514350D01*
X-512800Y-33300D01*
X-488950D01*
G01X-381000Y152400D02*
X-469900Y241300D01*
Y590550D01*
X-488950Y609600D01*
X-548350D01*
G01X-381000Y1225550D02*
X-457200Y1301750D01*
Y1574800D01*
X-501650Y1619250D01*
X-542000D01*
G54D26*
X-427950Y-10300D03*
G54D17*
X-730250Y38100D03*
Y50800D03*
Y63500D03*
Y76200D03*
X-676250Y50800D03*
Y38100D03*
Y76200D03*
Y63500D03*
G54D36*
G01X-803100Y171450D02*
X-812800D01*
X-831850Y190500D01*
Y292100D01*
X-854710Y314960D01*
X-889000D01*
G01X-654050Y247650D02*
X-730250D01*
X-822960Y340360D01*
X-889000D01*
G01X-804700Y82550D02*
X-819150D01*
X-844550Y107950D01*
Y273050D01*
X-861060Y289560D01*
X-889000D01*
G01X-704850Y285750D02*
X-730260D01*
X-861070Y416560D01*
X-889000D01*
G01X-654050Y273050D02*
X-730250D01*
X-848360Y391160D01*
X-889000D01*
G01X-704850Y260350D02*
X-730250D01*
X-835660Y365760D01*
X-889000D01*
G01X-654050Y323850D02*
X-717560D01*
X-781050Y387340D01*
Y412750D01*
X-861060Y492760D01*
X-889000D01*
G01X-704850Y311150D02*
X-717550D01*
X-787400Y381000D01*
Y406400D01*
X-848360Y467360D01*
X-889000D01*
G01X-654050Y298450D02*
X-730250D01*
X-873760Y441960D01*
X-889000D01*
G01Y568960D02*
X-853430D01*
X-793740Y628650D01*
X-705350D01*
X-704850Y628150D01*
G01Y614950D02*
X-705850Y615950D01*
X-793750D01*
X-866140Y543560D01*
X-889000D01*
G01Y518160D02*
X-873760D01*
X-774700Y419100D01*
Y393700D01*
X-717550Y336550D01*
X-704850D01*
G01X-889000Y645160D02*
X-872490D01*
X-838200Y679450D01*
X-705850D01*
X-704850Y678450D01*
G01Y654050D02*
X-793750D01*
X-828040Y619760D01*
X-889000D01*
G01Y594360D02*
X-840740D01*
X-793750Y641350D01*
X-705350D01*
X-704850Y640850D01*
G01Y717550D02*
X-885190D01*
X-889000Y721360D01*
G01Y695960D02*
X-847090D01*
X-838200Y704850D01*
X-705350D01*
X-704850Y704350D01*
G01X-889000Y670560D02*
X-859790D01*
X-838200Y692150D01*
X-705350D01*
X-704850Y691650D01*
G01X-792150Y50800D02*
X-817550D01*
G01X-766750D02*
X-792150D01*
G01X-730250D02*
X-766750D01*
G01X-774700Y82550D02*
X-755650D01*
X-749300Y76200D01*
X-730250D01*
G01X-740400Y171450D02*
X-773100D01*
G01X-698500Y1346200D02*
X-781050D01*
G01X-647700Y1333500D02*
X-768350D01*
G01X-698500Y1320800D02*
X-755650D01*
G01X-647700Y1308100D02*
X-742950D01*
G01X-698500Y63500D02*
X-685800Y50800D01*
X-676250D01*
G01X-730250D02*
X-698510D01*
X-685810Y38100D01*
X-676250D01*
G01X-730250Y63500D02*
X-698500D01*
G01D02*
Y101600D01*
G01D02*
X-685800D01*
G01X-711200D02*
X-698500D01*
G01X-641350Y120650D02*
X-679450D01*
X-685800Y114300D01*
Y101600D01*
G01X-558800Y370550D02*
Y285750D01*
X-584200Y260350D01*
X-674850D01*
G01X-584200Y370550D02*
Y304800D01*
X-603250Y285750D01*
X-674850D01*
G01X-609600Y370550D02*
Y317500D01*
X-615950Y311150D01*
X-674850D01*
G01X-635000Y370550D02*
Y355600D01*
X-654050Y336550D01*
X-674850D01*
G01X-672850Y628150D02*
X-672350Y628650D01*
X-660400D01*
X-654050Y635000D01*
X-641350D01*
G01X-672850Y640850D02*
X-672350Y641350D01*
X-660400D01*
X-654050Y647700D01*
X-641350D01*
G01X-672850Y654050D02*
X-660400D01*
X-654050Y660400D01*
X-641350D01*
G01X-672850Y614950D02*
X-671850Y615950D01*
X-660400D01*
X-654050Y622300D01*
X-641350D01*
G01X-672850Y678450D02*
X-671850Y679450D01*
X-660400D01*
X-654050Y673100D01*
X-641350D01*
G01X-672850Y704350D02*
X-672350Y704850D01*
X-660400D01*
X-654050Y698500D01*
X-641350D01*
G01X-672850Y717550D02*
X-660400D01*
X-654050Y711200D01*
X-641350D01*
G01X-672850Y691650D02*
X-672350Y692150D01*
X-660400D01*
X-654050Y685800D01*
X-641350D01*
G01X-698500Y1270000D02*
X-711200D01*
X-717550Y1263650D01*
G01X-704850Y1250950D02*
X-692150D01*
X-685800Y1257300D01*
X-647700D01*
G01X-552450Y1380200D02*
Y1295400D01*
X-577850Y1270000D01*
X-668500D01*
G01X-698500Y1295400D02*
X-730250D01*
G01X-647700Y1282700D02*
X-717550D01*
G01X-577850Y1380200D02*
Y1314450D01*
X-596900Y1295400D01*
X-668500D01*
G01X-603250Y1380200D02*
Y1327150D01*
X-609600Y1320800D01*
X-668500D01*
G01X-628650Y1380200D02*
Y1365250D01*
X-647700Y1346200D01*
X-668500D01*
G01X-666500Y1650500D02*
X-666000Y1651000D01*
X-654050D01*
X-647700Y1657350D01*
X-635000D01*
G01X-666500Y1637800D02*
X-666000Y1638300D01*
X-654050D01*
X-647700Y1644650D01*
X-635000D01*
G01X-666500Y1624600D02*
X-665500Y1625600D01*
X-654050D01*
X-647700Y1631950D01*
X-635000D01*
G01X-666500Y1688100D02*
X-665500Y1689100D01*
X-654050D01*
X-647700Y1682750D01*
X-635000D01*
G01X-666500Y1701300D02*
X-666000Y1701800D01*
X-654050D01*
X-647700Y1695450D01*
X-635000D01*
G01X-666500Y1714000D02*
X-666000Y1714500D01*
X-654050D01*
X-647700Y1708150D01*
X-635000D01*
G01X-666500Y1663700D02*
X-654050D01*
X-647700Y1670050D01*
X-635000D01*
G01X-666500Y1727200D02*
X-654050D01*
X-647700Y1720850D01*
X-635000D01*
G01X-590550Y120650D02*
Y152400D01*
G01X-546100Y370550D02*
Y279400D01*
X-577850Y247650D01*
X-624050D01*
G01X-571500Y370550D02*
Y292100D01*
X-590550Y273050D01*
X-624050D01*
G01X-596900Y370550D02*
Y311150D01*
X-609600Y298450D01*
X-624050D01*
G01X-622300Y370550D02*
Y325600D01*
X-624050Y323850D01*
G01X-635000Y495300D02*
Y463550D01*
G01X-622300Y546100D02*
Y463550D01*
G01X-609600Y495300D02*
Y463550D01*
G01X-596900Y546100D02*
Y463550D01*
G01X-584200Y495300D02*
Y463550D01*
G01X-635000Y525300D02*
Y584200D01*
X-609600Y609600D01*
Y660400D01*
X-558800Y711200D01*
X-548350D01*
G01X-622300Y576100D02*
Y584190D01*
X-603250Y603240D01*
Y654050D01*
X-558800Y698500D01*
X-548350D01*
G01X-609600Y527050D02*
Y584190D01*
X-596900Y596890D01*
Y647700D01*
X-558800Y685800D01*
X-548350D01*
G01X-596900Y576100D02*
Y584200D01*
X-590550Y590550D01*
Y641350D01*
X-558800Y673100D01*
X-548350D01*
G01Y660400D02*
X-558800D01*
X-584200Y635000D01*
Y525300D01*
G01X-539750Y1380200D02*
Y1289050D01*
X-571500Y1257300D01*
X-617700D01*
G01X-590550Y1380200D02*
Y1320800D01*
X-603250Y1308100D01*
X-617700D01*
G01X-615950Y1380200D02*
Y1335250D01*
X-617700Y1333500D01*
G01X-565150Y1380200D02*
Y1301750D01*
X-584200Y1282700D01*
X-617700D01*
G01X-615950Y1555750D02*
Y1473200D01*
G01X-603250Y1504950D02*
Y1473200D01*
G01X-590550Y1555750D02*
Y1473200D01*
G01X-628650Y1504950D02*
Y1473200D01*
G01Y1534950D02*
Y1593850D01*
X-603250Y1619250D01*
Y1670050D01*
X-552450Y1720850D01*
X-542000D01*
G01Y1695450D02*
X-552450D01*
X-590550Y1657350D01*
Y1606550D01*
X-603250Y1593850D01*
Y1534950D01*
G01X-615950Y1585750D02*
Y1593840D01*
X-596900Y1612890D01*
Y1663700D01*
X-552450Y1708150D01*
X-542000D01*
G01X-590550Y1585750D02*
Y1593850D01*
X-584200Y1600200D01*
Y1651000D01*
X-552450Y1682750D01*
X-542000D01*
G01X-571500Y546100D02*
Y463550D01*
G01X-558800Y495300D02*
Y463550D01*
G01X-546100Y546100D02*
Y463550D01*
G01X-548350Y647700D02*
X-558800D01*
X-577850Y628650D01*
Y590560D01*
X-571500Y584210D01*
Y576100D01*
G01X-548350Y635000D02*
X-558800D01*
X-571500Y622300D01*
Y596910D01*
X-558800Y584210D01*
Y525300D01*
G01X-548350Y622300D02*
X-558800D01*
X-565150Y615950D01*
Y603260D01*
X-546100Y584210D01*
Y576100D01*
G01X-577850Y1504950D02*
Y1473200D01*
G01X-565150Y1555750D02*
Y1473200D01*
G01X-552450Y1504950D02*
Y1473200D01*
G01X-539750Y1555750D02*
Y1473200D01*
G01X-542000Y1670050D02*
X-552450D01*
X-577850Y1644650D01*
Y1534950D01*
G01X-542000Y1644650D02*
X-552450D01*
X-565150Y1631950D01*
Y1606560D01*
X-552450Y1593860D01*
Y1534950D01*
G01X-542000Y1657350D02*
X-552450D01*
X-571500Y1638300D01*
Y1600210D01*
X-565150Y1593860D01*
Y1585750D01*
G01X-542000Y1631950D02*
X-552450D01*
X-558800Y1625600D01*
Y1612910D01*
X-539750Y1593860D01*
Y1585750D01*
G54D18*
X-804700Y82550D03*
X-774700D03*
X-803100Y171450D03*
X-773100D03*
X-654050Y247650D03*
X-674850Y260350D03*
X-704850D03*
X-654050Y273050D03*
X-674850Y285750D03*
X-704850D03*
X-654050Y298450D03*
X-674850Y311150D03*
X-704850D03*
X-654050Y323850D03*
X-674850Y336550D03*
X-704850D03*
X-668500Y1270000D03*
X-698500D03*
X-668500Y1295400D03*
X-698500D03*
X-668500Y1320800D03*
X-698500D03*
X-668500Y1346200D03*
X-698500D03*
X-624050Y247650D03*
Y273050D03*
Y298450D03*
Y323850D03*
X-617700Y1257300D03*
X-647700D03*
X-617700Y1282700D03*
X-647700D03*
X-617700Y1308100D03*
X-647700D03*
X-617700Y1333500D03*
X-647700D03*
X-528800Y25400D03*
X-558800D03*
X-557050Y57150D03*
X-527050D03*
G54D27*
X-488950Y-33300D03*
Y-10300D03*
Y12700D03*
G54D19*
X-740400Y146050D03*
Y171450D03*
Y196850D03*
X-653400D03*
Y171450D03*
Y146050D03*
G54D28*
X-469900Y109400D03*
Y152400D03*
X-196850Y203200D03*
Y160200D03*
Y261800D03*
Y363400D03*
Y304800D03*
Y406400D03*
Y508000D03*
Y465000D03*
Y566600D03*
Y668200D03*
Y609600D03*
Y711200D03*
Y812800D03*
Y769800D03*
Y871400D03*
Y914400D03*
Y1276350D03*
Y1233350D03*
Y1334950D03*
Y1377950D03*
Y1479550D03*
Y1436550D03*
Y1581150D03*
Y1538150D03*
Y1639750D03*
Y1682750D03*
Y1784350D03*
Y1741350D03*
Y1885950D03*
Y1842950D03*
Y1944550D03*
Y1987550D03*
G54D29*
X-133350Y152400D03*
Y1225550D03*
X-82550Y152400D03*
Y1225550D03*
M02*
