G04 ================== begin FILE IDENTIFICATION RECORD ==================*
G04 Layout Name:  E:/ORCAD_sch/K400/KPRM/KPRM_02v1/pcb/KPRM_02v1.brd*
G04 Film Name:    BOTTOM*
G04 File Format:  Gerber RS274X*
G04 File Origin:  Cadence Allegro 16.6-S002*
G04 Origin Date:  Thu Jan 31 16:30:59 2013*
G04 *
G04 Layer:  ETCH/BOTTOM*
G04 Layer:  PIN/BOTTOM*
G04 Layer:  VIA CLASS/BOTTOM*
G04 *
G04 Offset:    (0.000 0.000)*
G04 Mirror:    No*
G04 Mode:      Positive*
G04 Rotation:  0*
G04 FullContactRelief:  No*
G04 UndefLineWidth:     0.250*
G04 ================== end FILE IDENTIFICATION RECORD ====================*
%FSLAX34Y34*MOMM*%
%IR0*IPPOS*OFA0.00000B0.00000*MIA0B0*SFA1.00000B1.00000*%
%ADD11C,1.*%
%ADD10C,4.2*%
%ADD17C,5.2*%
%ADD16C,2.5*%
%ADD12C,1.55*%
%ADD14R,2.05X2.05*%
%ADD13R,1.55X1.55*%
%ADD15R,2.5X2.5*%
%ADD18C,.25*%
%ADD19C,.603*%
G75*
%LPD*%
G75*
G36*
G01X-381000Y-56200D02*
G02X-401000Y-76200I-19973J-27D01*
G01X-957900D01*
G02X-971890Y-70510I-28J19974D01*
G02X-972280Y-68200I1402J1425D01*
G01X-970310Y-64200D01*
X-969170Y-63600D01*
X-968520Y-63690D01*
G03X-972630Y-18570I3324J23050D01*
G01X-973090Y-18720D01*
X-974040Y-18580D01*
X-977070Y-16400D01*
G02X-977900Y-14770I1171J1623D01*
G01Y822490D01*
G02X-977070Y824120I2001J7D01*
G01X-974040Y826300D01*
X-973090Y826440D01*
X-972630Y826290D01*
G03Y870430I7430J22070D01*
G01X-973090Y870280D01*
X-974040Y870420D01*
X-977070Y872600D01*
G02X-977900Y874230I1171J1623D01*
G01Y2196150D01*
G02X-957900Y2216150I19973J27D01*
G01X-401000D01*
G02X-381000Y2196150I27J-19973D01*
G01Y2002430D01*
X-381990Y2001310D01*
X-382750Y2001210D01*
G03Y1973890I1750J-13660D01*
G01X-381990Y1973790D01*
X-381000Y1972670D01*
Y1952520D01*
G02X-383000Y1950520I-2000J0D01*
G01X-392770D01*
G03X-394770Y1948520I0J-2000D01*
G01X-395520Y1947770D01*
X-409070D01*
G03X-411070Y1945770I0J-2000D01*
G01Y143380D01*
G03X-409070Y141380I2000J0D01*
G01X-396770D01*
G02X-394770Y139380I0J-2000D01*
G01X-394020Y138630D01*
X-383000D01*
G02X-381000Y136630I0J-2000D01*
G01Y-56200D01*
G37*
%LPC*%
G75*
G36*
G01X-597390Y113380D02*
X-634510D01*
G03X-635700Y112990I-3J-2001D01*
G02Y128310I-5650J7660D01*
G03X-634510Y127920I1187J1611D01*
G01X-597390D01*
G03X-596200Y128310I3J2001D01*
G02Y112990I5650J-7660D01*
G03X-597390Y113380I-1187J-1611D01*
G37*
G36*
G01X-928030Y-3610D02*
X-951570D01*
G02X-953570Y-1610I0J2000D01*
G01Y22760D01*
X-952400Y23930D01*
X-952290D01*
X-951230Y26080D01*
G03X-951350Y28060I-1793J885D01*
G02X-949430Y45400I11550J7497D01*
G03X-948830Y46830I-1401J1429D01*
G01Y49690D01*
G03X-949430Y51120I-2001J1D01*
G02Y70800I9630J9840D01*
G03X-948830Y72230I-1401J1429D01*
G01Y75090D01*
G03X-949430Y76520I-2001J1D01*
G02Y96200I9630J9840D01*
G03X-948830Y97630I-1401J1429D01*
G01Y100490D01*
G03X-949430Y101920I-2001J1D01*
G02Y121600I9630J9840D01*
G03X-948830Y123030I-1401J1429D01*
G01Y125890D01*
G03X-949430Y127320I-2001J1D01*
G02Y147000I9630J9840D01*
G03X-948830Y148430I-1401J1429D01*
G01Y151290D01*
G03X-949430Y152720I-2001J1D01*
G02Y172400I9630J9840D01*
G03X-948830Y173830I-1401J1429D01*
G01Y176690D01*
G03X-949430Y178120I-2001J1D01*
G02Y197800I9630J9840D01*
G03X-948830Y199230I-1401J1429D01*
G01Y202090D01*
G03X-949430Y203520I-2001J1D01*
G02X-947120Y225030I9629J9845D01*
G01X-946680Y225300D01*
X-946180Y226200D01*
Y226720D01*
G03X-948180Y228720I-2000J0D01*
G01X-948670D01*
X-949840Y229890D01*
Y246800D01*
G02X-947840Y248800I2000J0D01*
G01X-947350D01*
X-946180Y249970D01*
Y251320D01*
X-946680Y252220D01*
X-947120Y252490D01*
G02X-949430Y274000I7319J11665D01*
G03X-948830Y275430I-1401J1429D01*
G01Y278290D01*
G03X-949430Y279720I-2001J1D01*
G02Y299400I9630J9840D01*
G03X-948830Y300830I-1401J1429D01*
G01Y303690D01*
G03X-949430Y305120I-2001J1D01*
G02Y324800I9630J9840D01*
G03X-948830Y326230I-1401J1429D01*
G01Y329090D01*
G03X-949430Y330520I-2001J1D01*
G02Y350200I9630J9840D01*
G03X-948830Y351630I-1401J1429D01*
G01Y354490D01*
G03X-949430Y355920I-2001J1D01*
G02Y375600I9630J9840D01*
G03X-948830Y377030I-1401J1429D01*
G01Y379890D01*
G03X-949430Y381320I-2001J1D01*
G02Y401000I9630J9840D01*
G03X-948830Y402430I-1401J1429D01*
G01Y405290D01*
G03X-949430Y406720I-2001J1D01*
G02Y426400I9630J9840D01*
G03X-948830Y427830I-1401J1429D01*
G01Y430690D01*
G03X-949430Y432120I-2001J1D01*
G02Y451800I9630J9840D01*
G03X-948830Y453230I-1401J1429D01*
G01Y456090D01*
G03X-949430Y457520I-2001J1D01*
G02X-951350Y474860I9630J9843D01*
G03X-951230Y476840I-1673J1095D01*
G01X-951740Y477870D01*
G03X-953530Y478990I-1795J-879D01*
G01X-953570D01*
Y505360D01*
X-952400Y506530D01*
X-952290D01*
X-951230Y508680D01*
G03X-951350Y510660I-1793J885D01*
G02X-949430Y528000I11550J7497D01*
G03X-948830Y529430I-1401J1429D01*
G01Y532290D01*
G03X-949430Y533720I-2001J1D01*
G02Y553400I9630J9840D01*
G03X-948830Y554830I-1401J1429D01*
G01Y557690D01*
G03X-949430Y559120I-2001J1D01*
G02Y578800I9630J9840D01*
G03X-948830Y580230I-1401J1429D01*
G01Y583090D01*
G03X-949430Y584520I-2001J1D01*
G02Y604200I9630J9840D01*
G03X-948830Y605630I-1401J1429D01*
G01Y608490D01*
G03X-949430Y609920I-2001J1D01*
G02Y629600I9630J9840D01*
G03X-948830Y631030I-1401J1429D01*
G01Y633890D01*
G03X-949430Y635320I-2001J1D01*
G02Y655000I9630J9840D01*
G03X-948830Y656430I-1401J1429D01*
G01Y659290D01*
G03X-949430Y660720I-2001J1D01*
G02Y680400I9630J9840D01*
G03X-948830Y681830I-1401J1429D01*
G01Y684690D01*
G03X-949430Y686120I-2001J1D01*
G02Y705800I9630J9840D01*
G03X-948830Y707230I-1401J1429D01*
G01Y710090D01*
G03X-949430Y711520I-2001J1D01*
G02X-951350Y728860I9630J9843D01*
G03X-951230Y730840I-1673J1095D01*
G01X-951740Y731870D01*
G03X-953530Y732990I-1795J-879D01*
G01X-953570D01*
Y758530D01*
G02X-951570Y760530I2000J0D01*
G01X-951030D01*
X-950100Y761080D01*
X-947880Y765150D01*
X-947920Y766230D01*
X-948230Y766700D01*
G02X-946570Y779570I8429J5455D01*
G01X-946230Y779890D01*
X-945890Y780760D01*
X-946250Y784860D01*
X-946740Y785660D01*
X-947140Y785910D01*
G02X-932460I7340J11650D01*
G01X-932860Y785660D01*
X-933350Y784860D01*
X-933710Y780760D01*
X-933370Y779890D01*
X-933030Y779570D01*
G02X-931370Y766700I-6769J-7415D01*
G01X-931680Y766230D01*
X-931720Y765150D01*
X-929770Y761570D01*
G03X-928010Y760530I1755J960D01*
G01X-927200D01*
X-926030Y759360D01*
Y735420D01*
G03X-924800Y733570I2000J-4D01*
G01X-924230Y733330D01*
X-923050Y733570D01*
X-917380Y739240D01*
G02X-915960Y739830I1418J-1410D01*
G01X-904770D01*
G03X-902770Y741830I0J2000D01*
G01Y758530D01*
G02X-900770Y760530I2000J0D01*
G01X-900230D01*
X-899300Y761080D01*
X-897080Y765150D01*
X-897120Y766230D01*
X-897430Y766700D01*
G02X-895770Y779570I8429J5455D01*
G01X-895430Y779890D01*
X-895090Y780760D01*
X-895450Y784860D01*
X-895940Y785660D01*
X-896340Y785910D01*
G02X-881660I7340J11650D01*
G01X-882060Y785660D01*
X-882550Y784860D01*
X-882910Y780760D01*
X-882570Y779890D01*
X-882230Y779570D01*
G02X-880570Y766700I-6769J-7415D01*
G01X-880880Y766230D01*
X-880920Y765150D01*
X-878970Y761570D01*
G03X-877210Y760530I1755J960D01*
G01X-876400D01*
X-875230Y759360D01*
Y744320D01*
G03X-874000Y742470I2000J-4D01*
G01X-873430Y742230D01*
X-872250Y742470D01*
X-869960Y744760D01*
G03X-869370Y746180I-1410J1418D01*
G01Y1697010D01*
G02X-868780Y1698430I2000J2D01*
G01X-841650Y1725560D01*
X-841340Y1726350D01*
X-841360Y1726770D01*
G02X-822350Y1727760I9508J430D01*
G01X-822320Y1727390D01*
X-822030Y1726730D01*
X-819620Y1724320D01*
X-818960Y1724030D01*
X-818590Y1724000D01*
G02X-809650Y1715060I-560J-9500D01*
G01X-809620Y1714690D01*
X-809330Y1714030D01*
X-806920Y1711620D01*
X-806260Y1711330D01*
X-805890Y1711300D01*
G02X-796950Y1702360I-560J-9500D01*
G01X-796920Y1701990D01*
X-796630Y1701330D01*
X-794220Y1698920D01*
X-793560Y1698630D01*
X-793190Y1698600D01*
G02X-794180Y1679590I-560J-9502D01*
G01X-794600Y1679610D01*
X-795390Y1679300D01*
X-798570Y1676120D01*
G03Y1673290I1413J-1415D01*
G01X-798180Y1672900D01*
X-797100Y1672630D01*
X-796570Y1672790D01*
G02X-784230Y1663920I2823J-9092D01*
G01X-784220Y1663530D01*
X-783920Y1662830D01*
X-781420Y1660330D01*
X-780720Y1660030D01*
X-780330Y1660020D01*
G02X-771050Y1651060I-223J-9517D01*
G01X-771020Y1650690D01*
X-770730Y1650030D01*
X-768320Y1647620D01*
X-767660Y1647330D01*
X-767290Y1647300D01*
G02X-758370Y1638690I-557J-9503D01*
G01X-758340Y1638340D01*
X-758040Y1637710D01*
X-755740Y1635410D01*
X-755110Y1635110D01*
X-754760Y1635080D01*
G02X-756080Y1616090I-880J-9480D01*
G01X-756500Y1616110D01*
X-757290Y1615800D01*
X-812790Y1560300D01*
G03X-813380Y1558880I1410J-1418D01*
G01Y608040D01*
G02X-813970Y606620I-2000J-2D01*
G01X-869510Y551080D01*
G02X-870930Y550490I-1418J1410D01*
G01X-871470D01*
G03X-873000Y549780I-2J-2000D01*
G01X-875260Y547110D01*
X-875490Y546270D01*
X-875420Y545830D01*
G02Y541290I-13580J-2270D01*
G01X-875490Y540850D01*
X-875260Y540010D01*
X-873000Y537340D01*
G03X-871470Y536630I1528J1290D01*
G01X-793150D01*
G03X-791730Y537220I2J2000D01*
G01X-787410Y541540D01*
G03X-786820Y542960I-1410J1418D01*
G01Y1337690D01*
G03X-787470Y1339170I-2000J4D01*
G02X-771550Y1346760I6418J7030D01*
G01X-771520Y1346390D01*
X-771230Y1345730D01*
X-768820Y1343320D01*
X-768160Y1343030D01*
X-767790Y1343000D01*
G02X-758850Y1334060I-560J-9500D01*
G01X-758820Y1333690D01*
X-758530Y1333030D01*
X-756120Y1330620D01*
X-755460Y1330330D01*
X-755090Y1330300D01*
G02X-746150Y1321360I-560J-9500D01*
G01X-746120Y1320990D01*
X-745830Y1320330D01*
X-743420Y1317920D01*
X-742760Y1317630D01*
X-742390Y1317600D01*
G02X-733450Y1308660I-560J-9500D01*
G01X-733420Y1308290D01*
X-733130Y1307630D01*
X-730720Y1305220D01*
X-730060Y1304930D01*
X-729690Y1304900D01*
G02X-720750Y1295960I-560J-9500D01*
G01X-720720Y1295590D01*
X-720430Y1294930D01*
X-718020Y1292520D01*
X-717360Y1292230D01*
X-716990Y1292200D01*
G02X-710790Y1275990I-558J-9504D01*
G03X-711370Y1274580I1417J-1407D01*
G01Y1271770D01*
G03X-710790Y1270360I1997J-3D01*
G02X-708050Y1264210I-6765J-6699D01*
G01X-708020Y1263840D01*
X-707730Y1263180D01*
X-705320Y1260770D01*
X-704660Y1260480D01*
X-704290Y1260450D01*
G02X-705280Y1241440I-560J-9502D01*
G01X-705700Y1241460D01*
X-706490Y1241150D01*
X-730240Y1217400D01*
G03X-730830Y1215980I1410J-1418D01*
G01Y493870D01*
G02X-731420Y492450I-2000J-2D01*
G01X-876350Y347520D01*
X-876580Y346330D01*
X-876330Y345760D01*
G02X-879370Y330520I-12669J-5396D01*
G03X-879970Y329090I1401J-1429D01*
G01Y326230D01*
G03X-879370Y324800I2001J-1D01*
G02Y305120I-9630J-9840D01*
G03X-879970Y303690I1401J-1429D01*
G01Y300830D01*
G03X-879370Y299400I2001J-1D01*
G02Y279720I-9630J-9840D01*
G03X-879970Y278290I1401J-1429D01*
G01Y275430D01*
G03X-879370Y274000I2001J-1D01*
G02X-881680Y252490I-9629J-9845D01*
G01X-882120Y252220D01*
X-882620Y251320D01*
Y250800D01*
G03X-880620Y248800I2000J0D01*
G01X-880130D01*
X-878960Y247630D01*
Y230720D01*
G02X-880960Y228720I-2000J0D01*
G01X-881450D01*
X-882620Y227550D01*
Y226200D01*
X-882120Y225300D01*
X-881680Y225030D01*
G02X-879370Y203520I-7319J-11665D01*
G03X-879970Y202090I1401J-1429D01*
G01Y199230D01*
G03X-879370Y197800I2001J-1D01*
G02Y178120I-9630J-9840D01*
G03X-879970Y176690I1401J-1429D01*
G01Y173830D01*
G03X-879370Y172400I2001J-1D01*
G02Y152720I-9630J-9840D01*
G03X-879970Y151290I1401J-1429D01*
G01Y148430D01*
G03X-879370Y147000I2001J-1D01*
G02Y127320I-9630J-9840D01*
G03X-879970Y125890I1401J-1429D01*
G01Y123030D01*
G03X-879370Y121600I2001J-1D01*
G02Y101920I-9630J-9840D01*
G03X-879970Y100490I1401J-1429D01*
G01Y97630D01*
G03X-879370Y96200I2001J-1D01*
G02Y76520I-9630J-9840D01*
G03X-879970Y75090I1401J-1429D01*
G01Y72230D01*
G03X-879370Y70800I2001J-1D01*
G02Y51120I-9630J-9840D01*
G03X-879970Y49690I1401J-1429D01*
G01Y46830D01*
G03X-879370Y45400I2001J-1D01*
G02X-877450Y28060I-9630J-9843D01*
G03X-877570Y26080I1673J-1095D01*
G01X-877060Y25050D01*
G03X-875270Y23930I1795J879D01*
G01X-875230D01*
Y-1610D01*
G02X-877230Y-3610I-2000J0D01*
G01X-900770D01*
G02X-902770Y-1610I0J2000D01*
G01Y22760D01*
X-901600Y23930D01*
X-901490D01*
X-900430Y26080D01*
G03X-900550Y28060I-1793J885D01*
G02X-898630Y45400I11550J7497D01*
G03X-898030Y46830I-1401J1429D01*
G01Y49690D01*
G03X-898630Y51120I-2001J1D01*
G02Y70800I9630J9840D01*
G03X-898030Y72230I-1401J1429D01*
G01Y75090D01*
G03X-898630Y76520I-2001J1D01*
G02Y96200I9630J9840D01*
G03X-898030Y97630I-1401J1429D01*
G01Y100490D01*
G03X-898630Y101920I-2001J1D01*
G02Y121600I9630J9840D01*
G03X-898030Y123030I-1401J1429D01*
G01Y125890D01*
G03X-898630Y127320I-2001J1D01*
G02Y147000I9630J9840D01*
G03X-898030Y148430I-1401J1429D01*
G01Y151290D01*
G03X-898630Y152720I-2001J1D01*
G02Y172400I9630J9840D01*
G03X-898030Y173830I-1401J1429D01*
G01Y176690D01*
G03X-898630Y178120I-2001J1D01*
G02Y197800I9630J9840D01*
G03X-898030Y199230I-1401J1429D01*
G01Y202090D01*
G03X-898630Y203520I-2001J1D01*
G02X-896320Y225030I9629J9845D01*
G01X-895880Y225300D01*
X-895380Y226200D01*
Y226720D01*
G03X-897380Y228720I-2000J0D01*
G01X-897870D01*
X-899040Y229890D01*
Y246800D01*
G02X-897040Y248800I2000J0D01*
G01X-896550D01*
X-895380Y249970D01*
Y251320D01*
X-895880Y252220D01*
X-896320Y252490D01*
G02X-898630Y274000I7319J11665D01*
G03X-898030Y275430I-1401J1429D01*
G01Y278290D01*
G03X-898630Y279720I-2001J1D01*
G02X-900980Y282780I9637J9833D01*
G03X-902720Y283790I-1739J-992D01*
G01X-926080D01*
G03X-927820Y282780I-1J-2002D01*
G02X-930170Y279720I-11987J6773D01*
G03X-930770Y278290I1401J-1429D01*
G01Y275430D01*
G03X-930170Y274000I2001J-1D01*
G02X-932480Y252490I-9629J-9845D01*
G01X-932920Y252220D01*
X-933420Y251320D01*
Y250800D01*
G03X-931420Y248800I2000J0D01*
G01X-930930D01*
X-929760Y247630D01*
Y230720D01*
G02X-931760Y228720I-2000J0D01*
G01X-932250D01*
X-933420Y227550D01*
Y226200D01*
X-932920Y225300D01*
X-932480Y225030D01*
G02X-930170Y203520I-7319J-11665D01*
G03X-930770Y202090I1401J-1429D01*
G01Y199230D01*
G03X-930170Y197800I2001J-1D01*
G02Y178120I-9630J-9840D01*
G03X-930770Y176690I1401J-1429D01*
G01Y173830D01*
G03X-930170Y172400I2001J-1D01*
G02Y152720I-9630J-9840D01*
G03X-930770Y151290I1401J-1429D01*
G01Y148430D01*
G03X-930170Y147000I2001J-1D01*
G02Y127320I-9630J-9840D01*
G03X-930770Y125890I1401J-1429D01*
G01Y123030D01*
G03X-930170Y121600I2001J-1D01*
G02Y101920I-9630J-9840D01*
G03X-930770Y100490I1401J-1429D01*
G01Y97630D01*
G03X-930170Y96200I2001J-1D01*
G02Y76520I-9630J-9840D01*
G03X-930770Y75090I1401J-1429D01*
G01Y72230D01*
G03X-930170Y70800I2001J-1D01*
G02Y51120I-9630J-9840D01*
G03X-930770Y49690I1401J-1429D01*
G01Y46830D01*
G03X-930170Y45400I2001J-1D01*
G02X-928250Y28060I-9630J-9843D01*
G03X-928370Y26080I1673J-1095D01*
G01X-927860Y25050D01*
G03X-926070Y23930I1795J879D01*
G01X-926030D01*
Y-1610D01*
G02X-928030Y-3610I-2000J0D01*
G37*
%LPD*%
G75*
G54D10*
X-965200Y-40640D03*
Y848360D03*
G54D11*
G01X-381000Y152400D02*
X-400050D01*
Y254000D01*
G01D02*
Y355600D01*
G01X-381000Y254000D02*
X-400050D01*
G01Y355600D02*
Y457200D01*
G01X-381000Y355600D02*
X-400050D01*
G01Y457200D02*
Y558800D01*
G01X-381000Y457200D02*
X-400050D01*
G01Y558800D02*
X-381000D01*
G01X-400050D02*
Y660400D01*
G01X-381000D02*
X-381010Y660390D01*
G01X-400050Y762000D02*
Y660400D01*
G01D02*
X-381000D01*
G01Y762000D02*
X-400050D01*
G01Y863600D02*
Y762000D01*
G01X-381000Y863600D02*
X-400050D01*
G01Y1225550D02*
Y863600D01*
G01X-381000Y1225550D02*
X-400050D01*
G01Y1327150D02*
Y1225550D01*
G01X-381000Y1327150D02*
X-400050D01*
G01Y1428750D02*
Y1327150D01*
G01X-381000Y1428750D02*
X-400050D01*
G01Y1530350D02*
Y1428750D01*
G01X-381000Y1530350D02*
X-400050D01*
G01Y1631950D02*
Y1530350D01*
G01X-381000Y1631950D02*
X-400050D01*
G01Y1733550D02*
Y1631950D01*
G01X-381000Y1733550D02*
X-400050D01*
G01Y1835150D02*
Y1733550D01*
G01X-381000Y1936750D02*
X-400050D01*
Y1835150D01*
G01X-381000D02*
X-400050D01*
G01X-196850Y152400D02*
X-279400D01*
G01X-196850Y195400D02*
X-217350D01*
X-234950Y177800D01*
X-292100D01*
X-304800Y165100D01*
Y152400D01*
G01X-196850Y254000D02*
X-279400D01*
G01X-196850Y297000D02*
X-217350D01*
X-234950Y279400D01*
X-292100D01*
X-304800Y266700D01*
Y254000D01*
G01X-196850Y355600D02*
X-279400D01*
G01X-196850Y398600D02*
X-217350D01*
X-234950Y381000D01*
X-292100D01*
X-304800Y368300D01*
Y355600D01*
G01X-196850Y457200D02*
X-279400D01*
G01X-196850Y500200D02*
X-217350D01*
X-234950Y482600D01*
X-292100D01*
X-304800Y469900D01*
Y457200D01*
G01X-196850Y558800D02*
X-279400D01*
G01X-196850Y601800D02*
X-217350D01*
X-234950Y584200D01*
X-292100D01*
X-304800Y571500D01*
Y558800D01*
G01X-196850Y660400D02*
X-279400D01*
G01X-196850Y703400D02*
X-217350D01*
X-234950Y685800D01*
X-292100D01*
X-304800Y673100D01*
Y660400D01*
G01X-196850Y762000D02*
X-279400D01*
G01X-196850Y805000D02*
X-217350D01*
X-234950Y787400D01*
X-292100D01*
X-304800Y774700D01*
Y762000D01*
G01X-196850Y863600D02*
X-279400D01*
G01X-196850Y906600D02*
X-217350D01*
X-234950Y889000D01*
X-292100D01*
X-304800Y876300D01*
Y863600D01*
G01X-196850Y1225550D02*
X-279400D01*
G01X-196850Y1268550D02*
X-217350D01*
X-234950Y1250950D01*
X-292100D01*
X-304800Y1238250D01*
Y1225550D01*
G01X-196850Y1327150D02*
X-279400D01*
G01X-196850Y1370150D02*
X-217350D01*
X-234950Y1352550D01*
X-292100D01*
X-304800Y1339850D01*
Y1327150D01*
G01X-196850Y1428750D02*
X-279400D01*
G01X-196850Y1471750D02*
X-217350D01*
X-234950Y1454150D01*
X-292100D01*
X-304800Y1441450D01*
Y1428750D01*
G01X-196850Y1530350D02*
X-279400D01*
G01X-196850Y1573350D02*
X-217350D01*
X-234950Y1555750D01*
X-292100D01*
X-304800Y1543050D01*
Y1530350D01*
G01X-196850Y1631950D02*
X-279400D01*
G01X-196850Y1674950D02*
X-217350D01*
X-234950Y1657350D01*
X-292100D01*
X-304800Y1644650D01*
Y1631950D01*
G01X-196850Y1733550D02*
X-279400D01*
G01X-196850Y1776550D02*
X-217350D01*
X-234950Y1758950D01*
X-292100D01*
X-304800Y1746250D01*
Y1733550D01*
G01X-196850Y1835150D02*
X-279400D01*
G01X-196850Y1878150D02*
X-217350D01*
X-234950Y1860550D01*
X-292100D01*
X-304800Y1847850D01*
Y1835150D01*
G01X-196850Y1936750D02*
X-279400D01*
G01X-196850Y1979750D02*
X-217350D01*
X-234950Y1962150D01*
X-292100D01*
X-304800Y1949450D01*
Y1936750D01*
G01X-133350Y152400D02*
X-196850D01*
G01X-82550D02*
X-107950Y177800D01*
X-158750D01*
X-176350Y195400D01*
X-196850D01*
G01X-133350Y254000D02*
X-196850D01*
G01X-133350Y355600D02*
X-196850D01*
G01X-82550Y254000D02*
X-107950Y279400D01*
X-158750D01*
X-176350Y297000D01*
X-196850D01*
G01X-82550Y355600D02*
X-107950Y381000D01*
X-158750D01*
X-176350Y398600D01*
X-196850D01*
G01X-133350Y457200D02*
X-196850D01*
G01X-82550D02*
X-107950Y482600D01*
X-158750D01*
X-176350Y500200D01*
X-196850D01*
G01X-133350Y558800D02*
X-196850D01*
G01X-133350Y660400D02*
X-196850D01*
G01X-82550Y558800D02*
X-107950Y584200D01*
X-158750D01*
X-176350Y601800D01*
X-196850D01*
G01X-82550Y660400D02*
X-107950Y685800D01*
X-158750D01*
X-176350Y703400D01*
X-196850D01*
G01X-133350Y762000D02*
X-196850D01*
G01X-82550D02*
X-107950Y787400D01*
X-158750D01*
X-176350Y805000D01*
X-196850D01*
G01X-133350Y863600D02*
X-196850D01*
G01X-82550D02*
X-107950Y889000D01*
X-158750D01*
X-176350Y906600D01*
X-196850D01*
G01X-133350Y1225550D02*
X-196850D01*
G01X-82550D02*
X-107950Y1250950D01*
X-158750D01*
X-176350Y1268550D01*
X-196850D01*
G01X-133350Y1327150D02*
X-196850D01*
G01X-82550D02*
X-107950Y1352550D01*
X-158750D01*
X-176350Y1370150D01*
X-196850D01*
G01X-133350Y1428750D02*
X-196850D01*
G01X-82550D02*
X-107950Y1454150D01*
X-158750D01*
X-176350Y1471750D01*
X-196850D01*
G01X-133350Y1530350D02*
X-196850D01*
G01X-82550D02*
X-107950Y1555750D01*
X-158750D01*
X-176350Y1573350D01*
X-196850D01*
G01X-133350Y1631950D02*
X-196850D01*
G01X-82550D02*
X-107950Y1657350D01*
X-158750D01*
X-176350Y1674950D01*
X-196850D01*
G01X-133350Y1733550D02*
X-196850D01*
G01X-82550D02*
X-107950Y1758950D01*
X-158750D01*
X-176350Y1776550D01*
X-196850D01*
G01X-133350Y1835150D02*
X-196850D01*
G01X-82550D02*
X-107950Y1860550D01*
X-158750D01*
X-176350Y1878150D01*
X-196850D01*
G01X-133350Y1936750D02*
X-196850D01*
G01X-82550D02*
X-107950Y1962150D01*
X-158750D01*
X-176350Y1979750D01*
X-196850D01*
X-967900Y14390D03*
Y114390D03*
Y214390D03*
Y314390D03*
Y414390D03*
Y514390D03*
Y614390D03*
Y714390D03*
Y915660D03*
Y1015660D03*
Y1115660D03*
Y1215660D03*
Y1315660D03*
Y1415660D03*
Y1515660D03*
Y1615660D03*
Y1715660D03*
Y1815660D03*
Y1915660D03*
Y2015660D03*
Y2115660D03*
X-942670Y-66200D03*
X-925330Y2206150D03*
X-842670Y-66200D03*
X-812800Y-6350D03*
X-869950Y-12700D03*
X-868310Y45070D03*
X-825500Y114300D03*
X-838200Y82550D03*
X-831850Y171450D03*
X-867650Y145070D03*
X-863600Y222250D03*
X-812800D03*
X-831850Y323850D03*
X-812080Y400470D03*
X-850900Y444500D03*
X-844550Y546100D03*
X-877370Y899820D03*
Y999820D03*
Y1099820D03*
Y1199820D03*
Y1299820D03*
Y1399820D03*
X-805380Y1477110D03*
X-877370Y1499820D03*
Y1599820D03*
X-831850Y1727200D03*
X-819150Y1714500D03*
X-806450Y1701800D03*
X-877370Y1699820D03*
X-867900Y1861250D03*
Y1961250D03*
X-836370Y2106150D03*
X-825330Y2206150D03*
X-742670Y-66200D03*
X-730250Y19050D03*
X-768350Y12700D03*
X-742950Y-12700D03*
X-755650Y101600D03*
X-774700Y196850D03*
Y146050D03*
Y266700D03*
Y438150D03*
X-746990Y385470D03*
X-741370Y471180D03*
X-793750Y546100D03*
X-800000Y666000D03*
X-793750Y596900D03*
X-800100Y812800D03*
Y781050D03*
Y876300D03*
Y977900D03*
Y1079500D03*
Y1181100D03*
Y1276350D03*
X-781050Y1346200D03*
X-768350Y1333500D03*
X-755650Y1320800D03*
X-742950Y1308100D03*
X-730250Y1295400D03*
Y1422400D03*
X-800100Y1377950D03*
X-786460Y1575310D03*
X-780550Y1650500D03*
X-767850Y1637800D03*
X-755650Y1625600D03*
X-793750Y1689100D03*
Y1663700D03*
X-780470Y1675130D03*
X-747960Y1740720D03*
X-771880Y1828240D03*
X-762220Y2006150D03*
X-736370Y2106150D03*
X-679450Y6350D03*
X-698500Y120650D03*
X-654000Y102000D03*
X-711200Y76200D03*
X-704850Y177800D03*
X-717550Y222260D03*
X-715530Y356030D03*
X-650590Y412050D03*
X-666750Y463550D03*
X-722830Y569450D03*
X-658770Y533700D03*
X-724000Y666000D03*
X-656020Y731320D03*
X-723900Y812800D03*
X-722830Y769450D03*
Y869450D03*
X-710480Y913080D03*
X-723900Y977900D03*
Y1079500D03*
Y1181100D03*
X-685210Y1238410D03*
X-717550Y1263650D03*
X-704850Y1250950D03*
X-717550Y1282700D03*
X-685510Y1369970D03*
X-660400Y1473200D03*
X-723900Y1530350D03*
X-652420Y1543350D03*
X-725990Y1611080D03*
X-721670Y1914740D03*
X-662220Y2006150D03*
X-725330Y2206150D03*
X-642670Y-66200D03*
X-641350Y-6350D03*
X-647700Y38100D03*
X-596900Y19050D03*
X-590550Y120650D03*
X-641350D03*
X-596900Y95250D03*
X-577850Y177800D03*
X-615950Y152400D03*
X-641350Y215900D03*
X-647700Y590550D03*
X-618000Y672000D03*
X-646600Y813080D03*
X-642200Y782040D03*
X-622830Y871130D03*
Y971130D03*
X-617170Y1062860D03*
Y1162860D03*
X-585340Y1243530D03*
X-612000Y1402000D03*
X-606740Y1431570D03*
X-647700Y1600200D03*
X-609600Y1682750D03*
X-647960Y1740590D03*
X-617570Y1816670D03*
Y1916670D03*
X-636370Y2106150D03*
X-625330Y2206150D03*
X-546000Y-66000D03*
X-552450Y6350D03*
X-530300Y3850D03*
X-546100Y133350D03*
X-571500Y228600D03*
X-529370Y316370D03*
X-499330Y335820D03*
X-552450Y431800D03*
X-534000Y486000D03*
X-517570Y589120D03*
X-556040Y729220D03*
X-546930Y821220D03*
X-542200Y782040D03*
X-517170Y916690D03*
Y1016690D03*
Y1116690D03*
Y1216690D03*
Y1316690D03*
X-508460Y1413070D03*
X-517570Y1489120D03*
Y1589120D03*
Y1789120D03*
X-547970Y1738870D03*
X-517570Y1889120D03*
Y1989120D03*
X-525330Y2206150D03*
X-495300Y177800D03*
X-429700Y169920D03*
X-494000Y252000D03*
X-452000Y250000D03*
X-438000Y280000D03*
X-485420Y452960D03*
Y552960D03*
X-469900Y698500D03*
X-464320Y769060D03*
X-427270Y861950D03*
X-486130Y915600D03*
Y1015600D03*
Y1115600D03*
Y1215600D03*
X-442000Y1320000D03*
X-424000Y1340000D03*
X-486130Y1315600D03*
X-472720Y1337250D03*
Y1437250D03*
Y1537250D03*
X-452000Y1670000D03*
Y1696000D03*
X-453200Y1770780D03*
X-439970Y1869900D03*
X-425450Y2000250D03*
X-491000Y2076060D03*
X-425330Y2206150D03*
X-417570Y215820D03*
Y315820D03*
X-422000Y368000D03*
X-417570Y415820D03*
X-420000Y672000D03*
X-419100Y749300D03*
X-417570Y915820D03*
Y1015820D03*
Y1115820D03*
Y1215820D03*
X-418000Y1284000D03*
Y1396000D03*
Y1638000D03*
Y1728000D03*
X-406400Y1962150D03*
X-391000Y2063480D03*
Y2163480D03*
G54D12*
X-889000Y60960D03*
Y35560D03*
X-939800Y60960D03*
Y35560D03*
X-889000Y137160D03*
Y111760D03*
Y86360D03*
X-939800Y137160D03*
Y111760D03*
Y86360D03*
X-889000Y213360D03*
Y187960D03*
Y162560D03*
X-939800Y213360D03*
Y187960D03*
Y162560D03*
X-889000Y289560D03*
Y264160D03*
X-939800Y289560D03*
Y264160D03*
X-889000Y365760D03*
Y340360D03*
Y314960D03*
X-939800Y365760D03*
Y340360D03*
Y314960D03*
X-889000Y441960D03*
Y416560D03*
Y391160D03*
X-939800Y441960D03*
Y416560D03*
Y391160D03*
X-889000Y518160D03*
Y467360D03*
X-939800Y518160D03*
Y467360D03*
X-889000Y594360D03*
Y568960D03*
Y543560D03*
X-939800Y594360D03*
Y568960D03*
Y543560D03*
X-889000Y670560D03*
Y645160D03*
Y619760D03*
X-939800Y670560D03*
Y645160D03*
Y619760D03*
X-889000Y721360D03*
Y695960D03*
X-939800Y721360D03*
Y695960D03*
X-889000Y797560D03*
Y772160D03*
X-939800Y797560D03*
Y772160D03*
X-381000Y203200D03*
Y304800D03*
Y406400D03*
Y508000D03*
Y609600D03*
Y711200D03*
Y812800D03*
Y914400D03*
Y1276350D03*
Y1377950D03*
Y1479550D03*
Y1581150D03*
Y1682750D03*
Y1784350D03*
Y1885950D03*
Y1987550D03*
X-330200Y203200D03*
X-304800D03*
X-279400D03*
Y152400D03*
X-304800D03*
X-330200D03*
X-279400Y254000D03*
X-304800D03*
X-330200D03*
X-279400Y355600D03*
X-304800D03*
X-330200D03*
Y304800D03*
X-304800D03*
X-279400D03*
X-330200Y406400D03*
X-304800D03*
X-279400D03*
X-330200Y508000D03*
X-304800D03*
X-279400D03*
Y457200D03*
X-304800D03*
X-330200D03*
X-279400Y558800D03*
X-304800D03*
X-330200D03*
X-279400Y660400D03*
X-304800D03*
X-330200D03*
Y609600D03*
X-304800D03*
X-279400D03*
X-330200Y711200D03*
X-304800D03*
X-279400D03*
X-330200Y812800D03*
X-304800D03*
X-279400D03*
Y762000D03*
X-304800D03*
X-330200D03*
X-279400Y863600D03*
X-304800D03*
X-330200D03*
Y914400D03*
X-304800D03*
X-279400D03*
X-330200Y1276350D03*
X-304800D03*
X-279400D03*
Y1225550D03*
X-304800D03*
X-330200D03*
X-279400Y1327150D03*
X-304800D03*
X-330200D03*
X-279400Y1428750D03*
X-304800D03*
X-330200D03*
Y1377950D03*
X-304800D03*
X-279400D03*
X-330200Y1479550D03*
X-304800D03*
X-279400D03*
X-330200Y1581150D03*
X-304800D03*
X-279400D03*
Y1530350D03*
X-304800D03*
X-330200D03*
X-279400Y1631950D03*
X-304800D03*
X-330200D03*
X-279400Y1733550D03*
X-304800D03*
X-330200D03*
Y1682750D03*
X-304800D03*
X-279400D03*
X-330200Y1784350D03*
X-304800D03*
X-279400D03*
X-330200Y1885950D03*
X-304800D03*
X-279400D03*
Y1835150D03*
X-304800D03*
X-330200D03*
X-279400Y1936750D03*
X-304800D03*
X-330200D03*
Y1987550D03*
X-304800D03*
X-279400D03*
G54D13*
X-889000Y10160D03*
X-939800D03*
X-889000Y238760D03*
X-939800D03*
X-889000Y492760D03*
X-939800D03*
X-889000Y746760D03*
X-939800D03*
X-381000Y152400D03*
Y254000D03*
Y355600D03*
Y457200D03*
Y558800D03*
Y660400D03*
Y762000D03*
Y863600D03*
Y1225550D03*
Y1327150D03*
Y1428750D03*
Y1530350D03*
Y1631950D03*
Y1733550D03*
Y1835150D03*
Y1936750D03*
G54D14*
X-196850Y195400D03*
Y152400D03*
Y254000D03*
Y355600D03*
Y297000D03*
Y398600D03*
Y500200D03*
Y457200D03*
Y558800D03*
Y660400D03*
Y601800D03*
Y703400D03*
Y805000D03*
Y762000D03*
Y863600D03*
Y906600D03*
Y1268550D03*
Y1225550D03*
Y1327150D03*
Y1428750D03*
Y1370150D03*
Y1471750D03*
Y1573350D03*
Y1530350D03*
Y1631950D03*
Y1733550D03*
Y1674950D03*
Y1776550D03*
Y1878150D03*
Y1835150D03*
Y1936750D03*
Y1979750D03*
G54D15*
X-133350Y152400D03*
Y1225550D03*
X-82550Y152400D03*
Y1225550D03*
G54D16*
X-133350Y203200D03*
Y254000D03*
Y355600D03*
Y304800D03*
Y406400D03*
Y508000D03*
Y457200D03*
Y558800D03*
Y660400D03*
Y609600D03*
Y711200D03*
Y812800D03*
Y762000D03*
Y863600D03*
Y914400D03*
Y1276350D03*
Y1327150D03*
Y1428750D03*
Y1377950D03*
Y1479550D03*
Y1581150D03*
Y1530350D03*
Y1631950D03*
Y1733550D03*
Y1682750D03*
Y1784350D03*
Y1885950D03*
Y1835150D03*
Y1936750D03*
Y1987550D03*
X-82550Y203200D03*
Y254000D03*
Y355600D03*
Y304800D03*
Y406400D03*
Y508000D03*
Y457200D03*
Y558800D03*
Y660400D03*
Y609600D03*
Y711200D03*
Y812800D03*
Y762000D03*
Y863600D03*
Y914400D03*
Y1276350D03*
Y1327150D03*
Y1428750D03*
Y1377950D03*
Y1479550D03*
Y1581150D03*
Y1530350D03*
Y1631950D03*
Y1733550D03*
Y1682750D03*
Y1784350D03*
Y1885950D03*
Y1835150D03*
Y1936750D03*
Y1987550D03*
G54D17*
X0Y-2540D03*
Y1070610D03*
Y2180590D03*
G54D18*
G01X-939800Y314960D02*
X-889000D01*
G01X-704850Y1250950D02*
X-736600Y1219200D01*
Y495430D01*
X-878970Y353060D01*
X-914400D01*
X-927100Y340360D01*
X-939800D01*
G01Y289560D02*
X-889000D01*
G01X-730250Y1295400D02*
X-755650Y1270000D01*
Y514480D01*
X-840870Y429260D01*
X-914400D01*
X-927100Y416560D01*
X-939800D01*
G01X-717550Y1282700D02*
X-749300Y1250950D01*
Y508110D01*
X-853550Y403860D01*
X-914400D01*
X-927100Y391160D01*
X-939800D01*
G01X-717550Y1263650D02*
X-742950Y1238250D01*
Y501760D01*
X-866250Y378460D01*
X-914400D01*
X-927100Y365760D01*
X-939800D01*
G01Y492760D02*
X-927100D01*
X-914400Y505460D01*
X-802730D01*
X-774700Y533490D01*
Y1327150D01*
X-768350Y1333500D01*
G01X-755650Y1320800D02*
X-768350Y1308100D01*
Y527150D01*
X-815440Y480060D01*
X-914400D01*
X-927100Y467360D01*
X-939800D01*
G01X-742950Y1308100D02*
X-762000Y1289050D01*
Y520830D01*
X-828170Y454660D01*
X-914400D01*
X-927100Y441960D01*
X-939800D01*
G01X-767850Y1637800D02*
X-825500Y1580150D01*
Y628650D01*
X-872490Y581660D01*
X-914400D01*
X-927100Y568960D01*
X-939800D01*
G01Y543560D02*
X-927100D01*
X-914400Y556260D01*
X-872490D01*
X-819150Y609600D01*
Y1562100D01*
X-755650Y1625600D01*
G01X-781050Y1346200D02*
Y539740D01*
X-789930Y530860D01*
X-914400D01*
X-927100Y518160D01*
X-939800D01*
G01Y645160D02*
X-927100D01*
X-914400Y657860D01*
X-872510D01*
X-844550Y685820D01*
Y1638300D01*
X-793750Y1689100D01*
G01Y1663700D02*
X-838200Y1619250D01*
Y666750D01*
X-872490Y632460D01*
X-914400D01*
X-927100Y619760D01*
X-939800D01*
G01Y594360D02*
X-927100D01*
X-914400Y607060D01*
X-872510D01*
X-831850Y647720D01*
Y1600200D01*
X-781550Y1650500D01*
X-780550D01*
G01X-831850Y1727200D02*
X-863600Y1695450D01*
Y742960D01*
X-872500Y734060D01*
X-914400D01*
X-927100Y721360D01*
X-939800D01*
G01Y695960D02*
X-927100D01*
X-914400Y708660D01*
X-872490D01*
X-857250Y723900D01*
Y1676400D01*
X-819150Y1714500D01*
G01X-806450Y1701800D02*
X-850900Y1657350D01*
Y704850D01*
X-872490Y683260D01*
X-914400D01*
X-927100Y670560D01*
X-939800D01*
G01X-641350Y120650D02*
X-590550D01*
G54D19*
G01X-965200Y-65930D02*
Y-40640D01*
G01D02*
Y-15350D01*
G01Y-40640D02*
X-939910D01*
G01X-965200D02*
X-945320Y-20760D01*
G01X-965200Y823070D02*
Y848360D01*
G01D02*
Y873650D01*
G01Y848360D02*
X-939910D01*
G01X-965200D02*
X-945320Y868240D01*
G01X-951840Y238760D02*
X-939800D01*
G01D02*
X-927760D01*
G01X-951840Y226720D02*
X-939800Y238760D01*
G01D02*
X-927760Y250800D01*
G01X-901040Y238760D02*
X-889000D01*
G01D02*
X-876960D01*
G01X-901040Y226720D02*
X-889000Y238760D01*
G01D02*
X-876960Y250800D01*
G01X-951840Y772160D02*
X-939800D01*
G01D02*
X-927760D01*
G01X-950310Y761650D02*
X-939800Y772160D01*
G01D02*
X-929290Y782670D01*
G01X-901040Y772160D02*
X-889000D01*
G01D02*
X-876960D01*
G01X-899510Y761650D02*
X-889000Y772160D01*
G01D02*
X-878490Y782670D01*
M02*
