G04 ================== begin FILE IDENTIFICATION RECORD ==================*
G04 Layout Name:  E:/ORCAD_sch/K400/KPRM/KPRM_02v1/pcb/KPRM_02v1.brd*
G04 Film Name:    TOP*
G04 File Format:  Gerber RS274X*
G04 File Origin:  Cadence Allegro 16.6-S002*
G04 Origin Date:  Thu Jan 31 16:30:59 2013*
G04 *
G04 Layer:  ETCH/TOP*
G04 Layer:  PIN/TOP*
G04 Layer:  VIA CLASS/TOP*
G04 *
G04 Offset:    (0.000 0.000)*
G04 Mirror:    No*
G04 Mode:      Positive*
G04 Rotation:  0*
G04 FullContactRelief:  No*
G04 UndefLineWidth:     0.250*
G04 ================== end FILE IDENTIFICATION RECORD ====================*
%FSLAX34Y34*MOMM*%
%IR0*IPPOS*OFA0.00000B0.00000*MIA0B0*SFA1.00000B1.00000*%
%ADD23R,.6X2.*%
%ADD24R,2.X.6*%
%ADD11C,1.*%
%ADD10C,4.2*%
%ADD31C,5.2*%
%ADD30C,2.5*%
%ADD16R,1.55X.6*%
%ADD12C,1.55*%
%ADD28R,2.05X2.05*%
%ADD21R,1.15X1.15*%
%ADD27R,1.9X.95*%
%ADD13R,1.55X1.55*%
%ADD20R,1.1X1.4*%
%ADD17R,1.4X1.1*%
%ADD14R,2.7X1.1*%
%ADD19O,2.X1.75*%
%ADD22R,1.15X1.05*%
%ADD18R,1.X1.75*%
%ADD29R,2.5X2.5*%
%ADD26R,1.9X3.2*%
%ADD15R,1.75X1.*%
%ADD25R,1.25X1.8*%
%ADD32C,.4*%
%ADD33C,.5*%
%ADD34C,.6*%
%ADD35C,.25*%
%ADD36C,.8*%
%ADD37C,.603*%
G75*
%LPD*%
G75*
G36*
G01X-957900Y-76200D02*
G02X-970220Y-71970I-28J19974D01*
G02X-970850Y-69650I1227J1579D01*
G01X-969200Y-65470D01*
X-968060Y-64770D01*
X-967400Y-64830D01*
G03X-972670Y-17530I2203J24189D01*
G01X-973130Y-17680D01*
X-974070Y-17530D01*
X-977080Y-15340D01*
G02X-977900Y-13720I1181J1615D01*
G01Y821440D01*
G02X-977080Y823060I2001J5D01*
G01X-974070Y825250D01*
X-973130Y825400D01*
X-972670Y825250D01*
G03Y871470I7470J23110D01*
G01X-973130Y871320D01*
X-974070Y871470D01*
X-977080Y873660D01*
G02X-977900Y875280I1181J1615D01*
G01Y2196150D01*
G02X-957900Y2216150I19973J27D01*
G01X-401000D01*
G02X-381000Y2196150I27J-19973D01*
G01Y2003440D01*
X-382000Y2002310D01*
X-382760Y2002210D01*
G03X-393450Y1995490I1760J-14662D01*
G02X-395140Y1994570I-1684J1081D01*
G01X-408480D01*
G03X-409890Y1993980I8J-1998D01*
G01X-431880Y1971990D01*
G03X-432470Y1970580I1408J-1418D01*
G01Y1781740D01*
G02X-433060Y1780320I-1999J-2D01*
G01X-484920Y1728460D01*
G02X-486340Y1727870I-1418J1409D01*
G01X-522980D01*
G02X-524980Y1729870I0J2000D01*
G01X-525980Y1730870D01*
X-557020D01*
G03X-559020Y1728870I0J-2000D01*
G01Y1723980D01*
G02X-559610Y1722560I-1999J-2D01*
G01X-608930Y1673230D01*
G03X-609520Y1671820I1408J-1418D01*
G01Y1622680D01*
G02X-610110Y1621260I-1999J-2D01*
G01X-618300Y1613070D01*
G02X-620480Y1612640I-1412J1415D01*
G01X-621040Y1612870D01*
X-621710Y1613870D01*
Y1619930D01*
G02X-619710Y1621930I2000J0D01*
G01X-619150D01*
X-617980Y1623100D01*
Y1728870D01*
G03X-619980Y1730870I-2000J0D01*
G01X-648730D01*
G02X-650150Y1731460I-2J2000D01*
G01X-651070Y1732380D01*
G03X-652490Y1732970I-1418J-1410D01*
G01X-652560D01*
X-653730Y1734140D01*
Y1737970D01*
G03X-655730Y1739970I-2000J0D01*
G01X-677270D01*
G03X-679270Y1737970I0J-2000D01*
G01Y1613830D01*
G03X-677270Y1611830I2000J0D01*
G01X-655730D01*
G03X-653730Y1613830I0J2000D01*
G01Y1617830D01*
G02X-651730Y1619830I2000J0D01*
G01X-651660D01*
X-651270Y1620220D01*
X-650090Y1620460D01*
X-649520Y1620220D01*
G02X-648290Y1618370I-770J-1846D01*
G01Y1614960D01*
G03X-646290Y1612960I2000J0D01*
G01X-623230D01*
G02X-621390Y1611730I-5J-1999D01*
G01X-621150Y1611160D01*
X-621380Y1609980D01*
X-634330Y1597030D01*
G03X-634920Y1595620I1408J-1418D01*
G01Y1548970D01*
G02X-636920Y1546970I-2000J0D01*
G01X-642420D01*
G03X-644420Y1544970I0J-2000D01*
G01Y1524930D01*
G03X-642420Y1522930I2000J0D01*
G01X-624220D01*
G02X-622220Y1520930I0J-2000D01*
G01Y1518970D01*
G02X-624220Y1516970I-2000J0D01*
G01X-642420D01*
G03X-644420Y1514970I0J-2000D01*
G01Y1494930D01*
G03X-642420Y1492930I2000J0D01*
G01X-640670D01*
G02X-638670Y1490930I0J-2000D01*
G01Y1488490D01*
G02X-640670Y1486490I-2000J0D01*
G01X-645640D01*
G03X-647640Y1484490I0J-2000D01*
G01Y1461910D01*
G03X-645640Y1459910I2000J0D01*
G01X-640670D01*
G02X-638670Y1457910I0J-2000D01*
G01Y1457350D01*
X-637500Y1456180D01*
X-531730D01*
G03X-529730Y1458180I0J2000D01*
G01Y1488220D01*
G03X-531730Y1490220I-2000J0D01*
G01X-532310D01*
X-533480Y1491390D01*
Y1541730D01*
G02X-531480Y1543730I2000J0D01*
G01X-525980D01*
G03X-523980Y1545730I0J2000D01*
G01Y1565770D01*
G03X-525980Y1567770I-2000J0D01*
G01X-544180D01*
G02X-546180Y1569770I0J2000D01*
G01Y1571730D01*
G02X-544180Y1573730I2000J0D01*
G01X-525980D01*
G03X-523980Y1575730I0J2000D01*
G01Y1595770D01*
G03X-525980Y1597770I-2000J0D01*
G01X-533960D01*
G02X-535380Y1598360I-2J1999D01*
G01X-542840Y1605820D01*
G02X-543270Y1608000I1415J1412D01*
G01X-543040Y1608560D01*
X-542040Y1609230D01*
X-525980D01*
X-525570Y1609640D01*
G02X-524150Y1610230I1418J-1410D01*
G01X-506210D01*
G02X-504800Y1609640I-8J-1999D01*
G01X-466810Y1571650D01*
G02X-466220Y1570240I-1409J-1418D01*
G01Y1298840D01*
G03X-465630Y1297430I1999J8D01*
G01X-396360Y1228150D01*
G02X-395770Y1226740I-1409J-1418D01*
G01Y1212780D01*
G03X-393770Y1210780I2000J0D01*
G01X-383000D01*
G02X-381000Y1208780I0J-2000D01*
G01Y930290D01*
X-382000Y929160D01*
X-382760Y929060D01*
G03X-395420Y911210I1760J-14663D01*
G01X-395310Y910710D01*
X-395600Y909730D01*
X-419180Y886140D01*
G03X-419770Y884730I1408J-1418D01*
G01Y803840D01*
G02X-420360Y802420I-1999J-2D01*
G01X-503970Y718810D01*
G02X-505390Y718220I-1418J1409D01*
G01X-529330D01*
G02X-531330Y720220I0J2000D01*
G01X-532330Y721220D01*
X-563370D01*
G03X-565370Y719220I0J-2000D01*
G01Y714330D01*
G02X-565960Y712910I-1999J-2D01*
G01X-615280Y663580D01*
G03X-615870Y662170I1408J-1418D01*
G01Y613030D01*
G02X-616460Y611610I-1999J-2D01*
G01X-624650Y603420D01*
G02X-626830Y602990I-1412J1415D01*
G01X-627390Y603220D01*
X-628060Y604220D01*
Y610280D01*
G02X-626060Y612280I2000J0D01*
G01X-625500D01*
X-624330Y613450D01*
Y719220D01*
G03X-626330Y721220I-2000J0D01*
G01X-655080D01*
G02X-656500Y721810I-2J2000D01*
G01X-657420Y722730D01*
G03X-658840Y723320I-1418J-1410D01*
G01X-658910D01*
X-660080Y724490D01*
Y728320D01*
G03X-662080Y730320I-2000J0D01*
G01X-683620D01*
G03X-685620Y728320I0J-2000D01*
G01Y604180D01*
G03X-683620Y602180I2000J0D01*
G01X-662080D01*
G03X-660080Y604180I0J2000D01*
G01Y608180D01*
G02X-658080Y610180I2000J0D01*
G01X-658010D01*
X-657620Y610570D01*
X-656440Y610810D01*
X-655870Y610570D01*
G02X-654640Y608720I-770J-1846D01*
G01Y605310D01*
G03X-652640Y603310I2000J0D01*
G01X-629580D01*
G02X-627740Y602080I-5J-1999D01*
G01X-627500Y601510D01*
X-627730Y600330D01*
X-640680Y587380D01*
G03X-641270Y585970I1408J-1418D01*
G01Y539320D01*
G02X-643270Y537320I-2000J0D01*
G01X-648770D01*
G03X-650770Y535320I0J-2000D01*
G01Y515280D01*
G03X-648770Y513280I2000J0D01*
G01X-630570D01*
G02X-628570Y511280I0J-2000D01*
G01Y509320D01*
G02X-630570Y507320I-2000J0D01*
G01X-648770D01*
G03X-650770Y505320I0J-2000D01*
G01Y485280D01*
G03X-648770Y483280I2000J0D01*
G01X-647020D01*
G02X-645020Y481280I0J-2000D01*
G01Y478840D01*
G02X-647020Y476840I-2000J0D01*
G01X-651990D01*
G03X-653990Y474840I0J-2000D01*
G01Y452260D01*
G03X-651990Y450260I2000J0D01*
G01X-647020D01*
G02X-645020Y448260I0J-2000D01*
G01Y447700D01*
X-643850Y446530D01*
X-538080D01*
G03X-536080Y448530I0J2000D01*
G01Y478570D01*
G03X-538080Y480570I-2000J0D01*
G01X-538660D01*
X-539830Y481740D01*
Y532080D01*
G02X-537830Y534080I2000J0D01*
G01X-532330D01*
G03X-530330Y536080I0J2000D01*
G01Y556120D01*
G03X-532330Y558120I-2000J0D01*
G01X-550530D01*
G02X-552530Y560120I0J2000D01*
G01Y562080D01*
G02X-550530Y564080I2000J0D01*
G01X-532330D01*
G03X-530330Y566080I0J2000D01*
G01Y586120D01*
G03X-532330Y588120I-2000J0D01*
G01X-540310D01*
G02X-541730Y588710I-2J1999D01*
G01X-549190Y596170D01*
G02X-549620Y598350I1415J1412D01*
G01X-549390Y598910D01*
X-548390Y599580D01*
X-532330D01*
X-531920Y599990D01*
G02X-530500Y600580I1418J-1410D01*
G01X-493510D01*
G02X-492100Y599990I-8J-1999D01*
G01X-479510Y587400D01*
G02X-478920Y585990I-1409J-1418D01*
G01Y238390D01*
G03X-478330Y236980I1999J8D01*
G01X-408190Y166830D01*
G02X-407760Y164650I-1414J-1411D01*
G01X-407990Y164090D01*
X-408990Y163420D01*
X-450630D01*
G02X-452630Y165420I0J2000D01*
G01Y167670D01*
G03X-454630Y169670I-2000J0D01*
G01X-485170D01*
G03X-487170Y167670I0J-2000D01*
G01Y165420D01*
G02X-489170Y163420I-2000J0D01*
G01X-585160D01*
G02X-586570Y164010I8J1999D01*
G01X-604450Y181880D01*
G03X-605860Y182470I-1418J-1409D01*
G01X-638080D01*
G02X-639920Y183690I2J2001D01*
G01X-640340Y184690D01*
G02X-640040Y186750I1840J784D01*
G03X-639440Y187510I-12072J10148D01*
G02X-637830Y188330I1614J-1179D01*
G01X-562450D01*
G03X-561040Y188920I-8J1998D01*
G01X-506420Y243540D01*
G03X-505830Y244950I-1408J1418D01*
G01Y390050D01*
G03X-506420Y391460I-1998J-8D01*
G01X-529290Y414330D01*
G03X-530700Y414920I-1418J-1408D01*
G01X-637700D01*
G03X-639110Y414330I8J-1998D01*
G01X-655630Y397810D01*
G03X-656220Y396400I1408J-1418D01*
G01Y388740D01*
X-657390Y387570D01*
X-657720D01*
Y355530D01*
G03X-655720Y353530I2000J0D01*
G01X-650060D01*
G02X-648210Y352300I4J-2000D01*
G01X-647970Y351730D01*
X-648210Y350550D01*
X-655850Y342910D01*
G02X-657270Y342320I-1418J1410D01*
G01X-660830D01*
G02X-662830Y344320I0J2000D01*
G01Y350320D01*
G03X-664830Y352320I-2000J0D01*
G01X-684870D01*
G03X-686870Y350320I0J-2000D01*
G01Y331620D01*
G02X-688870Y329620I-2000J0D01*
G01X-690830D01*
G02X-692830Y331620I0J2000D01*
G01Y350320D01*
G03X-694830Y352320I-2000J0D01*
G01X-714870D01*
G03X-716870Y350320I0J-2000D01*
G01Y348860D01*
G02X-718100Y347010I-2000J-4D01*
G01X-718670Y346770D01*
X-719850Y347010D01*
X-768340Y395500D01*
G02X-768930Y396920I1410J1418D01*
G01Y420660D01*
G03X-769520Y422080I-2000J2D01*
G01X-870780Y523340D01*
G03X-872200Y523930I-1418J-1410D01*
G01X-874700D01*
X-875650Y524510D01*
X-875910Y525000D01*
G03X-878120Y528150I-13093J-6836D01*
G01X-878380Y528430D01*
X-878650Y529130D01*
Y532590D01*
X-878380Y533290D01*
X-878120Y533570D01*
G03X-875910Y536720I-10883J9986D01*
G01X-875650Y537210D01*
X-874700Y537790D01*
X-864580D01*
G03X-863160Y538380I2J2000D01*
G01X-791950Y609590D01*
G02X-790530Y610180I1418J-1410D01*
G01X-719620D01*
G02X-717620Y608180I0J-2000D01*
G01Y604180D01*
G03X-715620Y602180I2000J0D01*
G01X-694080D01*
G03X-692080Y604180I0J2000D01*
G01Y728320D01*
G03X-694080Y730320I-2000J0D01*
G01X-715620D01*
G03X-717620Y728320I0J-2000D01*
G01Y725320D01*
G02X-719620Y723320I-2000J0D01*
G01X-873400D01*
X-874480Y724180D01*
X-874650Y724850D01*
G03X-875830Y728040I-14349J-3495D01*
G02X-875790Y729930I1784J908D01*
G01X-874620Y731990D01*
X-874230D01*
Y759530D01*
G03X-876230Y761530I-2000J0D01*
G01X-876610D01*
X-879270Y765800D01*
X-879320Y766830D01*
X-879090Y767290D01*
G03X-880900Y779660I-9909J4867D01*
G01X-881200Y779980D01*
X-881460Y780780D01*
X-881090Y784630D01*
X-880670Y785350D01*
X-880320Y785610D01*
G03X-877870Y787850I-8678J11952D01*
G02X-876360Y788540I1511J-1310D01*
G01X-545730D01*
G03X-544320Y789130I-8J1999D01*
G01X-493220Y840230D01*
G03X-492630Y841640I-1409J1418D01*
G01Y1387210D01*
G03X-493220Y1388620I-1999J-8D01*
G01X-529080Y1424480D01*
G03X-530490Y1425070I-1418J-1409D01*
G01X-625210D01*
G03X-626620Y1424480I8J-1999D01*
G01X-649780Y1401320D01*
G03X-650370Y1399910I1409J-1418D01*
G01Y1398220D01*
X-650780Y1397810D01*
G03X-651370Y1396390I1410J-1418D01*
G01Y1365180D01*
G03X-649370Y1363180I2000J0D01*
G01X-643710D01*
G02X-641860Y1361950I4J-2000D01*
G01X-641620Y1361380D01*
X-641860Y1360200D01*
X-649500Y1352560D01*
G02X-650920Y1351970I-1418J1410D01*
G01X-654480D01*
G02X-656480Y1353970I0J2000D01*
G01Y1359970D01*
G03X-658480Y1361970I-2000J0D01*
G01X-678520D01*
G03X-680520Y1359970I0J-2000D01*
G01Y1341270D01*
G02X-682520Y1339270I-2000J0D01*
G01X-684480D01*
G02X-686480Y1341270I0J2000D01*
G01Y1359970D01*
G03X-688480Y1361970I-2000J0D01*
G01X-708520D01*
G03X-710520Y1359970I0J-2000D01*
G01Y1353970D01*
G02X-712520Y1351970I-2000J0D01*
G01X-772540D01*
G02X-774020Y1352620I-4J2000D01*
G03X-781610Y1336700I-7030J-6418D01*
G01X-781240Y1336670D01*
X-780580Y1336380D01*
X-778170Y1333970D01*
X-777880Y1333310D01*
X-777850Y1332940D01*
G03X-768910Y1324000I9500J560D01*
G01X-768540Y1323970D01*
X-767880Y1323680D01*
X-765470Y1321270D01*
X-765180Y1320610D01*
X-765150Y1320240D01*
G03X-756210Y1311300I9500J560D01*
G01X-755840Y1311270D01*
X-755180Y1310980D01*
X-752770Y1308570D01*
X-752480Y1307910D01*
X-752450Y1307540D01*
G03X-743510Y1298600I9500J560D01*
G01X-743140Y1298570D01*
X-742480Y1298280D01*
X-740070Y1295870D01*
X-739780Y1295210D01*
X-739750Y1294840D01*
G03X-730810Y1285900I9500J560D01*
G01X-730440Y1285870D01*
X-729780Y1285580D01*
X-727370Y1283170D01*
X-727080Y1282510D01*
X-727050Y1282140D01*
G03X-724310Y1275990I9505J549D01*
G02X-723730Y1274580I-1417J-1407D01*
G01Y1271770D01*
G02X-724310Y1270360I-1997J-3D01*
G03X-718110Y1254150I6758J-6706D01*
G01X-717740Y1254120D01*
X-717080Y1253830D01*
X-714670Y1251420D01*
X-714380Y1250760D01*
X-714350Y1250390D01*
G03X-697820Y1244530I9502J561D01*
G02X-696340Y1245180I1476J-1350D01*
G01X-690590D01*
G03X-689170Y1245770I2J2000D01*
G01X-684000Y1250940D01*
G02X-682580Y1251530I1418J-1410D01*
G01X-661720D01*
G02X-659720Y1249530I0J-2000D01*
G01Y1243530D01*
G03X-657720Y1241530I2000J0D01*
G01X-637680D01*
G03X-635680Y1243530I0J2000D01*
G01Y1262230D01*
G02X-633680Y1264230I2000J0D01*
G01X-631720D01*
G02X-629720Y1262230I0J-2000D01*
G01Y1243530D01*
G03X-627720Y1241530I2000J0D01*
G01X-607680D01*
G03X-605680Y1243530I0J2000D01*
G01Y1249530D01*
G02X-603680Y1251530I2000J0D01*
G01X-569940D01*
G03X-568520Y1252120I2J2000D01*
G01X-534570Y1286070D01*
G03X-533980Y1287490I-1410J1418D01*
G01Y1361180D01*
G02X-531980Y1363180I2000J0D01*
G01X-531730D01*
G03X-529730Y1365180I0J2000D01*
G01Y1394800D01*
G02X-528500Y1396650I2002J3D01*
G01X-527930Y1396880D01*
X-526750Y1396650D01*
X-511260Y1381150D01*
G02X-510670Y1379740I-1409J-1418D01*
G01Y849110D01*
G02X-511260Y847700I-1999J8D01*
G01X-551790Y807170D01*
G02X-553200Y806580I-1418J1409D01*
G01X-876360D01*
G02X-877870Y807270I1J2000D01*
G03X-877980Y807390I-10940J-9918D01*
G01Y820880D01*
G02X-875980Y822880I2000J0D01*
G01X-870480D01*
G03X-868480Y824880I0J2000D01*
G01Y845920D01*
G03X-870480Y847920I-2000J0D01*
G01X-907520D01*
G03X-909520Y845920I0J-2000D01*
G01Y824880D01*
G03X-907520Y822880I2000J0D01*
G01X-902020D01*
G02X-900020Y820880I0J-2000D01*
G01Y810580D01*
G02X-902020Y808580I-2000J0D01*
G01X-929230D01*
G02X-930490Y809030I4J1999D01*
G03X-948480Y785610I-9309J-11469D01*
G01X-948130Y785350D01*
X-947710Y784630D01*
X-947340Y780780D01*
X-947600Y779980D01*
X-947900Y779660D01*
G03X-949710Y767290I8099J-7503D01*
G01X-949480Y766830D01*
X-949530Y765800D01*
X-951600Y762470D01*
G02X-953300Y761530I-1697J1061D01*
G01X-953400D01*
X-954570Y760360D01*
Y731990D01*
X-954180D01*
X-953010Y729930D01*
G02X-952970Y728040I-1744J-982D01*
G03X-950680Y711370I13171J-6683D01*
G01X-950420Y711090D01*
X-950150Y710390D01*
Y706930D01*
X-950420Y706230D01*
X-950680Y705950D01*
G03Y685970I10880J-9990D01*
G01X-950420Y685690D01*
X-950150Y684990D01*
Y681530D01*
X-950420Y680830D01*
X-950680Y680550D01*
G03Y660570I10880J-9990D01*
G01X-950420Y660290D01*
X-950150Y659590D01*
Y656130D01*
X-950420Y655430D01*
X-950680Y655150D01*
G03Y635170I10880J-9990D01*
G01X-950420Y634890D01*
X-950150Y634190D01*
Y630730D01*
X-950420Y630030D01*
X-950680Y629750D01*
G03Y609770I10880J-9990D01*
G01X-950420Y609490D01*
X-950150Y608790D01*
Y605330D01*
X-950420Y604630D01*
X-950680Y604350D01*
G03Y584370I10880J-9990D01*
G01X-950420Y584090D01*
X-950150Y583390D01*
Y579930D01*
X-950420Y579230D01*
X-950680Y578950D01*
G03Y558970I10880J-9990D01*
G01X-950420Y558690D01*
X-950150Y557990D01*
Y554530D01*
X-950420Y553830D01*
X-950680Y553550D01*
G03Y533570I10880J-9990D01*
G01X-950420Y533290D01*
X-950150Y532590D01*
Y529130D01*
X-950420Y528430D01*
X-950680Y528150D01*
G03X-952970Y511480I10881J-9987D01*
G02X-953010Y509590I-1784J-908D01*
G01X-954180Y507530D01*
X-954570D01*
Y477990D01*
X-954180D01*
X-953010Y475930D01*
G02X-952970Y474040I-1744J-982D01*
G03X-950680Y457370I13171J-6683D01*
G01X-950420Y457090D01*
X-950150Y456390D01*
Y452930D01*
X-950420Y452230D01*
X-950680Y451950D01*
G03Y431970I10880J-9990D01*
G01X-950420Y431690D01*
X-950150Y430990D01*
Y427530D01*
X-950420Y426830D01*
X-950680Y426550D01*
G03Y406570I10880J-9990D01*
G01X-950420Y406290D01*
X-950150Y405590D01*
Y402130D01*
X-950420Y401430D01*
X-950680Y401150D01*
G03Y381170I10880J-9990D01*
G01X-950420Y380890D01*
X-950150Y380190D01*
Y376730D01*
X-950420Y376030D01*
X-950680Y375750D01*
G03Y355770I10880J-9990D01*
G01X-950420Y355490D01*
X-950150Y354790D01*
Y351330D01*
X-950420Y350630D01*
X-950680Y350350D01*
G03Y330370I10880J-9990D01*
G01X-950420Y330090D01*
X-950150Y329390D01*
Y325930D01*
X-950420Y325230D01*
X-950680Y324950D01*
G03Y304970I10880J-9990D01*
G01X-950420Y304690D01*
X-950150Y303990D01*
Y300530D01*
X-950420Y299830D01*
X-950680Y299550D01*
G03Y279570I10880J-9990D01*
G01X-950420Y279290D01*
X-950150Y278590D01*
Y275130D01*
X-950420Y274430D01*
X-950680Y274150D01*
G03X-951280Y254870I10880J-9988D01*
G02X-950840Y253620I-1561J-1252D01*
G01Y223900D01*
G02X-951280Y222650I-2001J2D01*
G03X-950680Y203370I11480J-9292D01*
G01X-950420Y203090D01*
X-950150Y202390D01*
Y198930D01*
X-950420Y198230D01*
X-950680Y197950D01*
G03Y177970I10880J-9990D01*
G01X-950420Y177690D01*
X-950150Y176990D01*
Y173530D01*
X-950420Y172830D01*
X-950680Y172550D01*
G03Y152570I10880J-9990D01*
G01X-950420Y152290D01*
X-950150Y151590D01*
Y148130D01*
X-950420Y147430D01*
X-950680Y147150D01*
G03Y127170I10880J-9990D01*
G01X-950420Y126890D01*
X-950150Y126190D01*
Y122730D01*
X-950420Y122030D01*
X-950680Y121750D01*
G03Y101770I10880J-9990D01*
G01X-950420Y101490D01*
X-950150Y100790D01*
Y97330D01*
X-950420Y96630D01*
X-950680Y96350D01*
G03Y76370I10880J-9990D01*
G01X-950420Y76090D01*
X-950150Y75390D01*
Y71930D01*
X-950420Y71230D01*
X-950680Y70950D01*
G03Y50970I10880J-9990D01*
G01X-950420Y50690D01*
X-950150Y49990D01*
Y46530D01*
X-950420Y45830D01*
X-950680Y45550D01*
G03X-952970Y28880I10881J-9987D01*
G02X-953010Y26990I-1784J-908D01*
G01X-954180Y24930D01*
X-954570D01*
Y-2610D01*
G03X-952570Y-4610I2000J0D01*
G01X-926200D01*
G02X-924790Y-5200I-8J-1999D01*
G01X-887800Y-42180D01*
G03X-886390Y-42770I1418J1409D01*
G01X-635000D01*
G03X-629130Y-41080I5J11021D01*
G02X-628070Y-40770I1069J-1689D01*
G01X-600370D01*
G02X-598370Y-42770I0J-2000D01*
G01Y-43100D01*
X-597200Y-44270D01*
X-527730D01*
G03X-525730Y-42270I0J2000D01*
G01Y-41940D01*
X-524560Y-40770D01*
X-522020D01*
G02X-520020Y-42770I0J-2000D01*
G01Y-56190D01*
G03X-516700Y-70430I31995J-48D01*
G01X-516460Y-70890D01*
X-516510Y-71920D01*
X-518580Y-75250D01*
G02X-520280Y-76200I-1702J1050D01*
G01X-957900D01*
G37*
G36*
G01X-878670Y-20140D02*
X-890790Y-8020D01*
G02X-891230Y-5840I1410J1419D01*
G01X-890990Y-5280D01*
X-890000Y-4610D01*
X-876230D01*
G03X-874230Y-2610I0J2000D01*
G01Y24930D01*
X-874620D01*
X-875790Y26990D01*
G02X-875830Y28880I1744J982D01*
G03X-878120Y45550I-13171J6683D01*
G01X-878380Y45830D01*
X-878650Y46530D01*
Y49990D01*
X-878380Y50690D01*
X-878120Y50970D01*
G03Y70950I-10880J9990D01*
G01X-878380Y71230D01*
X-878650Y71930D01*
Y75390D01*
X-878380Y76090D01*
X-878120Y76370D01*
G03Y96350I-10880J9990D01*
G01X-878380Y96630D01*
X-878650Y97330D01*
Y100790D01*
X-878380Y101490D01*
X-878120Y101770D01*
G03Y121750I-10880J9990D01*
G01X-878380Y122030D01*
X-878650Y122730D01*
Y126190D01*
X-878380Y126890D01*
X-878120Y127170D01*
G03Y147150I-10880J9990D01*
G01X-878380Y147430D01*
X-878650Y148130D01*
Y151590D01*
X-878380Y152290D01*
X-878120Y152570D01*
G03Y172550I-10880J9990D01*
G01X-878380Y172830D01*
X-878650Y173530D01*
Y176990D01*
X-878380Y177690D01*
X-878120Y177970D01*
G03Y197950I-10880J9990D01*
G01X-878380Y198230D01*
X-878650Y198930D01*
Y202390D01*
X-878380Y203090D01*
X-878120Y203370D01*
G03X-877520Y222650I-10880J9988D01*
G02X-877960Y223900I1561J1252D01*
G01Y253620D01*
G02X-877520Y254870I2001J-2D01*
G03X-878120Y274150I-11480J9292D01*
G01X-878380Y274430D01*
X-878650Y275130D01*
Y278590D01*
X-878380Y279290D01*
X-878120Y279570D01*
G03X-875910Y282720I-10883J9986D01*
G01X-875650Y283210D01*
X-874700Y283790D01*
X-864280D01*
G02X-862860Y283200I2J-2000D01*
G01X-850910Y271250D01*
G02X-850320Y269830I-1410J-1418D01*
G01Y106390D01*
G03X-849730Y104970I2000J-2D01*
G01X-822130Y77370D01*
G03X-820710Y76780I1418J1410D01*
G01X-818720D01*
G02X-816720Y74780I0J-2000D01*
G01Y64820D01*
G02X-818720Y62820I-2000J0D01*
G01X-831320D01*
G03X-833320Y60820I0J-2000D01*
G01Y40780D01*
G03X-831320Y38780I2000J0D01*
G01X-780770D01*
Y38280D01*
X-779040D01*
G02X-777040Y36280I0J-2000D01*
G01Y34820D01*
G02X-779040Y32820I-2000J0D01*
G01X-805920D01*
G03X-807920Y30820I0J-2000D01*
G01Y30260D01*
X-809090Y29090D01*
X-827590D01*
G03X-829590Y27090I0J-2000D01*
G01Y14510D01*
G03X-827590Y12510I2000J0D01*
G01X-809920D01*
G02X-807920Y10510I0J-2000D01*
G01Y9950D01*
X-806750Y8780D01*
X-802170D01*
G02X-800170Y6780I0J-2000D01*
G01Y-18730D01*
G02X-802170Y-20730I-2000J0D01*
G01X-877260D01*
G02X-878670Y-20140I8J1999D01*
G37*
G36*
G01X-792680Y64820D02*
Y96320D01*
G03X-794680Y98320I-2000J0D01*
G01X-814720D01*
G03X-816720Y96320I0J-2000D01*
G01Y93110D01*
G02X-817950Y91260I-2000J-4D01*
G01X-818520Y91020D01*
X-819700Y91260D01*
X-838190Y109750D01*
G02X-838780Y111170I1410J1418D01*
G01Y184440D01*
G02X-837550Y186290I2000J4D01*
G01X-836980Y186530D01*
X-835800Y186290D01*
X-815190Y165680D01*
X-815120D01*
Y157680D01*
G03X-813120Y155680I2000J0D01*
G01X-793080D01*
G03X-791080Y157680I0J2000D01*
G01Y185220D01*
G03X-793080Y187220I-2000J0D01*
G01X-813950D01*
X-815120Y186050D01*
X-815700Y185180D01*
X-816350Y184910D01*
G02X-818530Y185340I-768J1847D01*
G01X-825490Y192300D01*
G02X-826080Y193720I1410J1418D01*
G01Y293660D01*
G03X-826670Y295080I-2000J2D01*
G01X-851730Y320140D01*
G03X-853150Y320730I-1418J-1410D01*
G01X-874700D01*
X-875650Y321310D01*
X-875910Y321800D01*
G03X-878120Y324950I-13093J-6836D01*
G01X-878380Y325230D01*
X-878650Y325930D01*
Y329390D01*
X-878380Y330090D01*
X-878120Y330370D01*
G03X-875910Y333520I-10883J9986D01*
G01X-875650Y334010D01*
X-874700Y334590D01*
X-826180D01*
G02X-824760Y334000I2J-2000D01*
G01X-733230Y242470D01*
G03X-731810Y241880I1418J1410D01*
G01X-668070D01*
G02X-666070Y239880I0J-2000D01*
G01Y233880D01*
G03X-664070Y231880I2000J0D01*
G01X-644030D01*
G03X-642030Y233880I0J2000D01*
G01Y252580D01*
G02X-640030Y254580I2000J0D01*
G01X-638070D01*
G02X-636070Y252580I0J-2000D01*
G01Y233880D01*
G03X-634070Y231880I2000J0D01*
G01X-614030D01*
G03X-612030Y233880I0J2000D01*
G01Y239880D01*
G02X-610030Y241880I2000J0D01*
G01X-576290D01*
G03X-574870Y242470I2J2000D01*
G01X-540920Y276420D01*
G03X-540330Y277840I-1410J1418D01*
G01Y351530D01*
G02X-538330Y353530I2000J0D01*
G01X-538080D01*
G03X-536080Y355530I0J2000D01*
G01Y385570D01*
G03X-538080Y387570I-2000J0D01*
G01X-636950D01*
G02X-638800Y388800I-4J2000D01*
G01X-639040Y389370D01*
X-638800Y390550D01*
X-632060Y397290D01*
G02X-630640Y397880I1418J-1410D01*
G01X-537760D01*
G02X-536340Y397290I2J-2000D01*
G01X-523460Y384410D01*
G02X-522870Y382990I-1410J-1418D01*
G01Y252010D01*
G02X-523460Y250590I-2000J-2D01*
G01X-568090Y205960D01*
G02X-569510Y205370I-1418J1410D01*
G01X-637830D01*
G02X-639440Y206190I4J1999D01*
G03X-652150Y212620I-12710J-9347D01*
G01X-654650D01*
G03X-665380Y208400I6J-15768D01*
G02X-666740Y207870I-1357J1472D01*
G01X-676840D01*
G03X-678250Y207280I8J-1999D01*
G01X-678770Y206770D01*
G02X-681590I-1410J1413D01*
G01X-682110Y207280D01*
G03X-683520Y207870I-1418J-1409D01*
G01X-727060D01*
G02X-728420Y208400I-3J2002D01*
G03X-739150Y212620I-10736J-11548D01*
G01X-741650D01*
G03X-753740Y186720I0J-15772D01*
G01X-753510Y186450D01*
X-753270Y185790D01*
Y182510D01*
X-753510Y181850D01*
X-753740Y181580D01*
G03X-755830Y178350I12097J-10119D01*
G01X-756090Y177820D01*
X-757050Y177220D01*
X-759080D01*
G02X-761080Y179220I0J2000D01*
G01Y185220D01*
G03X-763080Y187220I-2000J0D01*
G01X-783120D01*
G03X-785120Y185220I0J-2000D01*
G01Y157680D01*
G03X-783120Y155680I2000J0D01*
G01X-763080D01*
G03X-761080Y157680I0J2000D01*
G01Y163680D01*
G02X-759080Y165680I2000J0D01*
G01X-757050D01*
X-756090Y165080D01*
X-755830Y164550D01*
G03X-753740Y161320I14187J6889D01*
G01X-753510Y161050D01*
X-753270Y160390D01*
Y157110D01*
X-753510Y156450D01*
X-753740Y156180D01*
G03X-741650Y130280I12090J-10128D01*
G01X-739150D01*
G03X-727060Y156180I0J15772D01*
G01X-727290Y156450D01*
X-727530Y157110D01*
Y160390D01*
X-727290Y161050D01*
X-727060Y161320D01*
G03X-725730Y179730I-12090J10126D01*
G01X-726010Y180190D01*
X-726040Y181280D01*
X-724070Y184800D01*
G02X-722320Y185830I1748J-969D01*
G01X-692650D01*
G02X-691240Y185240I-8J-1999D01*
G01X-691200Y185210D01*
Y149390D01*
G03X-690610Y147980I1999J8D01*
G01X-678250Y135620D01*
G03X-676840Y135030I1418J1409D01*
G01X-666740D01*
G02X-665380Y134500I3J-2002D01*
G03X-661270Y131740I10736J11547D01*
G01X-660730Y131490D01*
X-660110Y130510D01*
Y129920D01*
G02X-662110Y127920I-2000J0D01*
G01X-681630D01*
G03X-683050Y127330I-2J-2000D01*
G01X-692480Y117900D01*
G03X-693070Y116480I1410J-1418D01*
G01X-693930Y115620D01*
X-721720D01*
G03X-723720Y113620I0J-2000D01*
G01Y113060D01*
X-724890Y111890D01*
X-734990D01*
G03X-736990Y109890I0J-2000D01*
G01Y93310D01*
G03X-734990Y91310I2000J0D01*
G01X-725720D01*
G02X-723720Y89310I0J-2000D01*
G01Y88220D01*
G02X-725720Y86220I-2000J0D01*
G01X-743020D01*
G03X-745020Y84220I0J-2000D01*
G01X-745620Y83320D01*
X-746250Y83060D01*
G02X-748430Y83490I-768J1847D01*
G01X-752670Y87730D01*
G03X-754090Y88320I-1418J-1410D01*
G01X-760680D01*
G02X-762680Y90320I0J2000D01*
G01Y96320D01*
G03X-764680Y98320I-2000J0D01*
G01X-784720D01*
G03X-786720Y96320I0J-2000D01*
G01Y64820D01*
G02X-788720Y62820I-2000J0D01*
G01X-790680D01*
G02X-792680Y64820I0J2000D01*
G37*
G36*
G01X-722990Y304220D02*
X-727030D01*
G02X-728450Y304810I-2J2000D01*
G01X-870780Y447140D01*
G03X-872200Y447730I-1418J-1410D01*
G01X-874700D01*
X-875650Y448310D01*
X-875910Y448800D01*
G03X-878120Y451950I-13093J-6836D01*
G01X-878380Y452230D01*
X-878650Y452930D01*
Y456390D01*
X-878380Y457090D01*
X-878120Y457370D01*
G03X-875910Y460520I-10883J9986D01*
G01X-875650Y461010D01*
X-874700Y461590D01*
X-851580D01*
G02X-850160Y461000I2J-2000D01*
G01X-793760Y404600D01*
G02X-793170Y403180I-1410J-1418D01*
G01Y379440D01*
G03X-792580Y378020I2000J-2D01*
G01X-722190Y307630D01*
G02X-721760Y305450I-1417J-1412D01*
G01X-721990Y304890D01*
X-722990Y304220D01*
G37*
G36*
G01X-875650Y626110D02*
X-875910Y626600D01*
G03X-878120Y629750I-13093J-6836D01*
G01X-878380Y630030D01*
X-878650Y630730D01*
Y634190D01*
X-878380Y634890D01*
X-878120Y635170D01*
G03X-875910Y638320I-10883J9986D01*
G01X-875650Y638810D01*
X-874700Y639390D01*
X-870930D01*
G03X-869510Y639980I2J2000D01*
G01X-836400Y673090D01*
G02X-834980Y673680I1418J-1410D01*
G01X-719620D01*
G02X-717620Y671680I0J-2000D01*
G01Y661820D01*
G02X-719620Y659820I-2000J0D01*
G01X-795310D01*
G03X-796730Y659230I-2J-2000D01*
G01X-829840Y626120D01*
G02X-831260Y625530I-1418J1410D01*
G01X-874700D01*
X-875650Y626110D01*
G37*
G36*
G01X-784130Y-18730D02*
Y6780D01*
G02X-782130Y8780I2000J0D01*
G01X-778380D01*
G03X-776380Y10780I0J2000D01*
G01Y23010D01*
G02X-774380Y25010I2000J0D01*
G01X-758460D01*
G03X-756460Y27010I0J2000D01*
G01Y36280D01*
G02X-754460Y38280I2000J0D01*
G01X-753900D01*
X-752730Y39450D01*
Y43030D01*
G02X-750730Y45030I2000J0D01*
G01X-747020D01*
G02X-745020Y43030I0J-2000D01*
G01Y42780D01*
G03X-743020Y40780I2000J0D01*
G01X-742460D01*
X-741290Y39610D01*
Y33810D01*
G03X-739290Y31810I2000J0D01*
G01X-721210D01*
G03X-719210Y33810I0J2000D01*
G01Y38780D01*
G02X-717210Y40780I2000J0D01*
G01X-716650D01*
X-715480Y41950D01*
Y43030D01*
G02X-713480Y45030I2000J0D01*
G01X-701730D01*
G02X-700310Y44440I2J-2000D01*
G01X-691610Y35740D01*
G02X-691020Y34320I-1410J-1418D01*
G01Y30080D01*
G03X-689020Y28080I2000J0D01*
G01X-663480D01*
G03X-661480Y30080I0J2000D01*
G01Y48410D01*
G02X-659480Y50410I2000J0D01*
G01X-639410D01*
G03X-637410Y52410I0J2000D01*
G01Y61680D01*
G02X-635410Y63680I2000J0D01*
G01X-634850D01*
X-633680Y64850D01*
Y66180D01*
G02X-631680Y68180I2000J0D01*
G01X-628970D01*
G02X-626970Y66180I0J-2000D01*
G01Y-7310D01*
G02X-627560Y-8720I-1999J8D01*
G01X-638980Y-20140D01*
G02X-640390Y-20730I-1418J1409D01*
G01X-782130D01*
G02X-784130Y-18730I0J2000D01*
G37*
G36*
G01X-607420Y-19750D02*
X-605520Y-17850D01*
G03X-604930Y-16440I-1409J1418D01*
G01Y130740D01*
G03X-605520Y132150I-1999J-8D01*
G01X-630380Y157020D01*
G02X-630820Y159200I1410J1419D01*
G01X-630580Y159760D01*
X-629590Y160430D01*
X-614990D01*
G02X-613580Y159840I-8J-1999D01*
G01X-598410Y144670D01*
G02X-597820Y143260I-1409J-1418D01*
G01Y127490D01*
G02X-598210Y126300I-2001J-3D01*
G03X-582890I7660J-5650D01*
G02X-583280Y127490I1611J1187D01*
G01Y139380D01*
G02X-581280Y141380I2000J0D01*
G01X-544100D01*
G02X-542350Y140360I6J-2001D01*
G01X-540370Y136850D01*
X-540390Y135780D01*
X-540670Y135310D01*
G03X-545420Y121410I29494J-17840D01*
G01Y106920D01*
G02X-547420Y104920I-2000J0D01*
G01X-568320D01*
G03X-570320Y102920I0J-2000D01*
G01Y74050D01*
X-569150Y72880D01*
X-569070D01*
Y42550D01*
X-567090Y40570D01*
Y15360D01*
G03X-565090Y13360I2000J0D01*
G01X-552510D01*
G03X-550510Y15360I0J2000D01*
G01Y36560D01*
G02X-549280Y38410I2000J4D01*
G01X-548710Y38650D01*
X-547530Y38410D01*
X-546010Y36890D01*
G02X-545420Y35470I-1410J-1418D01*
G01Y21730D01*
G03X-543420Y19730I2000J0D01*
G01X-542820D01*
G02X-540820Y17730I0J-2000D01*
G01Y11630D01*
G03X-538820Y9630I2000J0D01*
G01X-522020D01*
G02X-520020Y7630I0J-2000D01*
G01Y-20730D01*
G02X-522020Y-22730I-2000J0D01*
G01X-523730D01*
G02X-525730Y-20730I0J2000D01*
G01Y-20400D01*
X-526900Y-19230D01*
X-527460D01*
G02X-529460Y-17230I0J2000D01*
G01Y-7960D01*
G03X-531460Y-5960I-2000J0D01*
G01X-548040D01*
G03X-550040Y-7960I0J-2000D01*
G01Y-17230D01*
G02X-552040Y-19230I-2000J0D01*
G01X-596370D01*
G03X-598370Y-21230I0J-2000D01*
G01Y-21560D01*
X-599540Y-22730D01*
X-605570D01*
G02X-607420Y-21500I-3J2002D01*
G01X-607650Y-20930D01*
X-607420Y-19750D01*
G37*
G36*
G01X-488000Y-76200D02*
G02X-508000Y-56200I-27J19973D01*
G01Y-42320D01*
G02X-507000Y-41320I1000J0D01*
G01X-503970D01*
G02X-502970Y-42320I0J-1000D01*
G01Y-42570D01*
X-475930D01*
G03X-474930Y-41570I0J1000D01*
G01Y-25030D01*
G03X-475930Y-24030I-1000J0D01*
G01X-501970D01*
G03X-502970Y-25030I0J-1000D01*
G01Y-25280D01*
X-507000D01*
G02X-508000Y-24280I0J1000D01*
G01Y4680D01*
G02X-507000Y5680I1000J0D01*
G01X-503970D01*
G02X-502970Y4680I0J-1000D01*
G01Y4430D01*
G03X-501970Y3430I1000J0D01*
G01X-475930D01*
G03X-474930Y4430I0J1000D01*
G01Y20970D01*
G03X-475930Y21970I-1000J0D01*
G01X-501970D01*
G03X-502970Y20970I0J-1000D01*
G01Y20720D01*
G02X-503970Y19720I-1000J0D01*
G01X-504690D01*
G02X-505400Y20010I-5J1002D01*
G01X-507710Y22320D01*
G02X-508000Y23030I712J705D01*
G01Y30750D01*
G02X-507000Y31750I1000J0D01*
G01X-382000D01*
G02X-381000Y30750I0J-1000D01*
G01Y-56200D01*
G02X-401000Y-76200I-19973J-27D01*
G01X-488000D01*
G37*
G36*
G01X-517430Y32040D02*
X-517510Y32130D01*
G03X-518220Y32420I-704J-711D01*
G01X-518280D01*
G02X-519280Y33420I0J1000D01*
G01Y37670D01*
G03X-520280Y38670I-1000J0D01*
G01X-528230D01*
G02X-528940Y38960I-5J1002D01*
G01X-533110Y43130D01*
G02X-533400Y43840I712J705D01*
G01Y120580D01*
G02X-533390Y120720I1000J-1D01*
G02X-508000Y139700I22215J-3245D01*
G01X-485670D01*
G02X-484670Y138700I0J-1000D01*
G01Y138630D01*
G03X-483670Y137630I1000J0D01*
G01X-456130D01*
G03X-455130Y138630I0J1000D01*
G01Y138700D01*
G02X-454130Y139700I1000J0D01*
G01X-384530D01*
X-384340Y139610D01*
G03X-381840Y138870I4070J9159D01*
G01X-381470Y138820D01*
X-381000Y138260D01*
Y32750D01*
G02X-382000Y31750I-1000J0D01*
G01X-516720D01*
G02X-517430Y32040I-5J1002D01*
G37*
G36*
G01X-382000Y217960D02*
X-382760Y217860D01*
G03X-384190Y217620I1726J-14666D01*
G01X-384690Y217510D01*
X-385670Y217800D01*
X-443240Y275370D01*
G02X-443830Y276790I1409J1418D01*
G01Y352880D01*
G02X-442600Y354720I1999J-5D01*
G01X-442030Y354960D01*
X-440850Y354730D01*
X-395600Y309470D01*
X-395310Y308490D01*
X-395420Y307990D01*
G03X-382760Y290140I14420J-3187D01*
G01X-382000Y290040D01*
X-381000Y288910D01*
Y270770D01*
G02X-383000Y268770I-2000J0D01*
G01X-393770D01*
G03X-395770Y266770I0J-2000D01*
G01Y241230D01*
G03X-393770Y239230I2000J0D01*
G01X-383000D01*
G02X-381000Y237230I0J-2000D01*
G01Y219090D01*
X-382000Y217960D01*
G37*
G36*
G01X-383980Y168130D02*
X-460290Y244450D01*
G02X-460880Y245860I1409J1418D01*
G01Y268330D01*
G02X-459650Y270170I1999J-5D01*
G01X-459080Y270410D01*
X-457900Y270180D01*
X-395600Y207870D01*
X-395310Y206890D01*
X-395420Y206390D01*
G03X-382760Y188540I14420J-3187D01*
G01X-382000Y188440D01*
X-381000Y187310D01*
Y169980D01*
G02X-382230Y168130I-2002J-3D01*
G01X-382800Y167900D01*
X-383980Y168130D01*
G37*
G36*
G01X-382000Y319560D02*
X-382760Y319460D01*
G03X-384190Y319220I1726J-14666D01*
G01X-384690Y319110D01*
X-385670Y319400D01*
X-430540Y364270D01*
G02X-431130Y365690I1409J1418D01*
G01Y441780D01*
G02X-429900Y443620I1999J-5D01*
G01X-429330Y443860D01*
X-428150Y443630D01*
X-395600Y411070D01*
X-395310Y410090D01*
X-395420Y409590D01*
G03X-382760Y391740I14420J-3187D01*
G01X-382000Y391640D01*
X-381000Y390510D01*
Y372370D01*
G02X-383000Y370370I-2000J0D01*
G01X-393770D01*
G03X-395770Y368370I0J-2000D01*
G01Y342830D01*
G03X-393770Y340830I2000J0D01*
G01X-383000D01*
G02X-381000Y338830I0J-2000D01*
G01Y320690D01*
X-382000Y319560D01*
G37*
G36*
G01X-488080Y695800D02*
X-385670Y798200D01*
X-384690Y798490D01*
X-384190Y798380D01*
G03X-382760Y798140I3156J14426D01*
G01X-382000Y798040D01*
X-381000Y796910D01*
Y778770D01*
G02X-383000Y776770I-2000J0D01*
G01X-393770D01*
G03X-395770Y774770I0J-2000D01*
G01Y749230D01*
G03X-393770Y747230I2000J0D01*
G01X-383000D01*
G02X-381000Y745230I0J-2000D01*
G01Y727090D01*
X-382000Y725960D01*
X-382760Y725860D01*
G03X-395420Y708010I1760J-14663D01*
G01X-395310Y707510D01*
X-395600Y706530D01*
X-408720Y693410D01*
G02X-410140Y692820I-1418J1409D01*
G01X-486230D01*
G02X-488070Y694050I5J1999D01*
G01X-488310Y694620D01*
X-488080Y695800D01*
G37*
G36*
G01X-382000Y1291110D02*
X-382760Y1291010D01*
G03X-384190Y1290770I1726J-14666D01*
G01X-384690Y1290660D01*
X-385670Y1290950D01*
X-430540Y1335820D01*
G02X-431130Y1337240I1409J1418D01*
G01Y1413330D01*
G02X-429900Y1415170I1999J-5D01*
G01X-429330Y1415410D01*
X-428150Y1415180D01*
X-395600Y1382620D01*
X-395310Y1381640D01*
X-395420Y1381140D01*
G03X-382760Y1363290I14420J-3187D01*
G01X-382000Y1363190D01*
X-381000Y1362060D01*
Y1343920D01*
G02X-383000Y1341920I-2000J0D01*
G01X-393770D01*
G03X-395770Y1339920I0J-2000D01*
G01Y1314380D01*
G03X-393770Y1312380I2000J0D01*
G01X-383000D01*
G02X-381000Y1310380I0J-2000D01*
G01Y1292240D01*
X-382000Y1291110D01*
G37*
G36*
G01X-383980Y1241280D02*
X-447590Y1304900D01*
G02X-448180Y1306310I1409J1418D01*
G01Y1328780D01*
G02X-446950Y1330620I1999J-5D01*
G01X-446380Y1330860D01*
X-445200Y1330630D01*
X-395600Y1281020D01*
X-395310Y1280040D01*
X-395420Y1279540D01*
G03X-382760Y1261690I14420J-3187D01*
G01X-382000Y1261590D01*
X-381000Y1260460D01*
Y1243130D01*
G02X-382230Y1241280I-2002J-3D01*
G01X-382800Y1241050D01*
X-383980Y1241280D01*
G37*
G36*
G01X-382000Y1595910D02*
X-382760Y1595810D01*
G03X-384190Y1595570I1726J-14666D01*
G01X-384690Y1595460D01*
X-385670Y1595750D01*
X-462240Y1672320D01*
G02X-462670Y1674500I1415J1412D01*
G01X-462440Y1675060D01*
X-461440Y1675730D01*
X-395140D01*
G02X-393450Y1674810I6J-2001D01*
G03X-382760Y1668090I12450J7942D01*
G01X-382000Y1667990D01*
X-381000Y1666860D01*
Y1648720D01*
G02X-383000Y1646720I-2000J0D01*
G01X-393770D01*
G03X-395770Y1644720I0J-2000D01*
G01Y1619180D01*
G03X-393770Y1617180I2000J0D01*
G01X-383000D01*
G02X-381000Y1615180I0J-2000D01*
G01Y1597040D01*
X-382000Y1595910D01*
G37*
G36*
G01X-462680Y1692750D02*
X-385670Y1769750D01*
X-384690Y1770040D01*
X-384190Y1769930D01*
G03X-382760Y1769690I3156J14426D01*
G01X-382000Y1769590D01*
X-381000Y1768460D01*
Y1750320D01*
G02X-383000Y1748320I-2000J0D01*
G01X-393770D01*
G03X-395770Y1746320I0J-2000D01*
G01Y1720780D01*
G03X-393770Y1718780I2000J0D01*
G01X-383000D01*
G02X-381000Y1716780I0J-2000D01*
G01Y1698640D01*
X-382000Y1697510D01*
X-382760Y1697410D01*
G03X-393450Y1690690I1760J-14662D01*
G02X-395140Y1689770I-1684J1081D01*
G01X-460830D01*
G02X-462670Y1691000I5J1999D01*
G01X-462910Y1691570D01*
X-462680Y1692750D01*
G37*
G36*
G01X-382000Y1900710D02*
X-382760Y1900610D01*
G03X-395420Y1882760I1760J-14663D01*
G01X-395310Y1882260D01*
X-395600Y1881280D01*
X-415020Y1861860D01*
G02X-417200Y1861430I-1412J1415D01*
G01X-417760Y1861660D01*
X-418430Y1862660D01*
Y1964760D01*
G02X-417840Y1966180I1999J2D01*
G01X-404080Y1979940D01*
G02X-402660Y1980530I1418J-1409D01*
G01X-395140D01*
G02X-393450Y1979610I6J-2001D01*
G03X-382760Y1972890I12450J7942D01*
G01X-382000Y1972790D01*
X-381000Y1971660D01*
Y1953520D01*
G02X-383000Y1951520I-2000J0D01*
G01X-393770D01*
G03X-395770Y1949520I0J-2000D01*
G01Y1923980D01*
G03X-393770Y1921980I2000J0D01*
G01X-383000D01*
G02X-381000Y1919980I0J-2000D01*
G01Y1901840D01*
X-382000Y1900710D01*
G37*
%LPC*%
G75*
G36*
G01X-685730Y1737970D02*
Y1613830D01*
G02X-687730Y1611830I-2000J0D01*
G01X-709270D01*
G02X-711270Y1613830I0J2000D01*
G01Y1616830D01*
G03X-713270Y1618830I-2000J0D01*
G01X-748180D01*
G03X-749480Y1618350I0J-2000D01*
G02X-765130Y1624710I-6171J7250D01*
G01X-765160Y1625060D01*
X-765460Y1625690D01*
X-767760Y1627990D01*
X-768390Y1628290D01*
X-768740Y1628320D01*
G02X-777350Y1637240I893J9477D01*
G01X-777380Y1637610D01*
X-777670Y1638270D01*
X-780080Y1640680D01*
X-780740Y1640970D01*
X-781110Y1641000D01*
G02X-790070Y1650280I557J9503D01*
G01X-790080Y1650670D01*
X-790380Y1651370D01*
X-792880Y1653870D01*
X-793580Y1654170D01*
X-793970Y1654180D01*
G02X-786720Y1670120I221J9518D01*
G03X-785240Y1669470I1476J1350D01*
G01X-713270D01*
G03X-711270Y1671470I0J2000D01*
G01Y1681330D01*
G03X-713270Y1683330I-2000J0D01*
G01X-785240D01*
G03X-786720Y1682680I-4J-2000D01*
G02X-803250Y1688540I-7028J6421D01*
G01X-803280Y1688910D01*
X-803570Y1689570D01*
X-805980Y1691980D01*
X-806640Y1692270D01*
X-807010Y1692300D01*
G02X-815950Y1701240I560J9500D01*
G01X-815980Y1701610D01*
X-816270Y1702270D01*
X-818680Y1704680D01*
X-819340Y1704970D01*
X-819710Y1705000D01*
G02X-828650Y1713940I560J9500D01*
G01X-828680Y1714310D01*
X-828970Y1714970D01*
X-831380Y1717380D01*
X-832040Y1717670D01*
X-832410Y1717700D01*
G02X-824820Y1733620I560J9502D01*
G03X-823340Y1732970I1476J1350D01*
G01X-713270D01*
G03X-711270Y1734970I0J2000D01*
G01Y1737970D01*
G02X-709270Y1739970I2000J0D01*
G01X-687730D01*
G02X-685730Y1737970I0J-2000D01*
G37*
G36*
G01X-903790Y875190D02*
X-874210D01*
G02X-872210Y873190I0J-2000D01*
G01Y859610D01*
G02X-874210Y857610I-2000J0D01*
G01X-903790D01*
G02X-905790Y859610I0J2000D01*
G01Y873190D01*
G02X-903790Y875190I2000J0D01*
G37*
G36*
G01X-592640Y8040D02*
X-563060D01*
G02X-561060Y6040I0J-2000D01*
G01Y-7540D01*
G02X-563060Y-9540I-2000J0D01*
G01X-592640D01*
G02X-594640Y-7540I0J2000D01*
G01Y6040D01*
G02X-592640Y8040I2000J0D01*
G37*
%LPD*%
G75*
G54D10*
X-965200Y-40640D03*
Y848360D03*
G54D20*
X-668800Y101600D03*
X-685800D03*
X-728200D03*
X-711200D03*
G54D11*
G01X-793750Y-31750D02*
X-882650D01*
X-914400Y0D01*
Y793750D01*
G01X-889000Y797560D02*
Y835400D01*
G01Y797560D02*
X-910590D01*
X-914400Y793750D01*
G01D02*
X-918210Y797560D01*
X-939800D01*
G01X-635000Y-31750D02*
X-793750D01*
G01X-740400Y196850D02*
X-687260D01*
X-680180Y189770D01*
G01X-653400Y196850D02*
X-673100D01*
X-680180Y189770D01*
G01D02*
Y153130D01*
X-673100Y146050D01*
X-653400D01*
G01X-615950Y76200D02*
Y-12700D01*
X-635000Y-31750D01*
G01X-653400Y146050D02*
X-635000D01*
X-615950Y127000D01*
Y76200D01*
G01X-469900Y152400D02*
X-590550D01*
G01D02*
X-609600Y171450D01*
X-653400D01*
G01X-469900Y152400D02*
X-381000D01*
G01D02*
X-382450Y150950D01*
X-380270Y148770D01*
G01X-196850Y203200D02*
X-279400D01*
G01X-196850Y160200D02*
X-217350D01*
X-234950Y177800D01*
X-292100D01*
X-304800Y190500D01*
Y203200D01*
G01X-196850Y261800D02*
X-217350D01*
X-234950Y279400D01*
X-292100D01*
X-304800Y292100D01*
Y304800D01*
G01X-196850D02*
X-279400D01*
G01X-196850Y406400D02*
X-279400D01*
G01X-196850Y363400D02*
X-217350D01*
X-234950Y381000D01*
X-292100D01*
X-304800Y393700D01*
Y406400D01*
G01X-196850Y508000D02*
X-279400D01*
G01X-196850Y465000D02*
X-217350D01*
X-234950Y482600D01*
X-292100D01*
X-304800Y495300D01*
Y508000D01*
G01X-196850Y566600D02*
X-217350D01*
X-234950Y584200D01*
X-292100D01*
X-304800Y596900D01*
Y609600D01*
G01X-196850D02*
X-279400D01*
G01X-196850Y711200D02*
X-279400D01*
G01X-196850Y668200D02*
X-217350D01*
X-234950Y685800D01*
X-292100D01*
X-304800Y698500D01*
Y711200D01*
G01X-196850Y812800D02*
X-279400D01*
G01X-196850Y769800D02*
X-217350D01*
X-234950Y787400D01*
X-292100D01*
X-304800Y800100D01*
Y812800D01*
G01X-196850Y871400D02*
X-217350D01*
X-234950Y889000D01*
X-292100D01*
X-304800Y901700D01*
Y914400D01*
G01X-196850D02*
X-279400D01*
G01X-196850Y1233350D02*
X-217350D01*
X-234950Y1250950D01*
X-292100D01*
X-304800Y1263650D01*
Y1276350D01*
G01X-196850Y1334950D02*
X-217350D01*
X-234950Y1352550D01*
X-292100D01*
X-304800Y1365250D01*
Y1377950D01*
G01X-196850Y1276350D02*
X-279400D01*
G01X-196850Y1377950D02*
X-279400D01*
G01X-196850Y1479550D02*
X-279400D01*
G01X-196850Y1436550D02*
X-217350D01*
X-234950Y1454150D01*
X-292100D01*
X-304800Y1466850D01*
Y1479550D01*
G01X-196850Y1538150D02*
X-217350D01*
X-234950Y1555750D01*
X-292100D01*
X-304800Y1568450D01*
Y1581150D01*
G01X-196850Y1639750D02*
X-217350D01*
X-234950Y1657350D01*
X-292100D01*
X-304800Y1670050D01*
Y1682750D01*
G01X-196850Y1581150D02*
X-279400D01*
G01X-196850Y1682750D02*
X-279400D01*
G01X-196850Y1784350D02*
X-279400D01*
G01X-196850Y1741350D02*
X-217350D01*
X-234950Y1758950D01*
X-292100D01*
X-304800Y1771650D01*
Y1784350D01*
G01X-196850Y1842950D02*
X-217350D01*
X-234950Y1860550D01*
X-292100D01*
X-304800Y1873250D01*
Y1885950D01*
G01X-196850D02*
X-279400D01*
G01X-196850Y1944550D02*
X-217350D01*
X-234950Y1962150D01*
X-292100D01*
X-304800Y1974850D01*
Y1987550D01*
G01X-196850D02*
X-279400D01*
G01X-133350Y203200D02*
X-196850D01*
G01X-82550D02*
X-107950Y177800D01*
X-158750D01*
X-176350Y160200D01*
X-196850D01*
G01X-82550Y304800D02*
X-107950Y279400D01*
X-158750D01*
X-176350Y261800D01*
X-196850D01*
G01X-133350Y304800D02*
X-196850D01*
G01X-133350Y406400D02*
X-196850D01*
G01X-82550D02*
X-107950Y381000D01*
X-158750D01*
X-176350Y363400D01*
X-196850D01*
G01X-133350Y508000D02*
X-196850D01*
G01X-82550D02*
X-107950Y482600D01*
X-158750D01*
X-176350Y465000D01*
X-196850D01*
G01X-82550Y609600D02*
X-107950Y584200D01*
X-158750D01*
X-176350Y566600D01*
X-196850D01*
G01X-133350Y609600D02*
X-196850D01*
G01X-133350Y711200D02*
X-196850D01*
G01X-82550D02*
X-107950Y685800D01*
X-158750D01*
X-176350Y668200D01*
X-196850D01*
G01X-133350Y812800D02*
X-196850D01*
G01X-82550D02*
X-107950Y787400D01*
X-158750D01*
X-176350Y769800D01*
X-196850D01*
G01X-82550Y914400D02*
X-107950Y889000D01*
X-158750D01*
X-176350Y871400D01*
X-196850D01*
G01X-133350Y914400D02*
X-196850D01*
G01X-82550Y1276350D02*
X-107950Y1250950D01*
X-158750D01*
X-176350Y1233350D01*
X-196850D01*
G01X-82550Y1377950D02*
X-107950Y1352550D01*
X-158750D01*
X-176350Y1334950D01*
X-196850D01*
G01X-133350Y1276350D02*
X-196850D01*
G01X-133350Y1377950D02*
X-196850D01*
G01X-133350Y1479550D02*
X-196850D01*
G01X-82550D02*
X-107950Y1454150D01*
X-158750D01*
X-176350Y1436550D01*
X-196850D01*
G01X-82550Y1581150D02*
X-107950Y1555750D01*
X-158750D01*
X-176350Y1538150D01*
X-196850D01*
G01X-82550Y1682750D02*
X-107950Y1657350D01*
X-158750D01*
X-176350Y1639750D01*
X-196850D01*
G01X-133350Y1581150D02*
X-196850D01*
G01X-133350Y1682750D02*
X-196850D01*
G01X-133350Y1784350D02*
X-196850D01*
G01X-82550D02*
X-107950Y1758950D01*
X-158750D01*
X-176350Y1741350D01*
X-196850D01*
G01X-82550Y1885950D02*
X-107950Y1860550D01*
X-158750D01*
X-176350Y1842950D01*
X-196850D01*
G01X-133350Y1885950D02*
X-196850D01*
G01X-82550Y1987550D02*
X-107950Y1962150D01*
X-158750D01*
X-176350Y1944550D01*
X-196850D01*
G01X-133350Y1987550D02*
X-196850D01*
X-967900Y14390D03*
Y114390D03*
Y214390D03*
Y314390D03*
Y414390D03*
Y514390D03*
Y614390D03*
Y714390D03*
Y915660D03*
Y1015660D03*
Y1115660D03*
Y1215660D03*
Y1315660D03*
Y1415660D03*
Y1515660D03*
Y1615660D03*
Y1715660D03*
Y1815660D03*
Y1915660D03*
Y2015660D03*
Y2115660D03*
X-942670Y-66200D03*
X-925330Y2206150D03*
X-842670Y-66200D03*
X-812800Y-6350D03*
X-869950Y-12700D03*
X-868310Y45070D03*
X-825500Y114300D03*
X-838200Y82550D03*
X-831850Y171450D03*
X-867650Y145070D03*
X-863600Y222250D03*
X-812800D03*
X-831850Y323850D03*
X-812080Y400470D03*
X-850900Y444500D03*
X-844550Y546100D03*
X-877370Y899820D03*
Y999820D03*
Y1099820D03*
Y1199820D03*
Y1299820D03*
Y1399820D03*
X-805380Y1477110D03*
X-877370Y1499820D03*
Y1599820D03*
X-831850Y1727200D03*
X-819150Y1714500D03*
X-806450Y1701800D03*
X-877370Y1699820D03*
X-867900Y1861250D03*
Y1961250D03*
X-836370Y2106150D03*
X-825330Y2206150D03*
X-742670Y-66200D03*
X-730250Y19050D03*
X-768350Y12700D03*
X-742950Y-12700D03*
X-755650Y101600D03*
X-774700Y196850D03*
Y146050D03*
Y266700D03*
Y438150D03*
X-746990Y385470D03*
X-741370Y471180D03*
X-793750Y546100D03*
X-800000Y666000D03*
X-793750Y596900D03*
X-800100Y812800D03*
Y781050D03*
Y876300D03*
Y977900D03*
Y1079500D03*
Y1181100D03*
Y1276350D03*
X-781050Y1346200D03*
X-768350Y1333500D03*
X-755650Y1320800D03*
X-742950Y1308100D03*
X-730250Y1295400D03*
Y1422400D03*
X-800100Y1377950D03*
X-786460Y1575310D03*
X-780550Y1650500D03*
X-767850Y1637800D03*
X-755650Y1625600D03*
X-793750Y1689100D03*
Y1663700D03*
X-780470Y1675130D03*
X-747960Y1740720D03*
X-771880Y1828240D03*
X-762220Y2006150D03*
X-736370Y2106150D03*
X-679450Y6350D03*
X-698500Y120650D03*
X-654000Y102000D03*
X-711200Y76200D03*
X-704850Y177800D03*
X-717550Y222260D03*
X-715530Y356030D03*
X-650590Y412050D03*
X-666750Y463550D03*
X-722830Y569450D03*
X-658770Y533700D03*
X-724000Y666000D03*
X-656020Y731320D03*
X-723900Y812800D03*
X-722830Y769450D03*
Y869450D03*
X-710480Y913080D03*
X-723900Y977900D03*
Y1079500D03*
Y1181100D03*
X-685210Y1238410D03*
X-717550Y1263650D03*
X-704850Y1250950D03*
X-717550Y1282700D03*
X-685510Y1369970D03*
X-660400Y1473200D03*
X-723900Y1530350D03*
X-652420Y1543350D03*
X-725990Y1611080D03*
X-721670Y1914740D03*
X-662220Y2006150D03*
X-725330Y2206150D03*
X-642670Y-66200D03*
X-641350Y-6350D03*
X-647700Y38100D03*
X-596900Y19050D03*
X-590550Y120650D03*
X-641350D03*
X-596900Y95250D03*
X-577850Y177800D03*
X-615950Y152400D03*
X-641350Y215900D03*
X-647700Y590550D03*
X-618000Y672000D03*
X-646600Y813080D03*
X-642200Y782040D03*
X-622830Y871130D03*
Y971130D03*
X-617170Y1062860D03*
Y1162860D03*
X-585340Y1243530D03*
X-612000Y1402000D03*
X-606740Y1431570D03*
X-647700Y1600200D03*
X-609600Y1682750D03*
X-647960Y1740590D03*
X-617570Y1816670D03*
Y1916670D03*
X-636370Y2106150D03*
X-625330Y2206150D03*
X-546000Y-66000D03*
X-552450Y6350D03*
X-530300Y3850D03*
X-546100Y133350D03*
X-571500Y228600D03*
X-529370Y316370D03*
X-499330Y335820D03*
X-552450Y431800D03*
X-534000Y486000D03*
X-517570Y589120D03*
X-556040Y729220D03*
X-546930Y821220D03*
X-542200Y782040D03*
X-517170Y916690D03*
Y1016690D03*
Y1116690D03*
Y1216690D03*
Y1316690D03*
X-508460Y1413070D03*
X-517570Y1489120D03*
Y1589120D03*
Y1789120D03*
X-547970Y1738870D03*
X-517570Y1889120D03*
Y1989120D03*
X-525330Y2206150D03*
X-495300Y177800D03*
X-429700Y169920D03*
X-494000Y252000D03*
X-452000Y250000D03*
X-438000Y280000D03*
X-485420Y452960D03*
Y552960D03*
X-469900Y698500D03*
X-464320Y769060D03*
X-427270Y861950D03*
X-486130Y915600D03*
Y1015600D03*
Y1115600D03*
Y1215600D03*
X-442000Y1320000D03*
X-424000Y1340000D03*
X-486130Y1315600D03*
X-472720Y1337250D03*
Y1437250D03*
Y1537250D03*
X-452000Y1670000D03*
Y1696000D03*
X-453200Y1770780D03*
X-439970Y1869900D03*
X-425450Y2000250D03*
X-491000Y2076060D03*
X-425330Y2206150D03*
X-417570Y215820D03*
Y315820D03*
X-422000Y368000D03*
X-417570Y415820D03*
X-420000Y672000D03*
X-419100Y749300D03*
X-417570Y915820D03*
Y1015820D03*
Y1115820D03*
Y1215820D03*
X-418000Y1284000D03*
Y1396000D03*
Y1638000D03*
Y1728000D03*
X-406400Y1962150D03*
X-391000Y2063480D03*
Y2163480D03*
G54D21*
X-672850Y654050D03*
Y614950D03*
X-704850D03*
Y654050D03*
X-672850Y717550D03*
Y678450D03*
X-704850D03*
Y717550D03*
X-666500Y1624600D03*
X-698500D03*
X-666500Y1727200D03*
Y1688100D03*
X-698500D03*
Y1727200D03*
X-666500Y1663700D03*
X-698500D03*
G54D12*
X-889000Y60960D03*
Y35560D03*
X-939800Y60960D03*
Y35560D03*
X-889000Y137160D03*
Y111760D03*
Y86360D03*
X-939800Y137160D03*
Y111760D03*
Y86360D03*
X-889000Y213360D03*
Y187960D03*
Y162560D03*
X-939800Y213360D03*
Y187960D03*
Y162560D03*
X-889000Y289560D03*
Y264160D03*
X-939800Y289560D03*
Y264160D03*
X-889000Y365760D03*
Y340360D03*
Y314960D03*
X-939800Y365760D03*
Y340360D03*
Y314960D03*
X-889000Y441960D03*
Y416560D03*
Y391160D03*
X-939800Y441960D03*
Y416560D03*
Y391160D03*
X-889000Y518160D03*
Y467360D03*
X-939800Y518160D03*
Y467360D03*
X-889000Y594360D03*
Y568960D03*
Y543560D03*
X-939800Y594360D03*
Y568960D03*
Y543560D03*
X-889000Y670560D03*
Y645160D03*
Y619760D03*
X-939800Y670560D03*
Y645160D03*
Y619760D03*
X-889000Y721360D03*
Y695960D03*
X-939800Y721360D03*
Y695960D03*
X-889000Y797560D03*
Y772160D03*
X-939800Y797560D03*
Y772160D03*
X-381000Y203200D03*
Y304800D03*
Y406400D03*
Y508000D03*
Y609600D03*
Y711200D03*
Y812800D03*
Y914400D03*
Y1276350D03*
Y1377950D03*
Y1479550D03*
Y1581150D03*
Y1682750D03*
Y1784350D03*
Y1885950D03*
Y1987550D03*
X-330200Y203200D03*
X-304800D03*
X-279400D03*
Y152400D03*
X-304800D03*
X-330200D03*
X-279400Y254000D03*
X-304800D03*
X-330200D03*
X-279400Y355600D03*
X-304800D03*
X-330200D03*
Y304800D03*
X-304800D03*
X-279400D03*
X-330200Y406400D03*
X-304800D03*
X-279400D03*
X-330200Y508000D03*
X-304800D03*
X-279400D03*
Y457200D03*
X-304800D03*
X-330200D03*
X-279400Y558800D03*
X-304800D03*
X-330200D03*
X-279400Y660400D03*
X-304800D03*
X-330200D03*
Y609600D03*
X-304800D03*
X-279400D03*
X-330200Y711200D03*
X-304800D03*
X-279400D03*
X-330200Y812800D03*
X-304800D03*
X-279400D03*
Y762000D03*
X-304800D03*
X-330200D03*
X-279400Y863600D03*
X-304800D03*
X-330200D03*
Y914400D03*
X-304800D03*
X-279400D03*
X-330200Y1276350D03*
X-304800D03*
X-279400D03*
Y1225550D03*
X-304800D03*
X-330200D03*
X-279400Y1327150D03*
X-304800D03*
X-330200D03*
X-279400Y1428750D03*
X-304800D03*
X-330200D03*
Y1377950D03*
X-304800D03*
X-279400D03*
X-330200Y1479550D03*
X-304800D03*
X-279400D03*
X-330200Y1581150D03*
X-304800D03*
X-279400D03*
Y1530350D03*
X-304800D03*
X-330200D03*
X-279400Y1631950D03*
X-304800D03*
X-330200D03*
X-279400Y1733550D03*
X-304800D03*
X-330200D03*
Y1682750D03*
X-304800D03*
X-279400D03*
X-330200Y1784350D03*
X-304800D03*
X-279400D03*
X-330200Y1885950D03*
X-304800D03*
X-279400D03*
Y1835150D03*
X-304800D03*
X-330200D03*
X-279400Y1936750D03*
X-304800D03*
X-330200D03*
Y1987550D03*
X-304800D03*
X-279400D03*
G54D30*
X-133350Y203200D03*
Y254000D03*
Y355600D03*
Y304800D03*
Y406400D03*
Y508000D03*
Y457200D03*
Y558800D03*
Y660400D03*
Y609600D03*
Y711200D03*
Y812800D03*
Y762000D03*
Y863600D03*
Y914400D03*
Y1276350D03*
Y1327150D03*
Y1428750D03*
Y1377950D03*
Y1479550D03*
Y1581150D03*
Y1530350D03*
Y1631950D03*
Y1733550D03*
Y1682750D03*
Y1784350D03*
Y1885950D03*
Y1835150D03*
Y1936750D03*
Y1987550D03*
X-82550Y203200D03*
Y254000D03*
Y355600D03*
Y304800D03*
Y406400D03*
Y508000D03*
Y457200D03*
Y558800D03*
Y660400D03*
Y609600D03*
Y711200D03*
Y812800D03*
Y762000D03*
Y863600D03*
Y914400D03*
Y1276350D03*
Y1327150D03*
Y1428750D03*
Y1377950D03*
Y1479550D03*
Y1581150D03*
Y1530350D03*
Y1631950D03*
Y1733550D03*
Y1682750D03*
Y1784350D03*
Y1885950D03*
Y1835150D03*
Y1936750D03*
Y1987550D03*
G54D22*
X-672850Y640850D03*
Y628150D03*
X-704850D03*
Y640850D03*
X-672850Y704350D03*
Y691650D03*
X-704850D03*
Y704350D03*
X-666500Y1650500D03*
Y1637800D03*
X-698500D03*
Y1650500D03*
X-666500Y1714000D03*
Y1701300D03*
X-698500D03*
Y1714000D03*
G54D13*
X-889000Y10160D03*
X-939800D03*
X-889000Y238760D03*
X-939800D03*
X-889000Y492760D03*
X-939800D03*
X-889000Y746760D03*
X-939800D03*
X-381000Y152400D03*
Y254000D03*
Y355600D03*
Y457200D03*
Y558800D03*
Y660400D03*
Y762000D03*
Y863600D03*
Y1225550D03*
Y1327150D03*
Y1428750D03*
Y1530350D03*
Y1631950D03*
Y1733550D03*
Y1835150D03*
Y1936750D03*
G54D31*
X0Y-2540D03*
Y1070610D03*
Y2180590D03*
G54D32*
G01X-792150Y20800D02*
Y-30150D01*
X-793750Y-31750D01*
G01X-676250Y76200D02*
X-647700D01*
G01D02*
X-615950D01*
G01X-609600Y525300D02*
Y527050D01*
G01X-528800Y25400D02*
Y28900D01*
X-557050Y57150D01*
G01X-528800Y25400D02*
X-520710D01*
X-508010Y12700D01*
X-488950D01*
G01X-557050Y88900D02*
Y57150D01*
G01X-381000Y508000D02*
X-412750Y539750D01*
Y622300D01*
X-450850Y660400D01*
X-548350D01*
G01X-381000Y406400D02*
X-425450Y450850D01*
Y615950D01*
X-457200Y647700D01*
X-548350D01*
G01X-381000Y304800D02*
X-438150Y361950D01*
Y609600D01*
X-463550Y635000D01*
X-548350D01*
G01X-381000Y203200D02*
X-450850Y273050D01*
Y603250D01*
X-469900Y622300D01*
X-548350D01*
G01X-381000Y914400D02*
X-412750Y882650D01*
Y800100D01*
X-501650Y711200D01*
X-548350D01*
G01X-381000Y812800D02*
X-495300Y698500D01*
X-548350D01*
G01X-381000Y711200D02*
X-406400Y685800D01*
X-548350D01*
G01X-381000Y609600D02*
X-444500Y673100D01*
X-548350D01*
G01X-381000Y1377950D02*
X-425450Y1422400D01*
Y1587500D01*
X-482600Y1644650D01*
X-542000D01*
G01X-381000Y1276350D02*
X-438150Y1333500D01*
Y1581130D01*
X-488970Y1631950D01*
X-542000D01*
G01X-381000Y1987550D02*
X-406400D01*
X-425450Y1968500D01*
Y1778000D01*
X-482600Y1720850D01*
X-542000D01*
G01X-381000Y1885950D02*
X-412750Y1854200D01*
Y1771650D01*
X-476250Y1708150D01*
X-542000D01*
G01X-381000Y1784350D02*
X-469900Y1695450D01*
X-542000D01*
G01X-381000Y1682750D02*
X-542000D01*
G01X-381000Y1581150D02*
X-469900Y1670050D01*
X-542000D01*
G01X-381000Y1479550D02*
X-412750Y1511300D01*
Y1593850D01*
X-476250Y1657350D01*
X-542000D01*
G54D14*
X-889000Y866400D03*
Y835400D03*
X-577850Y-31750D03*
Y-750D03*
G54D23*
X-584200Y370550D03*
X-596900D03*
X-609600D03*
X-622300D03*
X-635000D03*
X-647700D03*
Y463550D03*
X-635000D03*
X-622300D03*
X-609600D03*
X-596900D03*
X-584200D03*
X-590550Y1380200D03*
X-603250D03*
X-615950D03*
X-628650D03*
X-641350D03*
Y1473200D03*
X-628650D03*
X-615950D03*
X-603250D03*
X-590550D03*
X-546100Y370550D03*
X-558800D03*
X-571500D03*
Y463550D03*
X-558800D03*
X-546100D03*
X-539750Y1380200D03*
X-552450D03*
X-565150D03*
X-577850D03*
Y1473200D03*
X-565150D03*
X-552450D03*
X-539750D03*
G54D33*
G01X-653400Y196850D02*
X-565150D01*
X-514350Y247650D01*
Y387350D01*
X-533400Y406400D01*
X-635000D01*
X-647700Y393700D01*
Y370550D01*
G54D15*
X-817550Y50800D03*
Y20800D03*
X-792150Y50800D03*
Y20800D03*
X-635000Y495300D03*
X-609600D03*
X-584200D03*
X-635000Y525300D03*
X-622300Y576100D03*
Y546100D03*
X-609600Y525300D03*
X-596900Y576100D03*
Y546100D03*
X-584200Y525300D03*
X-603250Y1504950D03*
X-577850D03*
X-628650D03*
X-615950Y1555750D03*
X-603250Y1534950D03*
X-590550Y1555750D03*
X-577850Y1534950D03*
X-628650D03*
X-615950Y1585750D03*
X-590550D03*
X-558800Y495300D03*
X-571500Y576100D03*
Y546100D03*
X-558800Y525300D03*
X-546100Y576100D03*
Y546100D03*
X-552450Y1504950D03*
X-565150Y1555750D03*
X-552450Y1534950D03*
X-539750Y1555750D03*
X-565150Y1585750D03*
X-539750D03*
G54D24*
X-641350Y609600D03*
Y622300D03*
Y635000D03*
Y647700D03*
Y660400D03*
Y673100D03*
Y685800D03*
Y698500D03*
Y711200D03*
X-635000Y1619250D03*
Y1631950D03*
Y1644650D03*
Y1657350D03*
Y1670050D03*
Y1682750D03*
Y1695450D03*
Y1708150D03*
Y1720850D03*
X-548350Y660400D03*
Y647700D03*
Y635000D03*
Y622300D03*
Y609600D03*
Y711200D03*
Y698500D03*
Y685800D03*
Y673100D03*
X-542000Y1644650D03*
Y1631950D03*
Y1619250D03*
Y1720850D03*
Y1708150D03*
Y1695450D03*
Y1682750D03*
Y1670050D03*
Y1657350D03*
G54D34*
G01X-641350Y1380200D02*
Y1397000D01*
X-622300Y1416050D01*
X-533400D01*
X-501650Y1384300D01*
Y844550D01*
X-548640Y797560D01*
X-889000D01*
G01X-577850Y-31750D02*
X-635000D01*
G01X-577850D02*
X-539750D01*
G01D02*
X-514350D01*
X-512800Y-33300D01*
X-488950D01*
G01X-381000Y152400D02*
X-469900Y241300D01*
Y590550D01*
X-488950Y609600D01*
X-548350D01*
G01X-381000Y1225550D02*
X-457200Y1301750D01*
Y1574800D01*
X-501650Y1619250D01*
X-542000D01*
G54D25*
X-557050Y88900D03*
X-527050D03*
G54D16*
X-730250Y38100D03*
Y50800D03*
Y63500D03*
Y76200D03*
X-676250Y50800D03*
Y38100D03*
Y76200D03*
Y63500D03*
G54D35*
G01X-803100Y171450D02*
X-812800D01*
X-831850Y190500D01*
Y292100D01*
X-854710Y314960D01*
X-889000D01*
G01X-654050Y247650D02*
X-730250D01*
X-822960Y340360D01*
X-889000D01*
G01X-804700Y82550D02*
X-819150D01*
X-844550Y107950D01*
Y273050D01*
X-861060Y289560D01*
X-889000D01*
G01X-704850Y285750D02*
X-730260D01*
X-861070Y416560D01*
X-889000D01*
G01X-654050Y273050D02*
X-730250D01*
X-848360Y391160D01*
X-889000D01*
G01X-704850Y260350D02*
X-730250D01*
X-835660Y365760D01*
X-889000D01*
G01X-654050Y323850D02*
X-717560D01*
X-781050Y387340D01*
Y412750D01*
X-861060Y492760D01*
X-889000D01*
G01X-704850Y311150D02*
X-717550D01*
X-787400Y381000D01*
Y406400D01*
X-848360Y467360D01*
X-889000D01*
G01X-654050Y298450D02*
X-730250D01*
X-873760Y441960D01*
X-889000D01*
G01Y568960D02*
X-853430D01*
X-793740Y628650D01*
X-705350D01*
X-704850Y628150D01*
G01Y614950D02*
X-705850Y615950D01*
X-793750D01*
X-866140Y543560D01*
X-889000D01*
G01Y518160D02*
X-873760D01*
X-774700Y419100D01*
Y393700D01*
X-717550Y336550D01*
X-704850D01*
G01X-889000Y645160D02*
X-872490D01*
X-838200Y679450D01*
X-705850D01*
X-704850Y678450D01*
G01Y654050D02*
X-793750D01*
X-828040Y619760D01*
X-889000D01*
G01Y594360D02*
X-840740D01*
X-793750Y641350D01*
X-705350D01*
X-704850Y640850D01*
G01Y717550D02*
X-885190D01*
X-889000Y721360D01*
G01Y695960D02*
X-847090D01*
X-838200Y704850D01*
X-705350D01*
X-704850Y704350D01*
G01X-889000Y670560D02*
X-859790D01*
X-838200Y692150D01*
X-705350D01*
X-704850Y691650D01*
G01X-792150Y50800D02*
X-817550D01*
G01X-831850Y1727200D02*
X-698500D01*
G01Y1714000D02*
X-699000Y1714500D01*
X-819150D01*
G01X-730250Y50800D02*
X-766750D01*
G01D02*
X-792150D01*
G01X-774700Y82550D02*
X-755650D01*
X-749300Y76200D01*
X-730250D01*
G01X-740400Y171450D02*
X-773100D01*
G01X-698500Y1346200D02*
X-781050D01*
G01X-647700Y1333500D02*
X-768350D01*
G01X-698500Y1320800D02*
X-755650D01*
G01X-647700Y1308100D02*
X-742950D01*
G01X-698500Y1650500D02*
X-780550D01*
G01X-698500Y1637800D02*
X-767850D01*
G01X-698500Y1624600D02*
X-754650D01*
X-755650Y1625600D01*
G01X-698500Y1701300D02*
X-699000Y1701800D01*
X-806450D01*
G01X-698500Y1688100D02*
X-699500Y1689100D01*
X-793750D01*
G01X-698500Y1663700D02*
X-793750D01*
G01X-698500Y63500D02*
X-685800Y50800D01*
X-676250D01*
G01X-730250D02*
X-698510D01*
X-685810Y38100D01*
X-676250D01*
G01X-730250Y63500D02*
X-698500D01*
G01D02*
Y101600D01*
G01D02*
X-685800D01*
G01X-711200D02*
X-698500D01*
G01X-685800D02*
Y114300D01*
X-679450Y120650D01*
X-641350D01*
G01X-558800Y370550D02*
Y285750D01*
X-584200Y260350D01*
X-674850D01*
G01X-584200Y370550D02*
Y304800D01*
X-603250Y285750D01*
X-674850D01*
G01X-609600Y370550D02*
Y317500D01*
X-615950Y311150D01*
X-674850D01*
G01X-635000Y370550D02*
Y355600D01*
X-654050Y336550D01*
X-674850D01*
G01X-672850Y628150D02*
X-672350Y628650D01*
X-660400D01*
X-654050Y635000D01*
X-641350D01*
G01X-672850Y640850D02*
X-672350Y641350D01*
X-660400D01*
X-654050Y647700D01*
X-641350D01*
G01X-672850Y654050D02*
X-660400D01*
X-654050Y660400D01*
X-641350D01*
G01X-672850Y614950D02*
X-671850Y615950D01*
X-660400D01*
X-654050Y622300D01*
X-641350D01*
G01X-672850Y678450D02*
X-671850Y679450D01*
X-660400D01*
X-654050Y673100D01*
X-641350D01*
G01X-672850Y704350D02*
X-672350Y704850D01*
X-660400D01*
X-654050Y698500D01*
X-641350D01*
G01X-672850Y717550D02*
X-660400D01*
X-654050Y711200D01*
X-641350D01*
G01X-672850Y691650D02*
X-672350Y692150D01*
X-660400D01*
X-654050Y685800D01*
X-641350D01*
G01X-698500Y1270000D02*
X-711200D01*
X-717550Y1263650D01*
G01X-704850Y1250950D02*
X-692150D01*
X-685800Y1257300D01*
X-647700D01*
G01X-552450Y1380200D02*
Y1295400D01*
X-577850Y1270000D01*
X-668500D01*
G01X-698500Y1295400D02*
X-730250D01*
G01X-647700Y1282700D02*
X-717550D01*
G01X-577850Y1380200D02*
Y1314450D01*
X-596900Y1295400D01*
X-668500D01*
G01X-603250Y1380200D02*
Y1327150D01*
X-609600Y1320800D01*
X-668500D01*
G01X-628650Y1380200D02*
Y1365250D01*
X-647700Y1346200D01*
X-668500D01*
G01X-666500Y1650500D02*
X-666000Y1651000D01*
X-654050D01*
X-647700Y1657350D01*
X-635000D01*
G01X-666500Y1637800D02*
X-666000Y1638300D01*
X-654050D01*
X-647700Y1644650D01*
X-635000D01*
G01X-666500Y1624600D02*
X-665500Y1625600D01*
X-654050D01*
X-647700Y1631950D01*
X-635000D01*
G01X-666500Y1688100D02*
X-665500Y1689100D01*
X-654050D01*
X-647700Y1682750D01*
X-635000D01*
G01X-666500Y1701300D02*
X-666000Y1701800D01*
X-654050D01*
X-647700Y1695450D01*
X-635000D01*
G01X-666500Y1714000D02*
X-666000Y1714500D01*
X-654050D01*
X-647700Y1708150D01*
X-635000D01*
G01X-666500Y1663700D02*
X-654050D01*
X-647700Y1670050D01*
X-635000D01*
G01X-666500Y1727200D02*
X-654050D01*
X-647700Y1720850D01*
X-635000D01*
G01X-590550Y120650D02*
Y152400D01*
G01X-546100Y370550D02*
Y279400D01*
X-577850Y247650D01*
X-624050D01*
G01X-571500Y370550D02*
Y292100D01*
X-590550Y273050D01*
X-624050D01*
G01X-596900Y370550D02*
Y311150D01*
X-609600Y298450D01*
X-624050D01*
G01X-622300Y370550D02*
Y325600D01*
X-624050Y323850D01*
G01X-635000Y495300D02*
Y463550D01*
G01X-622300Y546100D02*
Y463550D01*
G01X-609600Y495300D02*
Y463550D01*
G01X-596900Y546100D02*
Y463550D01*
G01X-584200Y495300D02*
Y463550D01*
G01X-635000Y525300D02*
Y584200D01*
X-609600Y609600D01*
Y660400D01*
X-558800Y711200D01*
X-548350D01*
G01X-622300Y576100D02*
Y584190D01*
X-603250Y603240D01*
Y654050D01*
X-558800Y698500D01*
X-548350D01*
G01X-609600Y527050D02*
Y584190D01*
X-596900Y596890D01*
Y647700D01*
X-558800Y685800D01*
X-548350D01*
G01X-596900Y576100D02*
Y584200D01*
X-590550Y590550D01*
Y641350D01*
X-558800Y673100D01*
X-548350D01*
G01Y660400D02*
X-558800D01*
X-584200Y635000D01*
Y525300D01*
G01X-539750Y1380200D02*
Y1289050D01*
X-571500Y1257300D01*
X-617700D01*
G01X-590550Y1380200D02*
Y1320800D01*
X-603250Y1308100D01*
X-617700D01*
G01X-615950Y1380200D02*
Y1335250D01*
X-617700Y1333500D01*
G01X-565150Y1380200D02*
Y1301750D01*
X-584200Y1282700D01*
X-617700D01*
G01X-615950Y1555750D02*
Y1473200D01*
G01X-603250Y1504950D02*
Y1473200D01*
G01X-590550Y1555750D02*
Y1473200D01*
G01X-628650Y1504950D02*
Y1473200D01*
G01Y1534950D02*
Y1593850D01*
X-603250Y1619250D01*
Y1670050D01*
X-552450Y1720850D01*
X-542000D01*
G01Y1695450D02*
X-552450D01*
X-590550Y1657350D01*
Y1606550D01*
X-603250Y1593850D01*
Y1534950D01*
G01X-615950Y1585750D02*
Y1593840D01*
X-596900Y1612890D01*
Y1663700D01*
X-552450Y1708150D01*
X-542000D01*
G01X-590550Y1585750D02*
Y1593850D01*
X-584200Y1600200D01*
Y1651000D01*
X-552450Y1682750D01*
X-542000D01*
G01X-571500Y546100D02*
Y463550D01*
G01X-558800Y495300D02*
Y463550D01*
G01X-546100Y546100D02*
Y463550D01*
G01X-548350Y647700D02*
X-558800D01*
X-577850Y628650D01*
Y590560D01*
X-571500Y584210D01*
Y576100D01*
G01X-548350Y635000D02*
X-558800D01*
X-571500Y622300D01*
Y596910D01*
X-558800Y584210D01*
Y525300D01*
G01X-548350Y622300D02*
X-558800D01*
X-565150Y615950D01*
Y603260D01*
X-546100Y584210D01*
Y576100D01*
G01X-577850Y1504950D02*
Y1473200D01*
G01X-565150Y1555750D02*
Y1473200D01*
G01X-552450Y1504950D02*
Y1473200D01*
G01X-539750Y1555750D02*
Y1473200D01*
G01X-542000Y1670050D02*
X-552450D01*
X-577850Y1644650D01*
Y1534950D01*
G01X-542000Y1644650D02*
X-552450D01*
X-565150Y1631950D01*
Y1606560D01*
X-552450Y1593860D01*
Y1534950D01*
G01X-542000Y1657350D02*
X-552450D01*
X-571500Y1638300D01*
Y1600210D01*
X-565150Y1593860D01*
Y1585750D01*
G01X-542000Y1631950D02*
X-552450D01*
X-558800Y1625600D01*
Y1612910D01*
X-539750Y1593860D01*
Y1585750D01*
G54D26*
X-427950Y-10300D03*
G54D17*
X-766750Y33800D03*
Y50800D03*
X-647700Y59200D03*
Y76200D03*
X-539750Y-31750D03*
Y-14750D03*
G54D36*
G01X-668800Y101600D02*
X-668400Y102000D01*
X-654000D01*
G54D18*
X-804700Y82550D03*
X-774700D03*
X-803100Y171450D03*
X-773100D03*
X-654050Y247650D03*
X-674850Y260350D03*
X-704850D03*
X-654050Y273050D03*
X-674850Y285750D03*
X-704850D03*
X-654050Y298450D03*
X-674850Y311150D03*
X-704850D03*
X-654050Y323850D03*
X-674850Y336550D03*
X-704850D03*
X-668500Y1270000D03*
X-698500D03*
X-668500Y1295400D03*
X-698500D03*
X-668500Y1320800D03*
X-698500D03*
X-668500Y1346200D03*
X-698500D03*
X-624050Y247650D03*
Y273050D03*
Y298450D03*
Y323850D03*
X-617700Y1257300D03*
X-647700D03*
X-617700Y1282700D03*
X-647700D03*
X-617700Y1308100D03*
X-647700D03*
X-617700Y1333500D03*
X-647700D03*
X-528800Y25400D03*
X-558800D03*
X-557050Y57150D03*
X-527050D03*
G54D27*
X-488950Y-33300D03*
Y-10300D03*
Y12700D03*
G54D37*
G01X-965200Y-66930D02*
Y-40640D01*
G01D02*
Y-14350D01*
G01Y-40640D02*
X-938910D01*
G01X-965200Y822070D02*
Y848360D01*
G01D02*
Y874650D01*
G01Y848360D02*
X-938910D01*
G01X-952840Y238760D02*
X-939800D01*
G01X-952840Y225720D02*
X-939800Y238760D01*
G01X-889000D02*
X-875960D01*
G01X-889000D02*
X-875960Y251800D01*
G01X-952840Y772160D02*
X-939800D01*
G01X-951020Y783380D02*
X-939800Y772160D01*
G01X-889000D02*
X-875960D01*
G01X-889000D02*
X-877780Y783380D01*
G01X-889000Y855610D02*
Y866400D01*
G01D02*
Y877190D01*
G01X-907790Y866400D02*
X-889000D01*
G01D02*
X-870210D01*
G01X-817550Y10510D02*
Y20800D01*
G01D02*
Y31090D01*
G01X-831590Y20800D02*
X-817550D01*
G01X-766750Y23010D02*
Y33800D01*
G01X-779040D02*
X-766750D01*
G01D02*
X-754460D01*
G01X-743290Y38100D02*
X-730250D01*
G01X-738990Y101600D02*
X-728200D01*
G01X-730250Y29810D02*
Y38100D01*
G01D02*
X-717210D01*
G01X-728200Y89310D02*
Y101600D01*
G01D02*
Y113890D01*
G01X-655990Y463550D02*
X-647700D01*
G01X-656640Y609600D02*
X-641350D01*
G01X-647700Y48410D02*
Y59200D01*
G01X-596640Y-750D02*
X-577850D01*
G01X-647700Y59200D02*
X-635410D01*
G01X-647700Y448260D02*
Y463550D01*
G01D02*
Y478840D01*
G01X-641350Y601310D02*
Y609600D01*
G01D02*
X-626060D01*
G01X-641350Y1457910D02*
Y1473200D01*
G01D02*
Y1488490D01*
G01X-649640Y1473200D02*
X-641350D01*
G01X-635000Y1610960D02*
Y1619250D01*
G01X-650290D02*
X-635000D01*
G01D02*
X-619710D01*
G01X-539750Y-14750D02*
Y-3960D01*
G01X-552040Y-14750D02*
X-539750D01*
G01D02*
X-527460D01*
G01X-558800Y11360D02*
Y25400D01*
G01X-569090D02*
X-558800D01*
G01D02*
X-548510D01*
G01X-577850Y-11540D02*
Y-750D01*
G01D02*
Y10040D01*
G01Y-750D02*
X-559060D01*
G54D19*
X-740400Y146050D03*
Y171450D03*
Y196850D03*
X-653400D03*
Y171450D03*
Y146050D03*
G54D28*
X-469900Y109400D03*
Y152400D03*
X-196850Y203200D03*
Y160200D03*
Y261800D03*
Y363400D03*
Y304800D03*
Y406400D03*
Y508000D03*
Y465000D03*
Y566600D03*
Y668200D03*
Y609600D03*
Y711200D03*
Y812800D03*
Y769800D03*
Y871400D03*
Y914400D03*
Y1276350D03*
Y1233350D03*
Y1334950D03*
Y1377950D03*
Y1479550D03*
Y1436550D03*
Y1581150D03*
Y1538150D03*
Y1639750D03*
Y1682750D03*
Y1784350D03*
Y1741350D03*
Y1885950D03*
Y1842950D03*
Y1944550D03*
Y1987550D03*
G54D29*
X-133350Y152400D03*
Y1225550D03*
X-82550Y152400D03*
Y1225550D03*
M02*
